<svg xmlns="http://www.w3.org/2000/svg" height="594.72" width="613.267" xml:space="preserve"><path style="fill:#dadbd8;fill-opacity:1;fill-rule:nonzero;stroke:none" d="m1347.26 4350.75-12.72 33.11-12.98-33.11zm7.15-18.55h-40.13l-6.49-16.42h-24.9l39.87 92.85h24.89l38.94-92.85h-25.82l-6.36 16.42M275.289 725.02c-33.133 0-59.707 13.46-80.047 37.07l27.559 41.019c16.726-17.39 34.773-25.918 48.222-25.918 14.766 0 23.95 9.18 23.95 26.571V908.09h-78.735v49.531H355.34V802.449c0-49.211-30.844-77.429-80.051-77.429m1100.661 879.33-41.79 62.24-20.67-22.97v-39.27h-42.02v160.98h42.02v-67.51l60.4 67.51h48.68l-59.7-66.6 63.38-94.38h-50.3m-1096.657 77.16 75.793-100.59v100.59h40.519v-167.08h-38.132l-75.797 100.11v-100.11h-40.758v167.08h38.375m3508.187 345.3 24.63-54.17 24.63 54.17h26.49v-92.84h-21.46l-.12 58.81-21.6-49.54h-15.88l-21.6 49.54v-58.81h-21.59v92.84h26.5m-750.11 2401.53 24.63-54.18 24.64 54.18h26.49v-92.85h-21.46l-.13 58.81-21.59-49.53h-15.89l-21.59 49.53v-58.81h-21.59v92.85h26.49m1489.81-2831.6v-132.63h72.29v-37.97h-116.82v170.6h44.53m-659.83 2811.88v-72.18h39.34v-20.66h-63.58v92.84h24.24m-1729.97-433.03v-72.18h39.34v-20.66h-63.58v92.84h24.24m2238.13-881.06c-20.8 0-34.52-7.57-34.52-22.7 0-54.85 174.49-23.64 174.49-142.81 0-67.61-59.58-102.14-133.34-102.14-55.33 0-113.02 20.34-152.74 52.96l33.57 67.62c34.05-29.31 85.59-50.12 120.11-50.12 25.54 0 41.61 9.46 41.61 26.96 0 56.27-174.49 22.22-174.49 139.49 0 61.95 52.49 101.19 132.4 101.19 48.71 0 97.89-15.13 132.42-37.35l-32.64-68.57c-34.99 19.86-79.43 35.47-106.87 35.47m-990.28-1628.82c-20.8 0-34.52-7.57-34.52-22.7 0-54.85 174.49-23.64 174.49-142.8 0-67.63-59.58-102.15-133.35-102.15-55.32 0-113.02 20.34-152.73 52.97l33.57 67.62c34.04-29.32 85.59-50.13 120.11-50.13 25.54 0 41.61 9.46 41.61 26.95 0 56.28-174.49 22.23-174.49 139.5 0 61.95 52.49 101.2 132.4 101.2 48.71 0 97.89-15.13 132.41-37.36l-32.63-68.56c-34.99 19.85-79.44 35.46-106.87 35.46M2347.98 3488.42c0 48.89-31.92 82.02-76.76 82.02h-46.47V3407.2h50.1c42.83 0 73.13 32.73 73.13 81.22zm75.56.8c0-84.44-61.81-141.82-153.54-141.82h-119.19v283.24h122.02c89.7 0 150.71-57.37 150.71-141.42m1406.51-905.62h32.69c18.19 0 28.76 9.34 28.76 26.79 0 16.97-10.57 26.06-28.76 26.06h-32.69zm58.5-83.58-25.07 47.69h-33.43v-47.69h-44.99v172.32h77.44c45.72 0 71.77-22.12 71.77-60.47 0-26.06-10.82-45.23-30.72-55.55l35.89-56.3h-50.89m171.02-911.24v-57.97h-80.63v-211.15h-70.25v211.15h-79.86v57.97h230.74m-699.48 457.08c0 13.81-12.54 22.59-32.62 22.28h-43.93v-46.11h43.93c20.08 0 32.62 8.77 32.62 23.83zm-6.9 85.97c0 13.17-9.73 21.02-25.72 20.7h-43.93v-42.66h43.93c15.99 0 25.72 8.15 25.72 21.96zm58.98 10.04c0-22.91-14.74-41.42-37.96-47.7 27.93-5.64 45.17-27.28 45.17-55.52 0-37.65-32.94-61.18-84.7-61.18h-108.54v219.93h104.46c49.88 0 81.57-21.65 81.57-55.53m904.54 1936.43c0 13.79-12.55 22.58-32.63 22.27h-43.93v-46.12h43.93c20.08 0 32.63 8.78 32.63 23.85zm-6.91 85.95c0 13.18-9.73 21.02-25.72 20.71h-43.93v-42.67h43.93c15.99 0 25.72 8.16 25.72 21.96zm58.99 10.04c0-22.9-14.75-41.41-37.96-47.68 27.92-5.65 45.17-27.3 45.17-55.53 0-37.65-32.95-61.18-84.7-61.18h-108.56v219.92h104.47c49.89 0 81.58-21.65 81.58-55.53M1784.13 2070.77c-33.88 0-59.61-26.67-59.61-61.81 0-35.45 25.73-62.43 59.61-62.43 18.2 0 39.22 10.04 54.59 25.73l33.56-36.08c-23.52-24.79-58.66-40.79-91.29-40.79-66.19 0-115.45 48.32-115.45 112.94 0 63.37 50.51 111.06 117.65 111.06 32.63 0 66.82-14.43 88.78-37.65l-33.25-39.84c-14.44 17.57-35.45 28.87-54.59 28.87M4243.01 917.621c-33.87 0-59.61-26.672-59.61-61.812 0-35.438 25.74-62.43 59.61-62.43 18.2 0 39.22 10.039 54.59 25.742l33.57-36.09c-23.53-24.781-58.66-40.781-91.29-40.781-66.2 0-115.45 48.309-115.45 112.941 0 63.368 50.51 111.047 117.65 111.047 32.62 0 66.81-14.429 88.78-37.636l-33.26-39.852c-14.43 17.57-35.45 28.871-54.59 28.871M3576.32 3931.46l-45.4 118.22-46.33-118.22zm25.54-66.2h-143.28l-23.17-58.63h-88.9l142.33 331.48h88.9l139.02-331.48h-92.2l-22.7 58.63m-756.12 152.27v-69.87h-57.08v68.31l-80.47 150.33h57.08l51.77-93.88 50.52 93.88h57.08l-78.9-148.77m-1153.42-359.52c28.29 0 47.85 19.21 47.85 50.99v142.16h63.91V3709c0-64.61-43.31-105.48-112.12-105.48-69.15 0-113.51 40.87-113.51 105.48v142.16h63.92V3709c0-31.43 20.96-50.99 49.95-50.99M905.398 1500.43l-.386-55.62H775.469v-59.44h119.64v-55.63h-119.64v-96.4h-69.727v267.09h199.656m-834 859.02v-81.34h80.493v81.34h52.047v-199.38h-52.047v76.52H71.398v-76.52h-52.05v199.38h52.05M3749.64 3427.8v-198.31h-51.77v198.31h51.77m-1713.1 912.48c0-38.46 30.02-68.15 65.11-68.15 35.43 0 63.77 29.69 63.77 68.15 0 38.45-28.34 67.47-63.77 67.47-35.42 0-65.11-29.02-65.11-67.47zm192.3.33c0-69.16-54.65-121.11-127.86-121.11-73.21 0-127.87 51.95-127.87 121.11 0 68.83 54.66 119.77 127.87 119.77 73.21 0 127.86-51.28 127.86-119.77m2058.78-2041.18 59.04-171.05 59.38 171.05h63.42l-92.43-236.5h-64.1l-91.77 236.5h66.46M3112.35 3478.01l32.61-94.47 32.79 94.47h35.02l-51.05-130.61h-35.4l-50.67 130.61h36.7M183.355 3995.25c0 17.29-10.769 26.55-29.312 26.55h-29.066v-53.86h29.066c18.543 0 29.312 9.52 29.312 27.31zm43.598 1.5c0-41.34-25.808-65.39-70.656-65.39h-31.32v-48.61H79.129v175.64h77.168c44.848 0 70.656-22.55 70.656-61.64m4158.867-311.44 36.35-79.95 36.36 79.95h39.09v-137.02h-31.66l-.19 86.79-31.87-73.11h-23.45l-31.86 73.11v-86.79h-31.87v137.02h39.1M518.359 3161.2v-69.04H343.398v-61.94H501.34v-68.57l-157.942-.47v-62.42h179.688v-69.04H256.863v331.48h261.496m436.262 1117.94v-56.74l-174.965-205.22h177.801v-69.52H663.805v56.27l174.961 205.7H669.953v69.51h284.668" transform="matrix(.13333 0 0 -.13333 0 594.72)"/><path style="fill:#17282f;fill-opacity:1;fill-rule:nonzero;stroke:none" d="M4568.12 254.082c0-1.441-1022.69-2.602-2283.95-2.602C1022.47 251.48 0 252.641 0 254.082c0 1.438 1022.47 2.598 2284.17 2.598 1261.26 0 2283.95-1.16 2283.95-2.598" transform="matrix(.13333 0 0 -.13333 0 594.72)"/><path style="fill:#f2575d;fill-opacity:1;fill-rule:nonzero;stroke:none" d="M1649.92 3962.57c-3.12 10.3-14.04 16.07-24.29 12.84l-87.65-27.62-1201.425-318.41 427.832-1667.26 148.898-78.35L2136.1 2223.68c19.92 5.54 31.39 26.38 25.41 46.17l-511.59 1692.72" transform="matrix(.13333 0 0 -.13333 0 594.72)"/><path style="fill:#f3f2f1;fill-opacity:1;fill-rule:nonzero;stroke:none" d="m1514.04 4028.61 119.67-70.18 512.45-1707.62-1234.89-352.54-140.227 76.11 742.997 2054.23" transform="matrix(.13333 0 0 -.13333 0 594.72)"/><path style="fill:#f2575d;fill-opacity:1;fill-rule:nonzero;stroke:none" d="M1978.3 2321.83 764.387 1962.12 273.605 3618.37c-6.453 21.77 5.754 44.69 27.415 51.49l1200.84 376.98c12.41 3.89 25.59-3.2 29.16-15.71l474.49-1659.75c6.05-21.19-6.08-43.29-27.21-49.55" transform="matrix(.13333 0 0 -.13333 0 594.72)"/><path style="fill:#17282f;fill-opacity:1;fill-rule:nonzero;stroke:none" d="M919.734 2032.2c-1.379-.42-114.336 370.43-252.265 828.2-137.981 457.94-248.684 829.38-247.305 829.8 1.375.41 114.309-370.36 252.289-828.29 137.93-457.78 248.656-829.3 247.281-829.71m-42.808-42.81c-1.379-.42-114.336 370.43-252.27 828.21-137.976 457.93-248.679 829.37-247.301 829.79 1.375.41 114.309-370.36 252.29-828.29 137.929-457.78 248.656-829.3 247.281-829.71" transform="matrix(.13333 0 0 -.13333 0 594.72)"/><path style="fill:#fff;fill-opacity:1;fill-rule:nonzero;stroke:none" d="M800.934 3230.65c-4.676 14.86-17.539 21.86-31.161 17.57l-14.101-4.45 15.617-49.57 15.211 4.8c13.004 4.09 19.074 16.94 14.434 31.65zm22.863 7.48c8.086-25.64-5.195-48.98-33.051-57.75l-36.187-11.41-27.102 85.99 37.051 11.68c27.238 8.59 51.246-2.98 59.289-28.51m20.125 53.54 27.109-85.99-22.453-7.08-27.105 86 22.449 7.07m63.355-.25c-13.246-4.18-20.015-17.78-15.687-31.52 4.375-13.87 17.754-21.23 31-17.05 7.117 2.24 14.101 8.75 18.18 16.78l17.566-9.97c-6.141-12.6-17.91-23.18-30.672-27.2-25.887-8.16-51.094 4.65-59.062 29.94-7.813 24.77 6.062 49.64 32.316 57.92 12.762 4.02 27.906 2.59 39.355-3.78l-8.089-19.68c-7.813 5.09-17.422 6.92-24.907 4.56m104.533 53.17 5.84-18.51-25.767-8.13 21.267-67.48-22.451-7.07-21.269 67.48-25.516-8.04-5.84 18.51 73.736 23.24m31.56 9.95 27.11-86-22.46-7.07-27.11 85.99 22.46 7.08m47.82-32.26c4.41-13.98 18.73-21.35 31.49-17.32 12.88 4.06 19.78 18.11 15.37 32.09-4.41 13.98-18.03 21.29-30.91 17.23-12.89-4.06-20.36-18.02-15.95-32zm69.89 22.15c7.92-25.14-5.99-50.3-32.62-58.68-26.61-8.39-52.45 4.23-60.37 29.38-7.89 25.03 6.15 49.82 32.77 58.2 26.62 8.39 52.37-3.99 60.22-28.9m17.42 52.7 55.33-39.47-16.31 51.77 20.85 6.57 27.11-86-19.63-6.18-55.25 39.23 16.23-51.53-20.97-6.61-27.11 85.99 19.75 6.23m144.29-13.46-21.45 26.96-2.35-34.46zm12.04-15.08-37.17-11.72-1.22-17.11-23.06-7.27 9.82 97.64 23.06 7.27 63.17-74.63-23.92-7.54-10.68 13.36m51.68 45.42 16.32 5.14c9.08 2.86 12.88 9.19 10.14 17.9-2.67 8.46-9.37 11.34-18.45 8.48l-16.32-5.15zm42.34-32.51-20.01 19.86-.48-.16-16.21-5.1 7.5-23.8-22.45-7.08-27.1 85.99 38.65 12.19c22.82 7.19 39.3.26 45.33-18.88 4.1-13.01 1.72-24.28-6.59-32.56l26.76-22.45-25.4-8.01m72.97 53.22 8.66-27.49-22.45-7.08-8.47 26.88-50.29 49.14 22.46 7.08 32-30.51 8.24 43.19 22.45 7.08-12.6-68.29m-423.78-421.12-56.37 70.87-6.19-90.59zm31.64-39.66-97.71-30.8-3.2-44.97-60.629-19.1 25.816 256.67 60.633 19.1 166.07-196.18-62.89-19.83-28.09 35.11m155.52 134.1 11.58-36.76-85.46-26.93-11.58 36.76 85.46 26.93m190.5 179.53 12.2-38.7-75.21-177.57 121.26 38.22 14.94-47.41-200.27-63.12-12.09 38.38 75.1 177.89-115.13-36.29-14.94 47.41 194.14 61.19" transform="matrix(.13333 0 0 -.13333 0 594.72)"/><path style="fill:#17282f;fill-opacity:1;fill-rule:nonzero;stroke:none" d="M2041.79 2278.46c.02-.09-.94-.47-2.83-1.14-2.18-.74-4.96-1.68-8.45-2.85-7.8-2.51-18.72-6.01-32.62-10.47-28.74-8.98-69.73-21.78-120.24-37.56-101.97-31.33-242.28-74.43-397.26-122.04-155.21-47.06-295.69-89.65-397.78-120.6-50.7-15.12-91.856-27.38-120.715-35.98L929 1938.29c-3.551-.97-6.383-1.75-8.598-2.35-1.941-.5-2.953-.72-2.98-.63-.024.08.933.47 2.824 1.14 2.176.73 4.957 1.67 8.442 2.84 7.8 2.51 18.718 6.01 32.613 10.47 28.742 8.98 69.729 21.78 120.229 37.56 101.98 31.32 242.31 74.43 397.35 122.06 155.15 47.04 295.62 89.63 397.71 120.59l120.72 35.97c14.02 4.06 25.03 7.25 32.9 9.53 3.55.98 6.38 1.75 8.6 2.36 1.94.5 2.95.71 2.98.63" transform="matrix(.13333 0 0 -.13333 0 594.72)"/><path style="fill:#33535f;fill-opacity:1;fill-rule:nonzero;stroke:none" d="m1361.14 2100.97-184.11-56.46c43.03-77.63 74.14-166.41 91.13-253.52 26.09 40.09 40.6 87.62 41.34 135.44 31.1-37.3 65.05-72.22 101.48-104.34 1.5 98.04-13.37 187.87-49.84 278.88" transform="matrix(.13333 0 0 -.13333 0 594.72)"/><path style="fill:#17282f;fill-opacity:1;fill-rule:nonzero;stroke:none" d="M2019.34 2300.9c.03-.09-.93-.47-2.82-1.14-2.18-.74-4.96-1.68-8.45-2.85-7.8-2.5-18.72-6.01-32.62-10.47-28.74-8.98-69.73-21.78-120.24-37.56-101.97-31.33-242.28-74.43-397.26-122.04-155.21-47.06-295.69-89.65-397.78-120.6-50.71-15.12-91.854-27.38-120.717-35.98l-32.894-9.53c-3.547-.97-6.379-1.75-8.594-2.35-1.945-.5-2.957-.72-2.985-.63-.023.08.934.47 2.825 1.14 2.175.73 4.957 1.67 8.445 2.84 7.797 2.51 18.719 6.01 32.609 10.47 28.743 8.98 69.731 21.78 120.231 37.56 101.98 31.33 242.31 74.43 397.34 122.06 155.16 47.04 295.63 89.63 397.72 120.59l120.72 35.97c14.02 4.06 25.03 7.26 32.9 9.53 3.55.98 6.38 1.75 8.6 2.36 1.94.5 2.95.71 2.97.63m37.22 47.17c-.09-.03-.57 1.38-1.43 4.16-.9 3.01-2.12 7.1-3.69 12.35-3.2 11.13-7.8 27.13-13.69 47.61-11.82 41.64-28.81 101.46-49.77 175.28-42.01 148-100.47 352.33-166.4 577.62-65.97 225.35-126.92 428.98-171.34 576.27-22.15 73.48-40.1 133.01-52.6 174.44-6.08 20.42-10.83 36.38-14.14 47.48-1.5 5.26-2.68 9.37-3.55 12.38-.77 2.8-1.12 4.25-1.04 4.28.09.02.61-1.37 1.55-4.12.99-2.98 2.33-7.03 4.05-12.23 3.52-11.04 8.59-26.89 15.07-47.19l54.18-173.96c45.32-147.04 106.84-350.52 172.82-575.89 65.93-225.31 123.84-429.82 164.95-578.09 20.29-74.01 36.73-133.98 48.17-175.73 5.49-20.59 9.77-36.68 12.75-47.88 1.36-5.3 2.42-9.44 3.19-12.48.69-2.82 1.01-4.28.92-4.3" transform="matrix(.13333 0 0 -.13333 0 594.72)"/><path style="fill:#fff;fill-opacity:1;fill-rule:nonzero;stroke:none" d="M1528.21 3660.19s-.48 1.21-1.24 3.48c-.8 2.44-1.89 5.77-3.31 10.09-2.9 9.02-7.1 22.07-12.52 38.95l-46.39 145.99 1.86-.97c-200.08-62.65-534.262-167.28-912.626-285.75l-.05-.02 1.707 3.26c21.238-68.16 42.031-134.88 62-198.97l-3.207 1.69c259.492 80.43 487.496 151.11 650.836 201.74 81.72 25.16 147.26 45.33 192.56 59.28 22.52 6.86 40 12.19 52.05 15.86 5.84 1.75 10.33 3.1 13.57 4.06 3.08.91 4.76 1.31 4.76 1.31s-1.4-.55-4.34-1.53c-3.14-1.02-7.5-2.44-13.17-4.28-11.88-3.79-29.11-9.28-51.3-16.36-45.07-14.23-110.27-34.82-191.57-60.5-163.6-51.32-391.967-122.95-651.869-204.48l-2.445-.76-.766 2.45-62.078 198.94-.777 2.49 2.488.77.051.02c378.64 117.58 713.066 221.43 913.286 283.61l1.43.44.43-1.41c19.29-63.05 34.56-112.96 45.08-147.32 5.08-16.84 9.02-29.86 11.74-38.86 1.25-4.25 2.22-7.52 2.93-9.93.64-2.21.94-3.32.88-3.29m2228.69-647.35c-228.48 20.67-396.93 222.64-376.26 451.12 20.68 228.47 222.65 396.92 451.12 376.25 228.47-20.67 396.93-222.64 376.25-451.12-20.67-228.47-222.64-396.92-451.11-376.25" transform="matrix(.13333 0 0 -.13333 0 594.72)"/><path style="fill:#17282f;fill-opacity:1;fill-rule:nonzero;stroke:none" d="M3454.95 3015.78c-.43-.03-.28 4.55-2.63 12.19-2.3 7.54-7.92 18.29-19.21 26.97-5.61 4.25-12.6 7.96-20.69 9.65-8.04 1.61-17.13 1.23-25.75-2.22-17.12-6.41-33.04-24.11-33.92-45.63-.47-21.55 14.33-40.21 31.02-47.67 8.39-3.98 17.44-4.93 25.57-3.81 8.17 1.18 15.38 4.46 21.25 8.35 11.8 7.96 18.08 18.34 20.84 25.72 2.82 7.48 2.96 12.06 3.39 12.01.13-.01.11-1.13-.04-3.29-.03-1.08-.2-2.4-.56-3.94-.28-1.56-.67-3.34-1.37-5.28-2.41-7.77-8.53-18.82-20.7-27.48-6.06-4.24-13.6-7.86-22.32-9.27-8.68-1.35-18.5-.44-27.53 3.73-9.06 3.96-17.45 10.76-23.58 19.61-6.26 8.75-10.06 19.87-9.85 31.44.51 11.55 5 22.41 11.78 30.75 6.67 8.45 15.46 14.71 24.76 18.1 9.26 3.6 19.12 3.91 27.7 2.02 8.61-1.94 15.91-6.03 21.69-10.63 11.62-9.4 17.05-20.81 18.97-28.71.58-1.98.85-3.78 1.03-5.36.27-1.56.36-2.89.33-3.97.01-2.16-.04-3.28-.18-3.28m269.25-2.39s2.31-.14 6.77-.6c4.56-.5 11.16-1.21 19.79-2.15 4.35-.48 9.21-1.03 14.56-1.63 5.38-.35 11.3-.2 17.69-.34 6.39-.08 13.27-.17 20.62-.26 3.69-.18 7.47.06 11.37.49l12.05 1.05c33.13 1.81 73.35 10.29 117.31 27.01 43.82 16.94 91.22 44.09 134.45 84.71 5.36 5.12 10.78 10.29 16.26 15.52 5.16 5.55 10.03 11.49 15.14 17.31 2.54 2.94 5.09 5.88 7.65 8.85 2.59 2.94 5.19 5.9 7.35 9.23 4.58 6.46 9.2 13 13.87 19.6 2.31 3.3 4.73 6.58 6.99 9.97 2.02 3.55 4.05 7.11 6.09 10.7l12.36 21.69c3.93 7.41 7 15.35 10.6 23.11 1.74 3.9 3.49 7.83 5.24 11.77.85 1.98 1.82 3.92 2.58 5.95l2.04 6.19c5.3 16.57 11.72 33.15 14.84 50.93 1.81 8.8 4.19 17.58 5.58 26.6 1.07 9.07 2.14 18.22 3.22 27.43.46 4.6 1.27 9.21 1.44 13.87.08 4.67.15 9.35.23 14.06.03 9.4.54 18.88.2 28.39-1.85 18.97-2.34 38.38-6.76 57.5-.89 4.81-1.79 9.64-2.69 14.48-.47 2.41-.84 4.85-1.39 7.25l-2.07 7.13c-2.75 9.51-5.51 19.08-8.29 28.71-3.23 9.47-7.3 18.72-10.93 28.16-1.98 4.66-3.51 9.54-5.87 14.06l-7 13.63c-8.62 18.64-20.47 35.67-31.68 53.3-6.45 8.23-12.93 16.49-19.45 24.78l-4.88 6.23c-1.76 1.98-3.63 3.85-5.45 5.78l-10.98 11.54-11.03 11.59-12.11 10.56-12.2 10.57-6.11 5.3c-2.15 1.64-4.4 3.14-6.59 4.73l-26.59 18.85c-9.47 5.42-18.98 10.85-28.52 16.31-38.95 20.39-81.5 35.03-125.95 43.18-44.66 6.98-89.68 7.22-133.19.82-10.8-2-21.58-3.99-32.31-5.97-10.48-3.03-20.93-6.04-31.33-9.04l-7.78-2.28-7.53-2.99-15-5.95-14.92-5.98-14.24-7.3-14.18-7.27-7.05-3.65-6.67-4.27c-8.89-5.69-17.73-11.35-26.54-16.98-16.4-12.95-33.21-25.12-47.51-39.88l-11.1-10.55c-3.72-3.49-6.77-7.59-10.18-11.33-6.55-7.73-13.44-15.12-19.61-23-5.81-8.16-11.57-16.29-17.31-24.36l-4.3-6.05c-1.31-2.09-2.47-4.27-3.71-6.39-2.45-4.27-4.89-8.53-7.31-12.78-10.49-16.6-17.36-34.76-25.36-52.06-3.46-8.87-6.11-17.99-9.18-26.88-1.48-4.46-2.95-8.91-4.42-13.34-1.38-4.46-2.13-9.07-3.22-13.57-2.02-9.06-4.02-18.04-6.01-26.96-1.66-8.97-2.31-18.05-3.5-26.96-2.92-17.81-2.32-35.58-2.79-52.98l-.12-6.51c.06-2.16.33-4.32.48-6.47.35-4.3.7-8.58 1.06-12.84.84-8.51 1.11-17.02 2.38-25.31 1.52-8.27 3.03-16.45 4.52-24.56.74-4.06 1.48-8.09 2.22-12.11 1.1-3.92 2.21-7.83 3.31-11.72 2.23-7.77 4.44-15.46 6.62-23.08.95-3.85 2.43-7.5 3.9-11.14 1.44-3.64 2.88-7.26 4.3-10.87 2.91-7.18 5.54-14.4 8.58-21.33 3.45-6.75 6.87-13.42 10.24-20.02 27.41-52.61 63.2-93.87 98.98-124.32 4.46-3.84 8.76-7.72 13.14-11.34 4.63-3.29 9.17-6.53 13.63-9.71 4.45-3.18 8.83-6.3 13.11-9.35 2.16-1.5 4.21-3.12 6.41-4.46 2.23-1.29 4.44-2.56 6.63-3.81 8.75-5.04 17.12-9.85 25.1-14.44 8.1-4.36 16.3-7.53 23.8-11.07 3.78-1.71 7.46-3.36 11.03-4.97 3.54-1.69 7.04-3.17 10.57-4.21 6.97-2.34 13.49-4.53 19.55-6.57 6.08-1.97 11.62-4.06 16.81-5.5 5.25-1.2 10.01-2.29 14.28-3.26 8.45-1.97 14.92-3.47 19.39-4.51 4.36-1.03 6.58-1.66 6.58-1.66s-2.26.36-6.66 1.27c-4.49.96-10.99 2.33-19.49 4.13-4.29.93-9.08 1.96-14.36 3.1-5.22 1.38-10.79 3.42-16.89 5.34-6.1 1.99-12.66 4.12-19.68 6.41-3.55 1.02-7.07 2.47-10.64 4.14-3.59 1.59-7.29 3.22-11.1 4.91-7.55 3.49-15.8 6.63-23.96 10.95-8.05 4.57-16.48 9.35-25.29 14.36-2.21 1.25-4.44 2.51-6.69 3.79-2.21 1.34-4.28 2.96-6.46 4.45-4.32 3.05-8.73 6.15-13.22 9.33-4.5 3.17-9.07 6.4-13.74 9.7-4.42 3.61-8.75 7.49-13.26 11.33-36.1 30.45-72.25 71.82-100 124.69-3.41 6.63-6.87 13.34-10.36 20.13-3.08 6.97-5.76 14.23-8.7 21.45-1.45 3.63-2.9 7.27-4.36 10.94-1.49 3.65-2.99 7.33-3.96 11.2-2.22 7.67-4.46 15.41-6.73 23.23-1.11 3.92-2.32 7.82-3.36 11.8-.75 4.04-1.51 8.11-2.27 12.19-1.51 8.16-3.05 16.41-4.6 24.73-1.29 8.36-1.6 16.92-2.46 25.5-.36 4.29-.73 8.61-1.09 12.94-.16 2.17-.43 4.34-.49 6.51l.1 6.57c.43 17.53-.19 35.44 2.71 53.4 1.18 8.98 1.83 18.13 3.49 27.17 1.99 9 3.99 18.06 6.01 27.19 1.09 4.54 1.84 9.19 3.22 13.69 1.48 4.47 2.96 8.96 4.44 13.46 3.08 8.97 5.74 18.16 9.21 27.12 8.04 17.45 14.96 35.78 25.51 52.53 2.44 4.29 4.9 8.59 7.36 12.9 1.25 2.15 2.41 4.35 3.74 6.45l4.32 6.11c5.78 8.15 11.59 16.35 17.44 24.6 6.22 7.95 13.15 15.42 19.76 23.21 3.43 3.79 6.51 7.92 10.25 11.44l11.2 10.67c14.41 14.89 31.35 27.19 47.9 40.26 8.87 5.7 17.79 11.41 26.76 17.16l6.73 4.31 7.11 3.69 14.3 7.35 14.37 7.37 15.05 6.05 15.14 6.01 7.59 3.01 7.86 2.32c10.49 3.03 21.03 6.07 31.62 9.12 10.83 2.01 21.7 4.03 32.61 6.05 43.91 6.47 89.35 6.23 134.42-.82 44.86-8.21 87.81-23 127.11-43.59 9.63-5.51 19.23-11 28.78-16.48 8.98-6.37 17.93-12.71 26.83-19.04 2.22-1.59 4.49-3.12 6.65-4.77l6.17-5.35 12.31-10.67 12.2-10.67 11.13-11.7 11.08-11.65c1.83-1.95 3.72-3.84 5.48-5.83l4.94-6.29c6.56-8.38 13.09-16.72 19.6-25.02 11.3-17.79 23.23-35 31.92-53.81l7.04-13.75c2.37-4.57 3.92-9.48 5.91-14.19 3.66-9.53 7.75-18.86 10.99-28.42 2.8-9.72 5.58-19.37 8.34-28.97l2.07-7.19c.56-2.43.93-4.89 1.41-7.32.9-4.89 1.79-9.75 2.69-14.61 4.43-19.29 4.91-38.87 6.74-58 .33-9.59-.19-19.16-.25-28.63-.08-4.74-.17-9.47-.25-14.17-.18-4.7-1-9.35-1.47-13.99-1.11-9.28-2.21-18.5-3.3-27.64-1.41-9.09-3.82-17.94-5.67-26.81-3.18-17.9-9.68-34.6-15.05-51.29l-2.07-6.23c-.77-2.04-1.75-4-2.61-5.99-1.78-3.97-3.55-7.93-5.31-11.86-3.63-7.81-6.75-15.8-10.72-23.26-4.21-7.34-8.38-14.62-12.51-21.82-2.06-3.61-4.12-7.19-6.16-10.76-2.29-3.42-4.73-6.7-7.06-10.04-4.72-6.63-9.39-13.2-14.02-19.7-2.19-3.34-4.81-6.32-7.43-9.27-2.59-2.98-5.16-5.94-7.72-8.89-5.16-5.85-10.08-11.82-15.29-17.38-5.54-5.26-11.01-10.45-16.42-15.58-43.63-40.77-91.41-67.9-135.54-84.73-44.26-16.62-84.71-24.91-117.97-26.5-4.15-.33-8.18-.65-12.1-.97-3.91-.39-7.71-.61-11.41-.39-7.37.15-14.27.3-20.69.43-6.4.2-12.33.12-17.71.54-5.36.66-10.22 1.27-14.58 1.81-8.62 1.11-15.22 1.95-19.77 2.53-4.45.6-6.71 1-6.71 1" transform="matrix(.13333 0 0 -.13333 0 594.72)"/><path style="fill:#17282f;fill-opacity:1;fill-rule:nonzero;stroke:none" d="M3694.78 3517.73h58.58s0 49.2 51.12 50.08c26.55.46 40.31-16.93 45.9-30.26 6.5-15.47 4.53-33.1-4.17-47.45-9.94-16.38-31.71-31.27-71.19-24.31v-132.1h57.93v77.38s81.24 21 81.24 110.54c0 85.66-76.82 105.56-109.71 105.56-25.14 0-110.81-6.08-109.7-109.44m138.87-266.16h-58.79v54.91h58.79v-54.91m-1516.78 64.73c-58.43 44.75-65.34 137.21-26.05 199.43 39.29 62.23 113.95 95.54 187.35 100.83 106.24 7.67 214.98-39.33 282.19-121.95 36.32-44.66 63.95-101.17 116.44-124.79 46.14-20.77 100.13-10.45 149.54-21.34 66.25-14.59 119.48-67.29 148.71-128.5 29.23-61.21 37.42-130.3 39.44-198.11 1.85-62.22.7-130.23 39.46-178.94 37.8-47.5 102.8-62.59 151.86-98.34 92.31-67.25 111.09-215.34 38.5-303.52-23.15-28.1-55.01-52.94-60.58-88.94-5.09-32.85 13.67-64.16 20.9-96.62 18.58-83.56-56.48-174.26-142.03-171.64-43.2 1.32-87.77 22.14-127.98 6.31-39.95-15.71-58.26-60.6-85.83-93.51-54.23-64.72-157.23-81.85-229.49-38.16-30.24 18.29-57.84 46.51-93.18 47.25-35.26.72-65.5-26.77-100.58-30.41-45.93-4.75-85.87 32.3-109.43 72.01-23.56 39.71-38.39 85.35-70.06 118.95-41.47 43.99-103.82 59.46-159.04 84.09-121.86 54.36-218.09 163.37-256.92 291.03-38.83 127.67-19.58 271.8 51.38 384.8" transform="matrix(.13333 0 0 -.13333 0 594.72)"/><path style="fill:#33535f;fill-opacity:1;fill-rule:nonzero;stroke:none" d="M2900.35 2449.28c14.07 12.71 33.68 24.03 53.14 28.62l-3.81.57c3.62.66 7.27.75 10.91.88 14.14 2.05 27.83.13 38.83-8.32l-.37.06c20.8-9.81 38.37-27.24 46.92-48.72 14.88-37.37 4.15-82.44-22.95-112.17-23.56-25.83-61.47-40.79-94.59-29.58-30.43 10.29-51 40.52-57.1 72.05-6.66 34.51 2.94 73.04 29.02 96.61" transform="matrix(.13333 0 0 -.13333 0 594.72)"/><path style="fill:#f9a78d;fill-opacity:1;fill-rule:nonzero;stroke:none" d="M2996.79 2870.67c-.59 175.83-103.84 397.67-279.48 389.62l-553.24-105.27c-53.36-2.44-95.97-45.31-98.1-98.69l-76.31-1482.91 626.18 3.34c7.57 106.03 35.6 404.8 35.61 403.81 0 0 243.61 23.16 307.38 312.39 31.72 143.83 38.62 382.36 37.96 577.71" transform="matrix(.13333 0 0 -.13333 0 594.72)"/><path style="fill:#17282f;fill-opacity:1;fill-rule:nonzero;stroke:none" d="M2865.53 2631.23c-.48-19.82-17.65-35.76-38.36-35.63-20.66.13-37.07 16.24-36.59 36.07.48 19.81 17.66 35.77 38.32 35.65 20.71-.12 37.11-16.27 36.63-36.09m72.57 138.49c-4.92-4.61-32.05 18.08-72.35 20.38-40.22 2.87-71.04-16.1-75.11-10.91-2.02 2.32 3.24 10.85 16.67 19.46 13.23 8.58 35.4 16.37 60.49 14.77 25.09-1.64 45.66-12.14 57.23-22.32 11.82-10.24 15.49-19.33 13.07-21.38m-435.05-113.57c-.48-19.82-17.66-35.75-38.36-35.63-20.66.13-37.07 16.25-36.58 36.07.47 19.81 17.66 35.77 38.32 35.65 20.7-.12 37.11-16.27 36.62-36.09m38.52 129.67c-4.95-4.6-32.1 18.08-72.38 20.37-40.22 2.87-71.03-16.09-75.11-10.9-2.01 2.32 3.2 10.84 16.68 19.45 13.23 8.59 35.39 16.37 60.49 14.78 25.08-1.64 45.65-12.14 57.23-22.32 11.79-10.25 15.49-19.33 13.09-21.38m128.42-307.56c-.05 2.3 25.25 5.13 66.15 7.91 10.35.44 20.21 1.91 22.36 8.82 2.88 7.3-.77 18.64-5.04 30.91-8.2 25.48-16.76 52.18-25.76 80.17-35.61 114.08-60.73 207.63-56.12 209.02 4.6 1.4 37.21-89.94 72.81-204.01 8.52-28.12 16.69-54.92 24.45-80.56 3.2-11.92 9.11-25.59 2.93-40.71-3.23-7.52-11.12-12.65-17.82-14.03-6.72-1.63-12.51-1.39-17.62-1.38-40.97.23-66.33 1.56-66.34 3.86" transform="matrix(.13333 0 0 -.13333 0 594.72)"/><path style="fill:#f57f62;fill-opacity:1;fill-rule:nonzero;stroke:none" d="M2653.94 1984.45s-179.6-1.61-367.24 126.98c0 0 65.21-224.08 359.08-214.18l8.16 87.2m4.36 398.35c-17.85 28.73-48.68 47.52-79.05 48.16-21.05.46-42.21-8.03-54.74-25.68-12.53-17.64-14.83-44.93-2.91-65.18 13.41-22.81 40.89-31.57 63.99-27.42 23.09 4.15 42.8 18.62 61.52 33.16 5.18 4.02 10.47 8.23 13.65 14.32 3.19 6.06 3.77 14.52-.37 20.53" transform="matrix(.13333 0 0 -.13333 0 594.72)"/><path style="fill:#17282f;fill-opacity:1;fill-rule:nonzero;stroke:none" d="M2549.73 2457.45c6.58 0 4.06-43.75 39.65-77.03 35.5-33.37 82.43-31.24 82.4-37.37.45-2.79-10.89-7.89-30.59-7.24-19.35.48-47.17 8.36-68.95 28.72-21.7 20.4-30.01 46.39-30.43 64.42-.58 18.39 4.95 28.93 7.92 28.5m19.52 493.2c-4.62-10.72-44.54-3.13-92.15-6.01-47.69-1.92-86.63-13.48-92.32-3.28-2.52 4.87 4.74 14.77 20.79 24.47 15.91 9.68 40.89 18.29 69.46 19.76 28.56 1.41 54.28-4.65 71.08-12.68 16.94-8.03 25.16-17.16 23.14-22.26m362.93-41.4c-7.63-8.73-34.82 2.42-68.17 4.86-33.27 3.6-62.02-2.47-67.96 7.48-2.57 4.82 2.43 13.73 15.3 21.65 12.68 7.91 33.46 13.75 56.36 11.69 22.89-2.09 42.27-11.57 53.32-21.64 11.24-10.11 14.55-19.76 11.15-24.04" transform="matrix(.13333 0 0 -.13333 0 594.72)"/><path style="fill:#17282f;fill-opacity:1;fill-rule:nonzero;stroke:none" d="M3198.89 2934.37c-9.71 44.84-31.01 88.68-67.1 117-19.78 15.52-43.42 26-61.52 43.45-39.1 37.69-43.63 97.69-65.43 147.43-28.11 64.1-89.05 112.74-157.79 125.95-57.19 10.99-118.19-1.09-173.2 18.06-40.66 14.15-74.61 44.35-116.03 56.07-80.67 22.83-162.14-29.32-226.79-82.71-5.4-58.71 37.92-102.11 79.64-143.77 41.71-41.67 102.39-63.54 161.09-58.07 45.54 4.24 96.66 22.57 133.36-4.74 38.6-28.72 34.86-90.38 68.27-124.98 47.77-49.46 133.72-14.59 197.66-39.85 49.38-19.51 76.78-70.77 106.88-114.51 30.09-43.74 77.13-86.96 129.15-76.38.79 45.87 1.53 92.22-8.19 137.05" transform="matrix(.13333 0 0 -.13333 0 594.72)"/><path style="fill:#17282f;fill-opacity:1;fill-rule:nonzero;stroke:none" d="M2604.71 3236.94c-35.85 13.77-109.01 44.22-125.93 77.86-36.73 73.08-108.1 127.05-185.65 129.63-77.56 2.59-157.02-51.82-180-131.94-93.45 7.54-189.74-43.09-242.35-127.4a280.744 280.744 0 0 1-17.58-32.94c-33.61-48.61-44.85-112.32-28.61-169.23 9.8-34.34 28.22-73.21 8.38-102.9-20.19-30.22-64.24-27.34-99.51-36.12-61.37-15.27-106.01-80.31-98.18-143.07 2.8-22.52 11.42-45.51 4.87-67.24-6.82-22.61-27.98-37.15-44.71-53.82-41.57-41.4-58.95-105.51-43.99-162.25 14.96-56.73 61.7-103.93 118.28-119.46 25.75-7.06 54.22-8.46 75.64-24.4 24.56-18.27 33.17-50.52 49.34-76.51 31.02-49.84 95.33-76.39 152.47-62.93 11.58 2.73 22.51 7.42 32.91 13.07 15.38-25.85 41.43-44.73 88.46-48.88l43.36 615.1c4.71-13.46 14.91-26.11 34.65-32.45 96.6-30.99 128.92 170.87 111.78 227.86 38.45 28.52 77.34 57.45 108.09 95.28 30.75 37.82 64.38 145.39 62.93 195.28 35.35-5.22 191.1 31.41 175.35 37.46" transform="matrix(.13333 0 0 -.13333 0 594.72)"/><path style="fill:#f9a78d;fill-opacity:1;fill-rule:nonzero;stroke:none" d="M2134.65 2661.16c2.39 62.7-72.82 82.79-129.69 56.28-31.22-14.55-56.98-47.07-60.1-113.58-8.3-177.37 171.48-149.12 172.03-144.05.34 3.14 14.97 127.94 17.76 201.35" transform="matrix(.13333 0 0 -.13333 0 594.72)"/><path style="fill:#f57f62;fill-opacity:1;fill-rule:nonzero;stroke:none" d="M2065.86 2529.54c-.76.61-3.2-2.02-8.53-4.16-5.2-2.1-14.03-3.3-23.12.6-18.42 7.76-32.8 38.24-32.17 70.26.31 16.16 4.41 31.37 10.73 43.82 6.02 12.73 14.83 21.4 24.34 22.64 9.49 1.73 15.91-4.23 17.84-9.33 2.15-5.07.86-8.55 1.78-8.91.48-.46 3.95 2.8 2.86 10.19-.56 3.56-2.45 7.84-6.45 11.44-4.09 3.67-10.27 5.72-16.88 5.32-13.72-.31-26.62-12.31-33.56-25.99-7.7-13.71-12.7-30.78-13.03-48.94-.54-35.79 16.19-70.09 41.49-78.7 12.32-3.84 22.91-.57 28.47 3.37 5.71 4.12 6.82 8.04 6.23 8.39" transform="matrix(.13333 0 0 -.13333 0 594.72)"/><path style="fill:#33535f;fill-opacity:1;fill-rule:nonzero;stroke:none" d="M2365.59 3306.12c1.13-1.99-18.26-3.49-37.86-26.42-19.62-22.53-30.28-68.1-23.78-121.06l.56-4.55-4.45-.7c-44.67-7.03-95.88-37.54-122.7-90.27-6.39-13.03-11.22-27.65-12.95-42.3-1.4-14.97-.09-30.88 1.4-47.19 1.45-16.32 3.26-33.21 2.3-50.88-.31-17.39-6.71-37.02-18.6-50.92-24.93-31.5-61.72-44.85-93.48-58.14-32.59-12.75-62.86-26.03-86.8-46.51-48.63-40.11-73.63-95.32-79.06-142.26-5.92-47.54 4.19-86.41 13.66-111.27 9.61-25.16 18.45-37.54 17.39-38.18-.37-.25-2.7 2.71-6.86 8.61-3.89 6.04-9.55 15.11-15.04 27.71-11.05 24.83-22.93 64.53-17.95 114.13 4.53 49.08 29.73 107.43 80.48 150.12 24.96 21.83 57.31 36.26 89.57 49.02 31.76 13.28 66.49 26.66 88.22 54.48 21.94 25.1 16.28 60.91 13.92 93.02-1.39 16.38-2.77 32.87-1.11 49.53 2.13 16.82 7.44 32.07 14.49 46.25 29.49 56.51 84.15 87.68 131.73 94.22l-3.89-5.24c-5.66 55.41 6.84 102.46 29.05 125.76 10.77 11.62 21.97 17.43 29.64 20.1 7.89 2.39 12 3.38 12.12 2.94m-371.58-836.91c14.07 12.72 33.68 24.03 53.14 28.62l-3.81.57c3.62.66 7.27.76 10.91.88 14.14 2.05 27.83.14 38.83-8.32l-.37.06c20.8-9.81 38.37-27.24 46.91-48.71 14.89-37.38 4.16-82.45-22.94-112.18-23.56-25.83-61.47-40.78-94.59-29.58-30.43 10.29-50.99 40.52-57.09 72.05-6.67 34.52 2.93 73.05 29.01 96.61" transform="matrix(.13333 0 0 -.13333 0 594.72)"/><path style="fill:#f2575d;fill-opacity:1;fill-rule:nonzero;stroke:none" d="M1358.81 1664.79S595.344 923.609 601.895 684.32c.109-3.98-1.657-7.789-2.352-11.711-27.871-157.168 86.352-304.449 244.742-324.168l295.265-36.75 630.54 813.359-170.69 454.38-240.59 85.36" transform="matrix(.13333 0 0 -.13333 0 594.72)"/><path style="fill:#f2575d;fill-opacity:1;fill-rule:nonzero;stroke:none" d="M1094.92 1299.82s123.15 208.44 263.89 364.97c133.16 148.11 310.49 190.34 349.79 192.19 146.02 6.9 761.59-34.64 1156.5-50.38 146.7-5.85 291.6-91.07 387.47-202.26 214.76-249.06 591.19-692.82 666.87-829.52 107.17-193.621 31.93-634.41-43.27-693.238-75.19-58.82-2382.61 41.359-2382.61 41.359L1094.92 1299.82" transform="matrix(.13333 0 0 -.13333 0 594.72)"/><path style="fill:#17282f;fill-opacity:1;fill-rule:nonzero;stroke:none" d="M3689.6 774.73c-.02-.179-1.69-.242-4.85-.179-3.75.148-8.29.32-13.75.519-3.06.149-6.36.321-9.92.5-3.62.059-7.57-.179-11.8-.25-8.46-.34-18.11-.05-28.69-1.5-5.31-.531-10.86-1.101-16.62-1.679-5.77-.641-11.68-1.993-17.85-3.012-12.4-1.77-25.27-5.469-38.89-8.918-26.93-8.051-55.84-19.332-84.39-34.813-28.34-15.878-53.32-34.296-74.51-52.769-10.19-9.68-20.19-18.59-28.32-28.117-4.14-4.68-8.45-8.953-12.07-13.492-3.57-4.559-7-8.95-10.3-13.161-6.87-8.168-11.77-16.488-16.58-23.461-2.32-3.527-4.63-6.738-6.51-9.839a3714.68 3714.68 0 0 1-4.87-8.649c-2.75-4.73-5.03-8.648-6.91-11.898-1.63-2.703-2.57-4.082-2.73-4-.16.066.46 1.609 1.79 4.468 1.66 3.379 3.66 7.481 6.07 12.411 1.39 2.75 2.89 5.718 4.51 8.918 1.76 3.203 3.96 6.511 6.19 10.152 4.6 7.168 9.35 15.711 16.09 24.109 3.25 4.309 6.63 8.821 10.15 13.489 3.57 4.66 7.84 9.05 11.97 13.839 8.09 9.77 18.08 18.903 28.32 28.801 21.26 18.903 46.49 37.692 75.2 53.762 28.91 15.68 58.26 26.98 85.59 34.871 13.83 3.367 26.89 6.938 39.46 8.559 6.26.929 12.25 2.199 18.1 2.738 5.83.473 11.44.93 16.82 1.371 7.95.898 15.37.832 22.15.762 2.36-.024 4.64-.043 6.84-.032 4.26-.058 8.23.032 11.88-.179 3.57-.34 6.89-.66 9.95-.961 5.46-.59 9.99-1.078 13.74-1.488 3.13-.403 4.76-.692 4.74-.872m-2038.92 31.352c-.18-.023-.8 2.379-1.83 6.977-1.07 5.113-2.48 11.8-4.23 20.14-3.93 17.43-10.14 42.531-19.08 73.211-17.98 61.301-47.43 144.68-85.14 234.62-37.57 90.05-76.22 169.56-106.33 225.94-7.39 14.17-14.37 26.83-20.66 37.85-6.18 11.09-11.49 20.66-16.15 28.29-4.3 7.36-7.75 13.27-10.38 17.78-2.32 4.1-3.47 6.3-3.32 6.4.15.1 1.59-1.92 4.21-5.84 2.84-4.38 6.57-10.13 11.22-17.29 4.94-7.48 10.51-16.91 16.94-27.88a972.425 972.425 0 0 0 21.38-37.56c31-56.04 70.25-135.46 107.9-225.68 37.77-90.11 66.74-173.88 83.87-235.618 8.52-30.891 14.2-56.211 17.53-73.813a8780.73 8780.73 0 0 1 3.28-20.379c.69-4.66.96-7.121.79-7.148m1524 644.978c.09 0 .15-.85.19-2.5 0-1.97.01-4.38.03-7.35-.1-6.87-.23-16.3-.4-28.23-.39-24.51-1.5-59.97-3.36-103.77-3.67-87.59-11.26-208.52-24.64-341.64-13.48-133.16-30.2-253.179-44.09-339.742-6.93-43.289-12.92-78.246-17.43-102.348-2.22-11.718-3.97-20.98-5.25-27.73-.61-2.91-1.1-5.27-1.5-7.191-.36-1.618-.59-2.438-.68-2.418-.09.019-.04.871.16 2.507.26 1.942.58 4.34.98 7.282 1.05 6.789 2.48 16.109 4.29 27.89 3.8 24.66 9.17 59.59 15.79 102.571 12.95 86.648 29.08 206.648 42.55 339.699 13.37 133.01 21.53 253.8 26.14 341.3 2.1 43.44 3.81 78.74 5.02 103.66.58 11.91 1.03 21.33 1.37 28.19.19 2.96.35 5.37.48 7.33.14 1.65.26 2.49.35 2.49" transform="matrix(.13333 0 0 -.13333 0 594.72)"/><path style="fill:#f2575d;fill-opacity:1;fill-rule:nonzero;stroke:none" d="M2749.55 1879.83c-8.07 5.69-18.36 6.94-28.18 8.01-228.79 25.08-457.58 50.15-686.36 75.22-23.46 2.57-49.91 4.28-67.78-11.12-22.68-19.53-19.17-55.66-8.93-83.78 10.25-28.12 25.54-56.84 20.01-86.26l736.56-46.18c-4.58 26.57 16.55 49.63 32.14 71.63 15.59 21.99 24.58 56.95 2.54 72.48" transform="matrix(.13333 0 0 -.13333 0 594.72)"/><path style="fill:#17282f;fill-opacity:1;fill-rule:nonzero;stroke:none" d="M2782.43 1749.9c.04-.17-2.74-.9-8.08-2.13-5.8-1.27-13.59-2.98-23.38-5.12-10.16-2.26-22.62-4.81-37.23-7.08-14.58-2.36-31.12-5.53-49.61-7.59-9.24-1.16-18.91-2.38-28.97-3.65-10.08-1.23-20.63-1.9-31.52-2.93-21.77-2.25-45.14-3.1-69.71-4.31-49.18-1.41-103.34-.66-159.97 3.86-56.61 4.9-110.16 13.12-158.43 22.65-24.04 5.25-46.95 9.95-68.05 15.78-10.57 2.81-20.87 5.22-30.61 8.09-9.71 2.92-19.04 5.72-27.96 8.4-17.9 5.08-33.69 10.95-47.68 15.68-14.02 4.66-25.9 9.23-35.53 13.14-9.3 3.73-16.7 6.7-22.22 8.92-5.06 2.09-7.68 3.27-7.61 3.43.06.17 2.82-.68 7.99-2.46 5.6-1.98 13.11-4.64 22.54-7.99 9.74-3.61 21.69-7.9 35.77-12.28 14.05-4.46 29.88-10.07 47.8-14.92 8.92-2.56 18.26-5.25 27.98-8.04 9.74-2.77 20.02-5.08 30.58-7.79 21.09-5.63 43.95-10.15 67.94-15.26 48.16-9.24 101.52-17.27 157.93-22.16 56.41-4.5 110.36-5.4 159.38-4.25 24.49 1.07 47.79 1.75 69.51 3.82 10.86.92 21.39 1.5 31.45 2.62 10.05 1.15 19.7 2.25 28.93 3.31 18.47 1.81 35.01 4.72 49.6 6.8 14.62 2 27.12 4.25 37.31 6.2 9.86 1.74 17.71 3.13 23.56 4.16 5.4.89 8.25 1.28 8.29 1.1" transform="matrix(.13333 0 0 -.13333 0 594.72)"/><path style="fill:#cc4341;fill-opacity:1;fill-rule:nonzero;stroke:none" d="M820.152 772.109c37.692 127.629 152.746 228.941 284.118 250.181 20.97 3.39 42.19 5.07 63.35 5.07 6.6 0 13.18-.16 19.75-.49l21.5-63.46c-9.26.86-18.58 1.32-27.95 1.32-9.77 0-19.6-.5-29.5-1.558-93.8-10.07-174.162-55.75-239.24-124.051-24.957-26.199-57.672-55.66-92.028-67.012M1452.74 888.75l-32.32 7.352c-24.37 16.519-54.88 22.558-82.27 33.308-42.25 16.59-85.19 29.879-129.28 34l-21.5 63.46c104.49-5.21 205.3-51.749 265.37-138.12m967.33 747.06c-12.2 0-24.47.43-36.78 1.32-120.95 8.72-238.77 62.67-332.81 140.25l42.21-2.65c7.77-2.33 15.83-4.75 24.18-7.26 9.74-2.87 20.04-5.28 30.61-8.09 21.1-5.83 44.01-10.53 68.05-15.78 48.27-9.53 101.82-17.75 158.43-22.65 39.96-3.19 78.69-4.5 115.31-4.5 15.27 0 30.18.22 44.66.64 24.57 1.21 47.94 2.06 69.71 4.31 10.89 1.03 21.44 1.7 31.52 2.93 10.06 1.27 19.73 2.49 28.97 3.65 18.49 2.06 35.03 5.23 49.61 7.59.35.05.69.11 1.02.16l.11-.01c-.01.01-.01.02-.01.03 12.6 1.98 23.58 4.17 32.83 6.18-98.5-65.93-210.39-106.12-327.62-106.12m137.01 87.05c41.03 2.15 82.73 5.82 125.06 10.97-5.93-.81-12.08-1.57-18.47-2.19-9.23-1.06-18.88-2.16-28.93-3.31-10.06-1.12-20.59-1.7-31.45-2.62-14.72-1.4-30.16-2.17-46.21-2.85" transform="matrix(.13333 0 0 -.13333 0 594.72)"/><path style="fill:#cc4341;fill-opacity:1;fill-rule:nonzero;stroke:none" d="m2714.87 1735.72-.11.01c.04 0 .07.01.1.02 0-.01 0-.02.01-.03m-622.18 39.01-42.21 2.65a667.05 667.05 0 0 0-21.27 18.32c3.81-1.37 7.82-2.75 12.02-4.15 13.99-4.73 29.78-10.6 47.68-15.68 1.25-.38 2.51-.76 3.78-1.14" transform="matrix(.13333 0 0 -.13333 0 594.72)"/><path style="fill:#0f191d;fill-opacity:1;fill-rule:nonzero;stroke:none" d="M2489.27 1716.45c-36.62 0-75.35 1.31-115.31 4.5-56.61 4.9-110.16 13.12-158.43 22.65-24.04 5.25-46.95 9.95-68.05 15.78-10.57 2.81-20.87 5.22-30.61 8.09-8.35 2.51-16.41 4.93-24.18 7.26-1.27.38-2.53.76-3.78 1.14-17.9 5.08-33.69 10.95-47.68 15.68-4.2 1.4-8.21 2.78-12.02 4.15-.8.72-1.6 1.44-2.4 2.17 136.93-52.57 285.85-77.26 445.47-77.26 27.94 0 56.22.76 84.8 2.25 16.05.68 31.49 1.45 46.21 2.85 10.86.92 21.39 1.5 31.45 2.62 10.05 1.15 19.7 2.25 28.93 3.31 6.39.62 12.54 1.38 18.47 2.19 22.29 2.71 44.78 5.84 67.42 9.36-.62-.42-1.24-.84-1.87-1.26-9.25-2.01-20.23-4.2-32.83-6.18-.03-.01-.06-.02-.1-.02-.33-.05-.67-.11-1.02-.16-14.58-2.36-31.12-5.53-49.61-7.59-9.24-1.16-18.91-2.38-28.97-3.65-10.08-1.23-20.63-1.9-31.52-2.93-21.77-2.25-45.14-3.1-69.71-4.31-14.48-.42-29.39-.64-44.66-.64" transform="matrix(.13333 0 0 -.13333 0 594.72)"/><path style="fill:#cc4341;fill-opacity:1;fill-rule:nonzero;stroke:none" d="M3300.07 560.371c15.8 174 169.28 281.899 327.75 300.699 8.31.981 16.84 1.68 25.32 1.68 17.28 0 34.33-2.891 48.73-12.051 21.45-13.648 32.54-45.867 16.27-65.41-10.33-12.398-26.42-15.398-43.19-15.398-8.67 0-17.53.8-25.85 1.519-8.63.75-17.23 1.11-25.79 1.11-7.73 0-15.42-.29-23.07-.879 1.25.187 2.49.359 3.73.5 5.76.578 11.31 1.148 16.62 1.679 10.58 1.45 20.23 1.16 28.69 1.5 3.74.059 7.26.258 10.53.258.43 0 .85 0 1.27-.008 3.56-.179 6.86-.351 9.92-.5 5.46-.199 10-.371 13.75-.519.83-.012 1.55-.02 2.17-.02 1.75 0 2.66.059 2.68.199.02.18-1.61.469-4.74.872-3.75.41-8.28.898-13.74 1.488-3.06.301-6.38.621-9.95.961-3.65.211-7.62.121-11.88.179h-1.55c-1.71 0-3.48.008-5.29.032-1.8.019-3.64.039-5.53.039-5.23 0-10.78-.141-16.62-.801-5.38-.441-10.99-.898-16.82-1.371-5.85-.539-11.84-1.809-18.1-2.738-12.57-1.621-25.63-5.192-39.46-8.559-27.33-7.891-56.68-19.191-85.59-34.871-28.71-16.07-53.94-34.859-75.2-53.762-10.24-9.898-20.23-19.031-28.32-28.801-4.13-4.789-8.4-9.179-11.97-13.839-3.52-4.668-6.9-9.18-10.15-13.489-6.74-8.398-11.49-16.941-16.09-24.109-2.23-3.641-4.43-6.949-6.19-10.152-1.62-3.2-3.12-6.168-4.51-8.918-2.41-4.93-4.41-9.032-6.07-12.411-.98-2.109-1.58-3.5-1.76-4.109" transform="matrix(.13333 0 0 -.13333 0 594.72)"/><path style="fill:#0f191d;fill-opacity:1;fill-rule:nonzero;stroke:none" d="m3300.04 560.012.03.359c.18.609.78 2 1.76 4.109 1.66 3.379 3.66 7.481 6.07 12.411 1.39 2.75 2.89 5.718 4.51 8.918 1.76 3.203 3.96 6.511 6.19 10.152 4.6 7.168 9.35 15.711 16.09 24.109 3.25 4.309 6.63 8.821 10.15 13.489 3.57 4.66 7.84 9.05 11.97 13.839 8.09 9.77 18.08 18.903 28.32 28.801 21.26 18.903 46.49 37.692 75.2 53.762 28.91 15.68 58.26 26.98 85.59 34.871 13.83 3.367 26.89 6.938 39.46 8.559 6.26.929 12.25 2.199 18.1 2.738 5.83.473 11.44.93 16.82 1.371 5.84.66 11.39.801 16.62.801 1.89 0 3.73-.02 5.53-.039 1.81-.024 3.58-.032 5.29-.032h1.55c4.26-.058 8.23.032 11.88-.179 3.57-.34 6.89-.66 9.95-.961 5.46-.59 9.99-1.078 13.74-1.488 3.13-.403 4.76-.692 4.74-.872-.02-.14-.93-.199-2.68-.199-.62 0-1.34.008-2.17.02-3.75.148-8.29.32-13.75.519-3.06.149-6.36.321-9.92.5-.42.008-.84.008-1.27.008-3.27 0-6.79-.199-10.53-.258-8.46-.34-18.11-.05-28.69-1.5-5.31-.531-10.86-1.101-16.62-1.679-1.24-.141-2.48-.313-3.73-.5-126.23-9.629-241.03-97.102-300.2-211.629" transform="matrix(.13333 0 0 -.13333 0 594.72)"/><path style="fill:#33535f;fill-opacity:1;fill-rule:nonzero;stroke:none" d="m662.59 18.55 1300.63 6.552S1954.63 0 2008.54 0l430 3.012s31.75-3.012 32.31 22.09c0 0 1008.29-16.993 1257.33-23.93 18.66-.524 51.63 10.77 36.08 34.43l-86.89 104.109L2238.79 279.43 1218.31 172.25 868.379 298.629h-11.574a29.726 29.726 0 0 1-24.153-12.379L652.957 36.36c-5.062-7.66.457-17.86 9.633-17.81" transform="matrix(.13333 0 0 -.13333 0 594.72)"/><path style="fill:#263f48;fill-opacity:1;fill-rule:nonzero;stroke:none" d="M3529.52 30.32 1212.54 48.27l413.11 158.812 679.65-27.023 679.3 19.031 544.92-168.77" transform="matrix(.13333 0 0 -.13333 0 594.72)"/><path style="fill:#fff;fill-opacity:1;fill-rule:nonzero;stroke:none" d="m2225.85 94 12.94 285.109s2.58 156.809-186.27 209.082c-188.86 52.27-424.28-14.25-644.19-26.132-219.9-11.879-217.31 4.75-217.31 4.75l-178.51-275.61 701.1-102.16s406.17-23.758 413.93-26.141c7.76-2.367 98.31-68.898 98.31-68.898" transform="matrix(.13333 0 0 -.13333 0 594.72)"/><path style="fill:#fff;fill-opacity:1;fill-rule:nonzero;stroke:none" d="m2223.58 83.879 15.21 267.91s-2.59 156.813 186.27 209.082c188.86 52.27 424.28-14.262 644.18-26.141 153.84-8.308 201.54-6.91 216.32-5.332 4.31.473 8.5-1.488 10.71-4.91l168.8-260.609-701.1-102.168s-406.17-23.762-413.94-26.133c-7.76-2.379-126.45-51.7-126.45-51.7" transform="matrix(.13333 0 0 -.13333 0 594.72)"/><path style="fill:#dadbd8;fill-opacity:1;fill-rule:nonzero;stroke:none" d="m707.234 39.352 305.276 251.847s632.29 106.922 847.02 68.903c214.72-38.012 336.82-111.672 366.32-268.48l-205.92-52.27s-119.01 66.527-274.24 68.91c-155.22 2.367-543.28-68.91-543.28-68.91H707.234m1737.116 0L2227.04 94s15.49 249.172 368.52 290.75c0 0 99.74 32.379 454.17-34.148 354.43-66.532 390.65-64.153 390.65-64.153L3735.3 25.102s-175.92-14.262-320.79 14.25c-144.88 28.507-398.41 125.929-672.64 97.418-274.23-28.508-297.52-97.418-297.52-97.418M1012.51 291.199l172.75 266.723-306.475-244.563-193.57-274.007h22.019l305.276 251.847" transform="matrix(.13333 0 0 -.13333 0 594.72)"/><path style="fill:#dadbd8;fill-opacity:1;fill-rule:nonzero;stroke:none" d="m3439.19 286.449-140.75 236.59s280.43-243.859 282.91-250.699c2.48-6.84 152.77-247.238 152.77-247.238l-294.93 261.347" transform="matrix(.13333 0 0 -.13333 0 594.72)"/><path style="fill:#17282f;fill-opacity:1;fill-rule:nonzero;stroke:none" d="M2008.54 39.352h434.63L2225.85 94l-11.39-2.379M2225.85 94c-1.44.059.03 62.27 3.28 138.941 3.25 76.688 7.05 138.789 8.49 138.731 1.43-.063-.03-62.262-3.28-138.953-3.25-76.668-7.05-138.778-8.49-138.719m-908.74 241.23c.03-.16-2.01-.609-5.94-1.339-4.42-.75-10.14-1.731-17.26-2.95-15.63-2.453-37.35-5.859-64.16-10.062-55.09-8.188-130.98-19.457-216.87-32.231l1.2.512a257461.18 257461.18 0 0 0-41.658-32.09c-78.863-60.308-150.231-114.89-202.438-154.808-25.711-19.352-46.675-35.121-61.711-46.442-7.023-5.148-12.656-9.28-16.937-12.422-3.91-2.789-6.016-4.187-6.125-4.046-.109.148 1.781 1.82 5.484 4.879 4.133 3.34 9.563 7.718 16.34 13.199 14.793 11.629 35.414 27.851 60.703 47.75 51.969 40.23 123.008 95.242 201.508 156.019 14.281 10.973 28.317 21.762 41.694 32.043l.54.418.66.09c85.99 12.082 161.97 22.762 217.12 30.512 26.91 3.558 48.7 6.437 64.39 8.519 7.17.848 12.93 1.528 17.38 2.059 3.97.422 6.06.558 6.08.39m880.2-91.64c-.07-.051-.73.648-1.94 2.058-1.38 1.653-3.11 3.743-5.27 6.332-4.61 5.571-11.61 13.629-21.28 23.372-19.32 19.378-50.04 45.32-93.63 67.949-43.28 23.078-99.3 41.808-163.33 52.289-64.03 10.769-135.66 13.64-210.64 13.992-150.19.867-285.73-13.703-382.85-28.973-48.6-7.589-87.7-15.121-114.69-20.48-13.19-2.688-23.58-4.797-31.06-6.32l-8.1-1.539c-1.83-.321-2.78-.442-2.8-.348-.02.078.89.379 2.68.867 2.09.531 4.72 1.199 7.99 2.043 7.05 1.699 17.42 4.309 30.87 7.277 26.88 5.981 65.92 14.071 114.53 22.129 97.11 16.231 232.93 31.422 383.45 30.551 75.12-.348 147-3.367 211.42-14.461 64.39-10.808 120.84-30.078 164.25-53.769 43.75-23.25 74.37-49.86 93.36-69.789 9.5-10.02 16.29-18.329 20.65-24.129 2-2.743 3.6-4.93 4.88-6.672 1.07-1.52 1.58-2.328 1.51-2.379" transform="matrix(.13333 0 0 -.13333 0 594.72)"/><path style="fill:#17282f;fill-opacity:1;fill-rule:nonzero;stroke:none" d="M2197.31 278.391c-.07-.051-.68.589-1.81 1.89-1.3 1.559-2.91 3.481-4.9 5.86-2.07 2.64-4.8 5.769-8.1 9.39-3.2 3.719-7.04 7.86-11.54 12.36-17.61 18.281-45.92 42.418-85.6 64.648-39.53 22.41-90.74 41.672-149.71 53.449-58.96 12.012-125.23 16.602-194.73 17.903-139.15 3.07-265.04-7.121-355.44-18.7-45.23-5.73-81.7-11.453-106.86-15.652-12.26-2.059-21.94-3.687-28.97-4.859-3.07-.469-5.55-.86-7.55-1.16-1.71-.239-2.6-.309-2.61-.219-.02.078.83.328 2.5.738 1.98.441 4.44.992 7.47 1.672 6.57 1.359 16.26 3.5 28.81 5.82 25.07 4.821 61.49 11.11 106.73 17.309 90.41 12.539 216.56 23.34 356.03 20.262 69.63-1.313 136.25-6.063 195.58-18.411 59.34-12.109 110.94-31.921 150.56-54.953 39.8-22.828 67.99-47.617 85.25-66.449 4.42-4.629 8.17-8.91 11.25-12.75 3.19-3.75 5.8-6.988 7.75-9.738 1.83-2.52 3.31-4.563 4.5-6.199.99-1.411 1.46-2.161 1.39-2.211" transform="matrix(.13333 0 0 -.13333 0 594.72)"/><path style="fill:#17282f;fill-opacity:1;fill-rule:nonzero;stroke:none" d="M2197.31 313.191c-.07-.062-.68.579-1.8 1.868-1.29 1.543-2.88 3.453-4.85 5.812-2.06 2.609-4.75 5.711-8.02 9.301a224.15 224.15 0 0 1-11.43 12.25c-17.44 18.109-45.41 42.098-84.66 64.226-39.11 22.262-89.69 41.723-148.09 53.563-58.35 12.16-123.99 16.969-192.83 18.391-137.84 3.289-262.58-6.391-352.17-17.571-44.83-5.531-80.98-11.062-105.92-15.133-12.15-1.976-21.74-3.546-28.72-4.687-3.04-.449-5.5-.82-7.49-1.121-1.69-.219-2.57-.289-2.58-.199-.02.078.82.328 2.48.718 1.97.442 4.4.969 7.4 1.629 6.52 1.332 16.12 3.41 28.57 5.66 24.85 4.692 60.95 10.782 105.79 16.782 89.61 12.14 214.6 22.422 352.76 19.121 68.98-1.422 134.97-6.391 193.69-18.891 58.76-12.18 109.73-32.199 148.94-55.058 39.36-22.731 67.2-47.383 84.3-66.032 4.38-4.59 8.07-8.84 11.13-12.64 3.17-3.711 5.74-6.942 7.67-9.66 1.81-2.489 3.27-4.508 4.46-6.141.98-1.399 1.44-2.137 1.37-2.188" transform="matrix(.13333 0 0 -.13333 0 594.72)"/><path style="fill:#17282f;fill-opacity:1;fill-rule:nonzero;stroke:none" d="M2197.31 347.988c-.07-.058-.67.563-1.76 1.832-1.27 1.512-2.83 3.379-4.75 5.68-4.08 5.059-10.38 12.309-18.91 21.219-17.02 17.769-43.51 42.14-80.78 65.75-37.13 23.562-85.17 46.511-142.3 58.34-56.98 12.671-121.53 13.281-188.91 12.461-134.99-.879-257.1-6.622-345.04-15.899-43.97-4.48-79.45-9.172-103.9-12.832-11.91-1.769-21.32-3.18-28.17-4.199-2.97-.399-5.39-.731-7.34-1-1.66-.192-2.52-.25-2.54-.16-.01.09.81.32 2.44.691 1.94.399 4.32.891 7.26 1.5 6.4 1.207 15.81 3.199 28.03 5.18 24.38 4.269 59.83 9.519 103.83 14.48 87.98 10.231 210.31 16.571 345.39 17.438 67.37.832 132.43.101 189.96-12.969 57.66-12.199 106.16-35.809 143.27-59.93 37.33-24.199 63.62-49.172 80.28-67.468 8.36-9.172 14.43-16.672 18.25-21.954 1.76-2.429 3.19-4.41 4.35-6.007.96-1.371 1.41-2.102 1.34-2.153" transform="matrix(.13333 0 0 -.13333 0 594.72)"/><path style="fill:#17282f;fill-opacity:1;fill-rule:nonzero;stroke:none" d="M2197.31 382.781c-.07-.051-.66.571-1.73 1.84-1.25 1.52-2.78 3.391-4.67 5.688-4.03 5.043-10.08 12.41-18.23 21.57-16.24 18.262-41.02 44.101-77.15 68.82-18.09 12.211-38.93 24.242-62.78 33.742-23.77 9.618-50.39 16.879-78.81 22.129-56.9 10.629-120.87 13.5-187.71 11.77-133.91-3.981-254.71-16.899-342.29-23.68-43.79-3.57-79.26-6.121-103.8-7.512-11.94-.597-21.37-1.078-28.25-1.429-2.98-.09-5.4-.16-7.36-.219-1.66-.02-2.51.012-2.52.102 0 .089.84.23 2.48.429 1.96.199 4.37.438 7.33.739 6.86.582 16.27 1.39 28.18 2.402 24.91 2.199 60.2 5.316 103.62 9.16 87.47 7.707 208.24 21.219 342.48 25.219 67.07 1.73 131.39-1.281 188.73-12.27 28.64-5.429 55.5-12.902 79.56-22.84 24.1-9.812 45.08-22.179 63.23-34.711 36.23-25.371 60.76-51.781 76.6-70.519 7.94-9.41 13.75-17 17.52-22.262 1.73-2.429 3.13-4.41 4.26-6.008.94-1.382 1.38-2.101 1.31-2.16m62.79-129.64c-.07.05.46.839 1.56 2.339 1.31 1.719 2.95 3.891 5 6.579 4.46 5.722 11.4 13.91 21.09 23.75 19.35 19.582 50.46 45.621 94.62 68.062 43.85 22.891 100.63 41.117 165.22 50.738 64.61 9.911 136.54 11.602 211.65 10.571 150.51-1.891 286.02-19.571 382.82-37.578 48.45-8.961 87.34-17.77 114.11-24.231 13.39-3.23 23.71-6.019 30.72-7.851 3.26-.899 5.88-1.622 7.95-2.188 1.79-.531 2.69-.844 2.67-.922-.02-.09-.97.051-2.79.399-2.11.441-4.77 1-8.08 1.691-7.44 1.66-17.79 3.961-30.93 6.891-26.88 5.847-65.84 14.097-114.3 22.578-96.82 17.062-232.07 34.121-382.24 36-74.99 1.043-146.65-.52-210.87-10.11-64.21-9.3-120.57-27-164.26-49.269-44.01-21.828-75.2-47.199-94.86-66.219-9.85-9.562-17-17.5-21.72-22.98-2.2-2.551-3.97-4.61-5.38-6.243-1.23-1.378-1.91-2.07-1.98-2.007" transform="matrix(.13333 0 0 -.13333 0 594.72)"/><path style="fill:#17282f;fill-opacity:1;fill-rule:nonzero;stroke:none" d="M2260.74 287.93c-.07.05.42.789 1.43 2.179 1.23 1.621 2.74 3.629 4.62 6.11 1.99 2.722 4.66 5.91 7.92 9.613 3.16 3.777 6.98 7.988 11.48 12.539 17.61 18.5 46.25 42.77 86.46 64.867 40.05 22.293 92 41.153 151.54 52.172 59.56 11.262 126.25 14.781 195.89 14.809 139.5.519 265.44-12.598 355.6-26.801 45.12-7.027 81.42-13.988 106.4-19.27 12.5-2.546 22.15-4.859 28.7-6.347 3.01-.731 5.46-1.332 7.43-1.813 1.66-.429 2.51-.699 2.49-.777-.02-.09-.9 0-2.6.258-2 .351-4.48.781-7.54 1.301-7 1.308-16.65 3.109-28.88 5.39-25.07 4.668-61.42 11.059-106.54 17.621-90.18 13.239-215.86 25.75-355.05 25.231-69.5-.024-135.85-3.403-195.02-14.321-59.17-10.691-110.73-29-150.66-50.691-40.08-21.488-68.84-45.109-86.78-63.059-4.58-4.41-8.5-8.492-11.76-12.14-3.37-3.571-6.15-6.653-8.27-9.242l-5.01-5.77c-1.15-1.289-1.78-1.918-1.85-1.859" transform="matrix(.13333 0 0 -.13333 0 594.72)"/><path style="fill:#17282f;fill-opacity:1;fill-rule:nonzero;stroke:none" d="M2261.38 322.719c-.07.051.41.793 1.42 2.172 1.21 1.609 2.71 3.589 4.57 6.05 1.98 2.688 4.61 5.868 7.84 9.52 3.14 3.738 6.9 7.93 11.36 12.437 17.44 18.332 45.73 42.461 85.51 64.461 39.62 22.141 90.94 41.223 149.91 52.309 58.95 11.434 125.02 15.184 194.01 15.344 138.2.75 262.98-11.832 352.35-25.614 44.72-6.82 80.71-13.578 105.47-18.718 12.4-2.469 21.96-4.731 28.46-6.18 2.98-.719 5.4-1.301 7.36-1.77 1.65-.421 2.49-.679 2.47-.769-.01-.09-.89 0-2.58.25-1.98.34-4.44.75-7.47 1.258-6.94 1.269-16.51 3.011-28.62 5.222-24.86 4.528-60.9 10.719-105.62 17.071-89.37 12.828-213.91 24.789-351.8 24.039-68.85-.153-134.56-3.762-193.13-14.84-58.6-10.762-109.54-29.289-149.05-50.832-39.65-21.399-68.05-44.879-85.83-62.66-4.54-4.367-8.4-8.418-11.64-12.039-3.34-3.532-6.09-6.578-8.19-9.16a913.135 913.135 0 0 1-4.96-5.711c-1.15-1.27-1.77-1.899-1.84-1.84" transform="matrix(.13333 0 0 -.13333 0 594.72)"/><path style="fill:#17282f;fill-opacity:1;fill-rule:nonzero;stroke:none" d="M2262.02 382.781s7.26 11.59 25.04 28.52c17.62 17.008 47.15 37.679 87.4 55.097 20.06 8.793 42.65 16.934 67.13 24.743 24.47 7.629 50.81 16.039 79.44 20.918 57.18 10.679 121.26 9.761 187.7 7.691 133.4-4.238 253.13-20.68 339.75-30.859 42.99-5.18 77.93-9.391 102.6-12.36 11.78-1.41 21.1-2.531 27.9-3.34 2.93-.402 5.31-.722 7.24-.992 1.63-.25 2.46-.418 2.46-.508-.01-.089-.86-.101-2.51-.019-1.95.129-4.35.277-7.29.469-6.83.578-16.18 1.371-28.01 2.371-24.31 2.207-59.44 5.898-102.82 10.726-86.74 9.242-206.45 25.082-339.47 29.313-66.46 2.07-130.08 3.097-186.7-7.219-28.35-4.684-54.46-12.863-79-20.312-24.45-7.598-46.96-15.5-66.96-24-40.11-16.848-69.6-36.809-87.49-53.219-4.63-3.942-8.42-7.781-11.67-11.153-3.37-3.257-6.04-6.187-8.09-8.66-1.96-2.199-3.55-4-4.85-5.449-1.12-1.219-1.73-1.809-1.8-1.758" transform="matrix(.13333 0 0 -.13333 0 594.72)"/><path style="fill:#f2575d;fill-opacity:1;fill-rule:nonzero;stroke:none" d="M2696.44 292.082V122.879l56.04 50.691 54.88-48.031 3.2 164.742s-90.18 4.879-114.12 1.801" transform="matrix(.13333 0 0 -.13333 0 594.72)"/><path style="fill:#17282f;fill-opacity:1;fill-rule:nonzero;stroke:none" d="M3330.66 193.859c-.02-.078-1 .082-2.87.481-2.15.5-4.87 1.121-8.27 1.898-7.63 1.84-18.25 4.391-31.74 7.633-27.56 6.578-67.55 15.668-117.27 25.438-49.69 9.863-109.14 20.171-175.27 31-33.08 5.441-67.78 11.16-103.76 17.082-35.86 6.539-73.25 10.468-111.83 12.05-38.55 1.45-76.28 1.071-112.55-1.652-36.26-2.59-71.15-7.269-103.46-15.391-64.89-16.168-118.76-45.339-158.56-76.257-20.02-15.379-37-30.77-51.21-44.961-14.35-14.071-26.03-26.871-35.54-37.36-9.15-10.429-16.35-18.629-21.51-24.52-2.31-2.62-4.16-4.71-5.63-6.359-1.29-1.422-1.98-2.12-2.05-2.062-.07.062.49.871 1.64 2.39 1.36 1.743 3.08 3.95 5.23 6.7 4.59 5.89 11.62 14.371 20.8 25.191 9.3 10.711 20.79 23.75 35 38.082 14.08 14.438 30.98 30.117 51.02 45.809 39.8 31.539 94.17 61.429 159.61 77.988 32.7 8.359 67.81 13.16 104.28 15.84 36.48 2.812 74.39 3.223 113.15 1.762 38.7-1.582 76.56-5.602 112.46-12.219 35.95-6.024 70.64-11.844 103.7-17.383 66.11-11.09 125.55-21.777 175.21-32.117 49.68-10.242 89.59-19.891 117.03-27.082 13.74-3.5 24.33-6.539 31.51-8.578 3.35-.992 6.03-1.782 8.15-2.403 1.83-.57 2.75-.91 2.73-1M2151.65 78.172c-.07-.05-.92.777-2.51 2.476-1.74 1.903-4.04 4.41-6.94 7.582-3.08 3.31-6.65 7.61-11.27 12.329a37168.11 37168.11 0 0 0-16.2 16.011c-24.74 23.641-64.12 54.61-118.72 82.461-54.61 27.571-124.6 51.11-204.84 62.231-80.22 11.398-169.99 9.398-262.79-1.891-92.92-11.512-180.33-30.031-259.85-46.441-79.51-16.578-151.38-30.66-212.25-39.391-60.858-8.769-110.546-12.598-144.909-13.648-17.183-.493-30.527-.661-39.574-.422-4.305.082-7.703.152-10.289.191-2.32.078-3.504.16-3.504.25s1.187.192 3.504.289c2.586.082 5.984.18 10.281.321 9.039.089 22.356.601 39.496 1.402 34.274 1.66 83.785 6.047 144.455 15.258 60.69 9.191 132.36 23.609 211.81 40.441 79.46 16.68 166.97 35.367 260.2 46.918 93.11 11.332 183.36 13.211 264.09 1.473 80.73-11.461 151.08-35.524 205.84-63.703 54.76-28.457 94.04-60.079 118.45-84.278l15.93-16.41c4.51-4.851 7.97-9.281 10.93-12.7 2.74-3.32 4.91-5.94 6.56-7.94 1.46-1.801 2.17-2.75 2.1-2.81" transform="matrix(.13333 0 0 -.13333 0 594.72)"/><path style="fill:#17282f;fill-opacity:1;fill-rule:nonzero;stroke:none" d="M2151.65 43.05c-.07-.062-.92.782-2.51 2.47-1.74 1.91-4.04 4.421-6.94 7.59-3.08 3.3-6.65 7.609-11.27 12.331-4.73 4.668-10.14 10.02-16.2 16.008-24.74 23.641-64.12 54.602-118.72 82.461-54.61 27.57-124.6 51.102-204.84 62.219-80.22 11.402-169.99 9.41-262.79-1.879-92.92-11.52-180.33-30.031-259.85-46.449-79.51-16.582-151.38-30.653-212.25-39.391-60.858-8.762-110.546-12.601-144.909-13.64-17.183-.489-30.527-.668-39.574-.43-4.305.09-7.703.152-10.289.199-2.32.082-3.504.16-3.504.25s1.187.18 3.504.281c2.586.078 5.984.192 10.281.321 9.039.097 22.356.609 39.496 1.398 34.274 1.672 83.785 6.063 144.455 15.262 60.69 9.187 132.36 23.609 211.81 40.449 79.46 16.672 166.97 35.359 260.2 46.922 93.11 11.328 183.36 13.199 264.09 1.457 80.73-11.449 151.08-35.52 205.84-63.688 54.76-28.461 94.04-60.082 118.45-84.28l15.93-16.411c4.51-4.852 7.97-9.281 10.93-12.7 2.74-3.32 4.91-5.94 6.56-7.94 1.46-1.801 2.17-2.75 2.1-2.81" transform="matrix(.13333 0 0 -.13333 0 594.72)"/><path style="fill:#17282f;fill-opacity:1;fill-rule:nonzero;stroke:none" d="M2048.84 72.84c-.12-.14-2.04 1.27-5.57 4.07-3.61 2.7-8.49 7.219-15.45 12.2-13.5 10.449-33.99 24.421-60.91 38.749-26.88 14.411-60.61 28.34-99.41 39.36-38.78 11.023-82.66 18.711-129.09 22.09-93.12 6.23-177.58-4.028-238.14-11.848-29.86-4.199-54.23-7.629-71.8-10.102l-19.54-2.687c-4.47-.563-6.84-.774-6.87-.59-.03.168 2.28.727 6.7 1.617 4.96.942 11.39 2.153 19.39 3.66 16.86 3.039 41.29 7.243 71.61 11.75 60.5 8.75 145.22 19.661 239.01 13.391 46.78-3.398 91.01-11.301 130.05-22.672 39.06-11.359 72.95-25.789 99.83-40.719 26.93-14.871 47.24-29.41 60.42-40.41 6.8-5.25 11.49-10.027 14.89-13 3.32-3.058 5-4.73 4.88-4.86" transform="matrix(.13333 0 0 -.13333 0 594.72)"/><path style="fill:#f9a78d;fill-opacity:1;fill-rule:nonzero;stroke:none" d="m1663.82 780.488 353.18 76.34s132.35 26.731 158.01 12.594c25.66-14.141 173.08-132.133 185.75-143.133 12.68-11 153.71-179.848 153.71-179.848s-3.21-53.511-80.61-32.05C2394 525.449 2224.71 673.43 2224.71 673.43l-39.41 31.101s61.74-95.582 60.48-127c-1.25-31.422-40.48-94.113-53.94-102.75-13.46-8.64-81.17 3.25-81.17 3.25s-47.98-51.84-85.68-10.992c0 0-64.31-66.918-116.52-28.117l-27.96 54.887-26.71 20.742s-4.14-37.86-30.54-42.051c-26.39-4.191-316.37 58.418-316.37 58.418l100.22 273.301 56.71-23.731" transform="matrix(.13333 0 0 -.13333 0 594.72)"/><path style="fill:#f57f62;fill-opacity:1;fill-rule:nonzero;stroke:none" d="M2039.29 683.871c.21.258 3.16-1.641 8.16-5.492 5-3.859 12.06-9.668 20.4-17.289 16.55-15.391 38.62-37.621 58.1-66.508 4.69-7.352 8.71-15 11.5-22.852 1.34-4.011 2.69-7.652 3.17-12.062.42-4.188.16-8.148-.27-11.949-1.99-15.149-6.43-28-10.61-38.547-4.26-10.531-8.65-18.672-12.32-23.902-3.67-5.258-6.58-7.461-6.75-7.239-.31.321 2 2.887 5.03 8.321 3.05 5.41 6.85 13.617 10.6 24.117 3.66 10.48 7.66 23.34 9.28 37.769.35 3.59.51 7.293.1 10.84-.35 3.371-1.76 7.281-3.02 10.91-2.7 7.391-6.56 14.672-11.1 21.793-18.95 28.11-40.55 50.797-56.25 66.637-15.92 15.801-26.53 24.832-26.02 25.453m-182.27-31.422c-.08.231 3.67 1.91 10.89 3.52 7.18 1.722 18.02 2.769 31.24 1.269 26.19-2.918 62.33-18.898 87.11-51.738 12.14-16.48 19.34-34.641 24.52-51.23 5.17-16.661 8.1-32.079 10.21-45.02 2.04-12.961 3.16-23.512 3.71-30.809.57-7.3.63-11.359.29-11.402-.84-.098-2.71 15.992-7.62 41.57-2.55 12.75-5.83 27.93-11.16 44.211-5.33 16.219-12.52 33.84-24.13 49.571-11.66 15.648-26.54 27.629-41.21 36.058-14.73 8.461-29.56 13.09-42.22 15.153-25.66 3.867-41.46-2.43-41.63-1.153m209.14 135.153c-.08.347 2.04 1 6.08 1.898 2.02.629 4.54.488 7.48.52 2.98.21 6.26-.399 9.9-1.071 14.7-2.578 32.81-12.84 49.78-27.019 16.97-14.34 30.08-29.598 38.64-41.258 8.62-11.641 12.7-19.672 12.15-20-.67-.422-5.81 6.816-15.04 17.719-9.18 10.918-22.52 25.539-39.09 39.55-16.59 13.848-33.65 24.118-47.28 27.418-13.57 3.7-22.44 1.18-22.62 2.243" transform="matrix(.13333 0 0 -.13333 0 594.72)"/><path style="fill:#f2575d;fill-opacity:1;fill-rule:nonzero;stroke:none" d="m1601.76 841.211-176.66 68.891-325.49-16.711-162.227-218.77-65.098-315.09s596.095 130.91 614.995 132.649c18.91 1.742 49.27 32.41 49.27 32.41l63.64-13.289 81.47 273.051-79.9 56.859" transform="matrix(.13333 0 0 -.13333 0 594.72)"/><path style="fill:#17282f;fill-opacity:1;fill-rule:nonzero;stroke:none" d="M1708.35 798.879c-.04-.078-.86.141-2.41.66-1.84.66-4.1 1.461-6.88 2.441-6.39 2.399-15.15 5.68-26.23 9.84-23.12 8.918-55.85 21.539-96.13 37.078-40.64 15.883-88.83 34.723-142.31 55.622-26.76 10.55-54.84 21.609-83.94 33.082-28.99 11.628-59.14 23.457-91.17 31.347-31.96 8.031-64.36 10.531-95.24 7.321-30.88-3.122-60.13-10.79-86.79-21.059-53.52-20.481-96.648-49.992-130.941-76.371-34.321-26.57-60.301-50.36-78.469-66.508-8.813-7.891-15.781-14.121-20.867-18.684-2.223-1.929-4.032-3.5-5.504-4.769-1.258-1.059-1.934-1.57-1.996-1.5-.063.062.492.699 1.632 1.891 1.379 1.378 3.075 3.07 5.153 5.152 4.926 4.726 11.676 11.207 20.211 19.398 17.758 16.621 43.386 40.848 77.574 67.93 34.148 26.852 77.397 56.961 131.487 77.941 26.94 10.52 56.59 18.411 88.01 21.649 31.39 3.351 64.57.82 96.98-7.34 32.49-7.988 62.83-19.961 91.84-31.668 29.06-11.57 57.11-22.73 83.83-33.363 53.32-21.289 101.38-40.481 141.9-56.66 40.01-16.18 72.53-29.329 95.5-38.61 10.92-4.539 19.56-8.129 25.87-10.75 2.69-1.168 4.89-2.129 6.68-2.91 1.49-.687 2.24-1.078 2.21-1.16" transform="matrix(.13333 0 0 -.13333 0 594.72)"/><path style="fill:#f9a78d;fill-opacity:1;fill-rule:nonzero;stroke:none" d="M3159.39 319.59c-7.09 11.898-9.88 28.859 7.34 49.109l47.59 21.27s11.14 29.371 23.29 40.511c12.16 11.141 30.38 25.309 30.38 25.309s26.33 36.461 51.65 51.652c25.32 15.188 87.09 31.387 108.36 49.618 21.26 18.23 88.1 76.961 134.68 54.679 46.58-22.269 80-100.597 116.46-117.129 36.45-16.539 49.62-71.218 63.79-93.5 14.18-22.281 29.37-38.48 31.4-55.699 2.02-17.211 41.52-51.64 48.61-98.23 7.09-46.578 3.03-62.782-18.23-80-21.27-17.211-62.79-51.641-104.31-57.719-23.29-3.41-55.2-5.539-78.72-6.762-19.1-.988-36.86 9.699-45 27.012l-2.86 6.078s-106.33-53.668-156.96-46.578c-50.64 7.09-30.38 50.629-30.38 50.629s-51.65-49.621-84.06-40.512c-32.4 9.121-49.62 8.113-52.65 36.461-3.04 28.352 21.19 60.859 21.19 60.859s-48.54-1.109-52.59 31.293c-4.05 32.411 13.17 66.84 13.17 66.84l-39.01 4.41c-13.53 1.539-26.17 8.7-33.14 20.399" transform="matrix(.13333 0 0 -.13333 0 594.72)"/><path style="fill:#f57f62;fill-opacity:1;fill-rule:nonzero;stroke:none" d="M3431.48 536.66c.33-.148-1.4-4.219-4.83-11.512-1.65-3.668-3.81-8.097-6.91-12.91-3.02-4.847-6.14-10.617-10.56-16.308-8.17-11.879-19.36-24.942-32.45-38.711-13.24-13.629-28.46-27.91-44.59-42.61-16.12-14.718-31.25-28.898-44.4-42.379-12.94-13.648-24.06-26.46-32.17-38.14-16.52-23.149-22.97-39.801-24.03-39.309-.33.141 1.25 4.27 4.42 11.668 1.52 3.742 3.54 8.231 6.5 13.133 2.86 4.949 5.81 10.809 10.09 16.609 7.84 12.118 18.83 25.36 31.71 39.348 13.09 13.789 28.23 28.18 44.36 42.91 16.14 14.711 31.36 28.789 44.67 42.121 13.15 13.461 24.48 26.09 32.92 37.532 17.13 22.718 24.25 39.066 25.27 38.558m131.87-43.941c.17-.071-.27-1.489-1.26-4.129-.97-2.649-2.52-6.508-4.69-11.399-4.34-9.781-11.07-23.793-20.91-40.261-9.85-16.43-22.78-35.391-39.42-54.61-16.54-19.269-37.24-38.34-60.52-56.031-23.29-17.719-46.44-33.117-67.16-47.48-20.75-14.329-39.05-27.719-53.72-39.821-14.82-11.937-25.6-22.949-33.17-30.429-7.17-7.848-11.25-12.149-11.54-11.911-.27.211 3.27 4.954 10.04 13.274 7.16 7.949 17.65 19.476 32.29 31.879 14.5 12.558 32.7 26.359 53.35 40.937 20.62 14.621 43.64 30.114 66.75 47.684 23.1 17.566 43.52 36.187 60.07 55.058 16.63 18.801 29.73 37.329 39.89 53.379 10.16 16.082 17.33 29.731 22.22 39.2 4.88 9.48 7.39 14.832 7.78 14.66" transform="matrix(.13333 0 0 -.13333 0 594.72)"/><path style="fill:#f57f62;fill-opacity:1;fill-rule:nonzero;stroke:none" d="M3579.7 480.078c.95-1.078-6.74-9.418-17.19-18.617-10.44-9.211-19.68-15.801-20.63-14.731-.95 1.079 6.74 9.418 17.19 18.629 10.44 9.211 19.68 15.801 20.63 14.719m62.97-122.129c.26-.078-.88-4.777-4.03-12.918-3.08-8.172-8.72-19.59-17.4-32.609-17.2-26.223-48.92-56.801-89.11-82.25-39.95-25.652-77.3-46.621-103.42-63.262-13.12-8.219-23.6-15.082-30.79-19.91-7.2-4.82-11.21-7.461-11.44-7.16-.21.269 3.39 3.461 10.26 8.801 6.85 5.359 17.06 12.711 29.97 21.359 25.71 17.488 62.85 39.031 102.59 64.531 39.81 25.231 71.25 54.778 88.91 80 17.98 25.078 23.41 43.891 24.46 43.418m103.49-65.769c.3-.18-1.14-3.168-4.02-8.45-2.85-5.289-7.4-12.718-13.49-21.582-12.07-17.777-30.81-41.078-54.81-63.578a393.274 393.274 0 0 0-35.78-29.441c-11.71-8.109-22.51-15.078-32.13-19.957-4.7-2.641-9.14-4.672-13.04-6.434-3.86-1.828-7.26-3.246-10.12-4.226-5.65-2.071-8.82-3.051-8.95-2.723-.34.852 11.96 5.813 30.31 16.59 9.26 5.223 19.71 12.43 31.1 20.633 11.21 8.488 23.15 18.32 35.06 29.359 23.69 22.219 42.64 44.848 55.37 61.93 12.78 17.051 19.76 28.32 20.5 27.879m-490.1 114.558c.4-1.16-19.39-9.988-44.06-20.457-24.76-10.34-44.74-18.511-45.27-17.582-.87 1.59 18.48 12.039 43.24 22.383 24.71 10.477 45.55 17.219 46.09 15.656" transform="matrix(.13333 0 0 -.13333 0 594.72)"/><path style="fill:#f2575d;fill-opacity:1;fill-rule:nonzero;stroke:none" d="M3284.96 592.441c28.77 0 52.08-.742 52.08-1.66 0-.922-23.31-1.66-52.08-1.66-28.75 0-52.07.738-52.07 1.66 0 .918 23.32 1.66 52.07 1.66" transform="matrix(.13333 0 0 -.13333 0 594.72)"/></svg>