<?xml version="1.0" encoding="UTF-8" standalone="no"?>
<svg
   xmlns:dc="http://purl.org/dc/elements/1.1/"
   xmlns:cc="http://creativecommons.org/ns#"
   xmlns:rdf="http://www.w3.org/1999/02/22-rdf-syntax-ns#"
   xmlns:svg="http://www.w3.org/2000/svg"
   xmlns="http://www.w3.org/2000/svg"
   viewBox="0 0 613.26666 594.71997"
   height="594.71997"
   width="613.26666"
   xml:space="preserve"
   id="svg2"
   version="1.1"><metadata
     id="metadata8"><rdf:RDF><cc:Work
         rdf:about=""><dc:format>image/svg+xml</dc:format><dc:type
           rdf:resource="http://purl.org/dc/dcmitype/StillImage" /></cc:Work></rdf:RDF></metadata><defs
     id="defs6" /><g
     transform="matrix(1.3333333,0,0,-1.3333333,0,594.72)"
     id="g10"><g
       transform="scale(0.1)"
       id="g12"><path
         id="path14"
         style="fill:#dadbd8;fill-opacity:1;fill-rule:nonzero;stroke:none"
         d="m 1347.26,4350.75 -12.72,33.11 -12.98,-33.11 z m 7.15,-18.55 h -40.13 l -6.49,-16.42 h -24.9 l 39.87,92.85 h 24.89 l 38.94,-92.85 h -25.82 l -6.36,16.42" /><path
         id="path16"
         style="fill:#dadbd8;fill-opacity:1;fill-rule:nonzero;stroke:none"
         d="m 275.289,725.02 c -33.133,0 -59.707,13.46 -80.047,37.07 l 27.559,41.019 c 16.726,-17.39 34.773,-25.918 48.222,-25.918 14.766,0 23.95,9.18 23.95,26.571 V 908.09 h -78.735 v 49.531 H 355.34 V 802.449 c 0,-49.211 -30.844,-77.429 -80.051,-77.429" /><path
         id="path18"
         style="fill:#dadbd8;fill-opacity:1;fill-rule:nonzero;stroke:none"
         d="m 1375.95,1604.35 -41.79,62.24 -20.67,-22.97 v -39.27 h -42.02 v 160.98 h 42.02 v -67.51 l 60.4,67.51 h 48.68 l -59.7,-66.6 63.38,-94.38 h -50.3" /><path
         id="path20"
         style="fill:#dadbd8;fill-opacity:1;fill-rule:nonzero;stroke:none"
         d="m 279.293,1681.51 75.793,-100.59 v 100.59 h 40.519 v -167.08 h -38.132 l -75.797,100.11 v -100.11 h -40.758 v 167.08 h 38.375" /><path
         id="path22"
         style="fill:#dadbd8;fill-opacity:1;fill-rule:nonzero;stroke:none"
         d="m 3787.48,2026.81 24.63,-54.17 24.63,54.17 h 26.49 v -92.84 h -21.46 l -0.12,58.81 -21.6,-49.54 h -15.88 l -21.6,49.54 v -58.81 h -21.59 v 92.84 h 26.5" /><path
         id="path24"
         style="fill:#dadbd8;fill-opacity:1;fill-rule:nonzero;stroke:none"
         d="m 3037.37,4428.34 24.63,-54.18 24.64,54.18 h 26.49 v -92.85 h -21.46 l -0.13,58.81 -21.59,-49.53 h -15.89 l -21.59,49.53 v -58.81 h -21.59 v 92.85 h 26.49" /><path
         id="path26"
         style="fill:#dadbd8;fill-opacity:1;fill-rule:nonzero;stroke:none"
         d="m 4527.18,1596.74 v -132.63 h 72.29 v -37.97 h -116.82 v 170.6 h 44.53" /><path
         id="path28"
         style="fill:#dadbd8;fill-opacity:1;fill-rule:nonzero;stroke:none"
         d="m 3867.35,4408.62 v -72.18 h 39.34 v -20.66 h -63.58 v 92.84 h 24.24" /><path
         id="path30"
         style="fill:#dadbd8;fill-opacity:1;fill-rule:nonzero;stroke:none"
         d="m 2137.38,3975.59 v -72.18 h 39.34 v -20.66 h -63.58 v 92.84 h 24.24" /><path
         id="path32"
         style="fill:#dadbd8;fill-opacity:1;fill-rule:nonzero;stroke:none"
         d="m 4375.51,3094.53 c -20.8,0 -34.52,-7.57 -34.52,-22.7 0,-54.85 174.49,-23.64 174.49,-142.81 0,-67.61 -59.58,-102.14 -133.34,-102.14 -55.33,0 -113.02,20.34 -152.74,52.96 l 33.57,67.62 c 34.05,-29.31 85.59,-50.12 120.11,-50.12 25.54,0 41.61,9.46 41.61,26.96 0,56.27 -174.49,22.22 -174.49,139.49 0,61.95 52.49,101.19 132.4,101.19 48.71,0 97.89,-15.13 132.42,-37.35 l -32.64,-68.57 c -34.99,19.86 -79.43,35.47 -106.87,35.47" /><path
         id="path34"
         style="fill:#dadbd8;fill-opacity:1;fill-rule:nonzero;stroke:none"
         d="m 3385.23,1465.71 c -20.8,0 -34.52,-7.57 -34.52,-22.7 0,-54.85 174.49,-23.64 174.49,-142.8 0,-67.63 -59.58,-102.15 -133.35,-102.15 -55.32,0 -113.02,20.34 -152.73,52.97 l 33.57,67.62 c 34.04,-29.32 85.59,-50.13 120.11,-50.13 25.54,0 41.61,9.46 41.61,26.95 0,56.28 -174.49,22.23 -174.49,139.5 0,61.95 52.49,101.2 132.4,101.2 48.71,0 97.89,-15.13 132.41,-37.36 l -32.63,-68.56 c -34.99,19.85 -79.44,35.46 -106.87,35.46" /><path
         id="path36"
         style="fill:#dadbd8;fill-opacity:1;fill-rule:nonzero;stroke:none"
         d="m 2347.98,3488.42 c 0,48.89 -31.92,82.02 -76.76,82.02 h -46.47 V 3407.2 h 50.1 c 42.83,0 73.13,32.73 73.13,81.22 z m 75.56,0.8 c 0,-84.44 -61.81,-141.82 -153.54,-141.82 h -119.19 v 283.24 h 122.02 c 89.7,0 150.71,-57.37 150.71,-141.42" /><path
         id="path38"
         style="fill:#dadbd8;fill-opacity:1;fill-rule:nonzero;stroke:none"
         d="m 3830.05,2583.6 h 32.69 c 18.19,0 28.76,9.34 28.76,26.79 0,16.97 -10.57,26.06 -28.76,26.06 h -32.69 z m 58.5,-83.58 -25.07,47.69 h -33.43 v -47.69 h -44.99 v 172.32 h 77.44 c 45.72,0 71.77,-22.12 71.77,-60.47 0,-26.06 -10.82,-45.23 -30.72,-55.55 l 35.89,-56.3 h -50.89" /><path
         id="path40"
         style="fill:#dadbd8;fill-opacity:1;fill-rule:nonzero;stroke:none"
         d="m 4059.57,1588.78 v -57.97 h -80.63 v -211.15 h -70.25 v 211.15 h -79.86 v 57.97 h 230.74" /><path
         id="path42"
         style="fill:#dadbd8;fill-opacity:1;fill-rule:nonzero;stroke:none"
         d="m 3360.09,2045.86 c 0,13.81 -12.54,22.59 -32.62,22.28 h -43.93 v -46.11 h 43.93 c 20.08,0 32.62,8.77 32.62,23.83 z m -6.9,85.97 c 0,13.17 -9.73,21.02 -25.72,20.7 h -43.93 v -42.66 h 43.93 c 15.99,0 25.72,8.15 25.72,21.96 z m 58.98,10.04 c 0,-22.91 -14.74,-41.42 -37.96,-47.7 27.93,-5.64 45.17,-27.28 45.17,-55.52 0,-37.65 -32.94,-61.18 -84.7,-61.18 h -108.54 v 219.93 h 104.46 c 49.88,0 81.57,-21.65 81.57,-55.53" /><path
         id="path44"
         style="fill:#dadbd8;fill-opacity:1;fill-rule:nonzero;stroke:none"
         d="m 4316.71,4078.3 c 0,13.79 -12.55,22.58 -32.63,22.27 h -43.93 v -46.12 h 43.93 c 20.08,0 32.63,8.78 32.63,23.85 z m -6.91,85.95 c 0,13.18 -9.73,21.02 -25.72,20.71 h -43.93 v -42.67 h 43.93 c 15.99,0 25.72,8.16 25.72,21.96 z m 58.99,10.04 c 0,-22.9 -14.75,-41.41 -37.96,-47.68 27.92,-5.65 45.17,-27.3 45.17,-55.53 0,-37.65 -32.95,-61.18 -84.7,-61.18 h -108.56 v 219.92 h 104.47 c 49.89,0 81.58,-21.65 81.58,-55.53" /><path
         id="path46"
         style="fill:#dadbd8;fill-opacity:1;fill-rule:nonzero;stroke:none"
         d="m 1784.13,2070.77 c -33.88,0 -59.61,-26.67 -59.61,-61.81 0,-35.45 25.73,-62.43 59.61,-62.43 18.2,0 39.22,10.04 54.59,25.73 l 33.56,-36.08 c -23.52,-24.79 -58.66,-40.79 -91.29,-40.79 -66.19,0 -115.45,48.32 -115.45,112.94 0,63.37 50.51,111.06 117.65,111.06 32.63,0 66.82,-14.43 88.78,-37.65 l -33.25,-39.84 c -14.44,17.57 -35.45,28.87 -54.59,28.87" /><path
         id="path48"
         style="fill:#dadbd8;fill-opacity:1;fill-rule:nonzero;stroke:none"
         d="m 4243.01,917.621 c -33.87,0 -59.61,-26.672 -59.61,-61.812 0,-35.438 25.74,-62.43 59.61,-62.43 18.2,0 39.22,10.039 54.59,25.742 l 33.57,-36.09 c -23.53,-24.781 -58.66,-40.781 -91.29,-40.781 -66.2,0 -115.45,48.309 -115.45,112.941 0,63.368 50.51,111.047 117.65,111.047 32.62,0 66.81,-14.429 88.78,-37.636 L 4297.6,888.75 c -14.43,17.57 -35.45,28.871 -54.59,28.871" /><path
         id="path50"
         style="fill:#dadbd8;fill-opacity:1;fill-rule:nonzero;stroke:none"
         d="m 3576.32,3931.46 -45.4,118.22 -46.33,-118.22 z m 25.54,-66.2 h -143.28 l -23.17,-58.63 h -88.9 l 142.33,331.48 h 88.9 l 139.02,-331.48 h -92.2 l -22.7,58.63" /><path
         id="path52"
         style="fill:#dadbd8;fill-opacity:1;fill-rule:nonzero;stroke:none"
         d="m 2845.74,4017.53 v -69.87 h -57.08 v 68.31 l -80.47,150.33 h 57.08 l 51.77,-93.88 50.52,93.88 h 57.08 l -78.9,-148.77" /><path
         id="path54"
         style="fill:#dadbd8;fill-opacity:1;fill-rule:nonzero;stroke:none"
         d="m 1692.32,3658.01 c 28.29,0 47.85,19.21 47.85,50.99 v 142.16 h 63.91 V 3709 c 0,-64.61 -43.31,-105.48 -112.12,-105.48 -69.15,0 -113.51,40.87 -113.51,105.48 v 142.16 h 63.92 V 3709 c 0,-31.43 20.96,-50.99 49.95,-50.99" /><path
         id="path56"
         style="fill:#dadbd8;fill-opacity:1;fill-rule:nonzero;stroke:none"
         d="m 905.398,1500.43 -0.386,-55.62 H 775.469 v -59.44 h 119.64 v -55.63 h -119.64 v -96.4 h -69.727 v 267.09 h 199.656" /><path
         id="path58"
         style="fill:#dadbd8;fill-opacity:1;fill-rule:nonzero;stroke:none"
         d="m 71.3984,2359.45 v -81.34 h 80.4926 v 81.34 h 52.047 v -199.38 h -52.047 v 76.52 H 71.3984 v -76.52 H 19.3477 v 199.38 h 52.0507" /><path
         id="path60"
         style="fill:#dadbd8;fill-opacity:1;fill-rule:nonzero;stroke:none"
         d="m 3749.64,3427.8 v -198.31 h -51.77 v 198.31 h 51.77" /><path
         id="path62"
         style="fill:#dadbd8;fill-opacity:1;fill-rule:nonzero;stroke:none"
         d="m 2036.54,4340.28 c 0,-38.46 30.02,-68.15 65.11,-68.15 35.43,0 63.77,29.69 63.77,68.15 0,38.45 -28.34,67.47 -63.77,67.47 -35.42,0 -65.11,-29.02 -65.11,-67.47 z m 192.3,0.33 c 0,-69.16 -54.65,-121.11 -127.86,-121.11 -73.21,0 -127.87,51.95 -127.87,121.11 0,68.83 54.66,119.77 127.87,119.77 73.21,0 127.86,-51.28 127.86,-119.77" /><path
         id="path64"
         style="fill:#dadbd8;fill-opacity:1;fill-rule:nonzero;stroke:none"
         d="m 4287.62,2299.43 59.04,-171.05 59.38,171.05 h 63.42 l -92.43,-236.5 h -64.1 l -91.77,236.5 h 66.46" /><path
         id="path66"
         style="fill:#dadbd8;fill-opacity:1;fill-rule:nonzero;stroke:none"
         d="m 3112.35,3478.01 32.61,-94.47 32.79,94.47 h 35.02 l -51.05,-130.61 h -35.4 l -50.67,130.61 h 36.7" /><path
         id="path68"
         style="fill:#dadbd8;fill-opacity:1;fill-rule:nonzero;stroke:none"
         d="m 183.355,3995.25 c 0,17.29 -10.769,26.55 -29.312,26.55 h -29.066 v -53.86 h 29.066 c 18.543,0 29.312,9.52 29.312,27.31 z m 43.598,1.5 c 0,-41.34 -25.808,-65.39 -70.656,-65.39 h -31.32 v -48.61 H 79.1289 v 175.64 h 77.1681 c 44.848,0 70.656,-22.55 70.656,-61.64" /><path
         id="path70"
         style="fill:#dadbd8;fill-opacity:1;fill-rule:nonzero;stroke:none"
         d="m 4385.82,3685.31 36.35,-79.95 36.36,79.95 h 39.09 v -137.02 h -31.66 l -0.19,86.79 -31.87,-73.11 h -23.45 l -31.86,73.11 v -86.79 h -31.87 v 137.02 h 39.1" /><path
         id="path72"
         style="fill:#dadbd8;fill-opacity:1;fill-rule:nonzero;stroke:none"
         d="m 518.359,3161.2 v -69.04 H 343.398 v -61.94 H 501.34 v -68.57 l -157.942,-0.47 v -62.42 h 179.688 v -69.04 H 256.863 v 331.48 h 261.496" /><path
         id="path74"
         style="fill:#dadbd8;fill-opacity:1;fill-rule:nonzero;stroke:none"
         d="M 954.621,4279.14 V 4222.4 L 779.656,4017.18 h 177.801 v -69.52 H 663.805 v 56.27 l 174.961,205.7 H 669.953 v 69.51 h 284.668" /><path
         id="path76"
         style="fill:#17282f;fill-opacity:1;fill-rule:nonzero;stroke:none"
         d="m 4568.12,254.082 c 0,-1.441 -1022.69,-2.602 -2283.95,-2.602 C 1022.47,251.48 0,252.641 0,254.082 c 0,1.438 1022.47,2.598 2284.17,2.598 1261.26,0 2283.95,-1.16 2283.95,-2.598" /><path
         id="path78"
         style="fill:#f2575d;fill-opacity:1;fill-rule:nonzero;stroke:none"
         d="m 1649.92,3962.57 c -3.12,10.3 -14.04,16.07 -24.29,12.84 L 1537.98,3947.79 336.555,3629.38 764.387,1962.12 913.285,1883.77 2136.1,2223.68 c 19.92,5.54 31.39,26.38 25.41,46.17 l -511.59,1692.72" /><path
         id="path80"
         style="fill:#f3f2f1;fill-opacity:1;fill-rule:nonzero;stroke:none"
         d="m 1514.04,4028.61 119.67,-70.18 512.45,-1707.62 -1234.89,-352.54 -140.227,76.11 742.997,2054.23" /><path
         id="path82"
         style="fill:#f2575d;fill-opacity:1;fill-rule:nonzero;stroke:none"
         d="M 1978.3,2321.83 764.387,1962.12 273.605,3618.37 c -6.453,21.77 5.754,44.69 27.415,51.49 l 1200.84,376.98 c 12.41,3.89 25.59,-3.2 29.16,-15.71 l 474.49,-1659.75 c 6.05,-21.19 -6.08,-43.29 -27.21,-49.55" /><path
         id="path84"
         style="fill:#17282f;fill-opacity:1;fill-rule:nonzero;stroke:none"
         d="m 919.734,2032.2 c -1.379,-0.42 -114.336,370.43 -252.265,828.2 -137.981,457.94 -248.684,829.38 -247.305,829.8 1.375,0.41 114.309,-370.36 252.289,-828.29 137.93,-457.78 248.656,-829.3 247.281,-829.71" /><path
         id="path86"
         style="fill:#17282f;fill-opacity:1;fill-rule:nonzero;stroke:none"
         d="m 876.926,1989.39 c -1.379,-0.42 -114.336,370.43 -252.27,828.21 -137.976,457.93 -248.679,829.37 -247.301,829.79 1.375,0.41 114.309,-370.36 252.29,-828.29 137.929,-457.78 248.656,-829.3 247.281,-829.71" /><path
         id="path88"
         style="fill:#ffffff;fill-opacity:1;fill-rule:nonzero;stroke:none"
         d="m 800.934,3230.65 c -4.676,14.86 -17.539,21.86 -31.161,17.57 l -14.101,-4.45 15.617,-49.57 15.211,4.8 c 13.004,4.09 19.074,16.94 14.434,31.65 z m 22.863,7.48 c 8.086,-25.64 -5.195,-48.98 -33.051,-57.75 l -36.187,-11.41 -27.102,85.99 37.051,11.68 c 27.238,8.59 51.246,-2.98 59.289,-28.51" /><path
         id="path90"
         style="fill:#ffffff;fill-opacity:1;fill-rule:nonzero;stroke:none"
         d="m 843.922,3291.67 27.109,-85.99 -22.453,-7.08 -27.105,86 22.449,7.07" /><path
         id="path92"
         style="fill:#ffffff;fill-opacity:1;fill-rule:nonzero;stroke:none"
         d="m 907.277,3291.42 c -13.246,-4.18 -20.015,-17.78 -15.687,-31.52 4.375,-13.87 17.754,-21.23 31,-17.05 7.117,2.24 14.101,8.75 18.18,16.78 l 17.566,-9.97 c -6.141,-12.6 -17.91,-23.18 -30.672,-27.2 -25.887,-8.16 -51.094,4.65 -59.062,29.94 -7.813,24.77 6.062,49.64 32.316,57.92 12.762,4.02 27.906,2.59 39.355,-3.78 l -8.089,-19.68 c -7.813,5.09 -17.422,6.92 -24.907,4.56" /><path
         id="path94"
         style="fill:#ffffff;fill-opacity:1;fill-rule:nonzero;stroke:none"
         d="m 1011.81,3344.59 5.84,-18.51 -25.767,-8.13 21.267,-67.48 -22.451,-7.07 -21.269,67.48 -25.516,-8.04 -5.84,18.51 73.736,23.24" /><path
         id="path96"
         style="fill:#ffffff;fill-opacity:1;fill-rule:nonzero;stroke:none"
         d="m 1043.37,3354.54 27.11,-86 -22.46,-7.07 -27.11,85.99 22.46,7.08" /><path
         id="path98"
         style="fill:#ffffff;fill-opacity:1;fill-rule:nonzero;stroke:none"
         d="m 1091.19,3322.28 c 4.41,-13.98 18.73,-21.35 31.49,-17.32 12.88,4.06 19.78,18.11 15.37,32.09 -4.41,13.98 -18.03,21.29 -30.91,17.23 -12.89,-4.06 -20.36,-18.02 -15.95,-32 z m 69.89,22.15 c 7.92,-25.14 -5.99,-50.3 -32.62,-58.68 -26.61,-8.39 -52.45,4.23 -60.37,29.38 -7.89,25.03 6.15,49.82 32.77,58.2 26.62,8.39 52.37,-3.99 60.22,-28.9" /><path
         id="path100"
         style="fill:#ffffff;fill-opacity:1;fill-rule:nonzero;stroke:none"
         d="m 1178.5,3397.13 55.33,-39.47 -16.31,51.77 20.85,6.57 27.11,-86 -19.63,-6.18 -55.25,39.23 16.23,-51.53 -20.97,-6.61 -27.11,85.99 19.75,6.23" /><path
         id="path102"
         style="fill:#ffffff;fill-opacity:1;fill-rule:nonzero;stroke:none"
         d="m 1322.79,3383.67 -21.45,26.96 -2.35,-34.46 z m 12.04,-15.08 -37.17,-11.72 -1.22,-17.11 -23.06,-7.27 9.82,97.64 23.06,7.27 63.17,-74.63 -23.92,-7.54 -10.68,13.36" /><path
         id="path104"
         style="fill:#ffffff;fill-opacity:1;fill-rule:nonzero;stroke:none"
         d="m 1386.51,3414.01 16.32,5.14 c 9.08,2.86 12.88,9.19 10.14,17.9 -2.67,8.46 -9.37,11.34 -18.45,8.48 l -16.32,-5.15 z m 42.34,-32.51 -20.01,19.86 -0.48,-0.16 -16.21,-5.1 7.5,-23.8 -22.45,-7.08 -27.1,85.99 38.65,12.19 c 22.82,7.19 39.3,0.26 45.33,-18.88 4.1,-13.01 1.72,-24.28 -6.59,-32.56 l 26.76,-22.45 -25.4,-8.01" /><path
         id="path106"
         style="fill:#ffffff;fill-opacity:1;fill-rule:nonzero;stroke:none"
         d="m 1501.82,3434.72 8.66,-27.49 -22.45,-7.08 -8.47,26.88 -50.29,49.14 22.46,7.08 32,-30.51 8.24,43.19 22.45,7.08 -12.6,-68.29" /><path
         id="path108"
         style="fill:#ffffff;fill-opacity:1;fill-rule:nonzero;stroke:none"
         d="m 1078.04,3013.6 -56.37,70.87 -6.19,-90.59 z m 31.64,-39.66 -97.71,-30.8 -3.2,-44.97 -60.629,-19.1 25.816,256.67 60.633,19.1 166.07,-196.18 -62.89,-19.83 -28.09,35.11" /><path
         id="path110"
         style="fill:#ffffff;fill-opacity:1;fill-rule:nonzero;stroke:none"
         d="m 1265.2,3108.04 11.58,-36.76 -85.46,-26.93 -11.58,36.76 85.46,26.93" /><path
         id="path112"
         style="fill:#ffffff;fill-opacity:1;fill-rule:nonzero;stroke:none"
         d="m 1455.7,3287.57 12.2,-38.7 -75.21,-177.57 121.26,38.22 14.94,-47.41 -200.27,-63.12 -12.09,38.38 75.1,177.89 -115.13,-36.29 -14.94,47.41 194.14,61.19" /><path
         id="path114"
         style="fill:#17282f;fill-opacity:1;fill-rule:nonzero;stroke:none"
         d="m 2041.79,2278.46 c 0.02,-0.09 -0.94,-0.47 -2.83,-1.14 -2.18,-0.74 -4.96,-1.68 -8.45,-2.85 -7.8,-2.51 -18.72,-6.01 -32.62,-10.47 -28.74,-8.98 -69.73,-21.78 -120.24,-37.56 -101.97,-31.33 -242.28,-74.43 -397.26,-122.04 -155.21,-47.06 -295.69,-89.65 -397.78,-120.6 -50.7,-15.12 -91.856,-27.38 -120.715,-35.98 -14.012,-4.06 -25.028,-7.25 -32.895,-9.53 -3.551,-0.97 -6.383,-1.75 -8.598,-2.35 -1.941,-0.5 -2.953,-0.72 -2.98,-0.63 -0.024,0.08 0.933,0.47 2.824,1.14 2.176,0.73 4.957,1.67 8.442,2.84 7.8,2.51 18.718,6.01 32.613,10.47 28.742,8.98 69.729,21.78 120.229,37.56 101.98,31.32 242.31,74.43 397.35,122.06 155.15,47.04 295.62,89.63 397.71,120.59 50.71,15.11 91.86,27.37 120.72,35.97 14.02,4.06 25.03,7.25 32.9,9.53 3.55,0.98 6.38,1.75 8.6,2.36 1.94,0.5 2.95,0.71 2.98,0.63" /><path
         id="path116"
         style="fill:#33535f;fill-opacity:1;fill-rule:nonzero;stroke:none"
         d="m 1361.14,2100.97 -184.11,-56.46 c 43.03,-77.63 74.14,-166.41 91.13,-253.52 26.09,40.09 40.6,87.62 41.34,135.44 31.1,-37.3 65.05,-72.22 101.48,-104.34 1.5,98.04 -13.37,187.87 -49.84,278.88" /><path
         id="path118"
         style="fill:#17282f;fill-opacity:1;fill-rule:nonzero;stroke:none"
         d="m 2019.34,2300.9 c 0.03,-0.09 -0.93,-0.47 -2.82,-1.14 -2.18,-0.74 -4.96,-1.68 -8.45,-2.85 -7.8,-2.5 -18.72,-6.01 -32.62,-10.47 -28.74,-8.98 -69.73,-21.78 -120.24,-37.56 -101.97,-31.33 -242.28,-74.43 -397.26,-122.04 -155.21,-47.06 -295.69,-89.65 -397.78,-120.6 -50.71,-15.12 -91.854,-27.38 -120.717,-35.98 -14.012,-4.06 -25.027,-7.25 -32.894,-9.53 -3.547,-0.97 -6.379,-1.75 -8.594,-2.35 -1.945,-0.5 -2.957,-0.72 -2.985,-0.63 -0.023,0.08 0.934,0.47 2.825,1.14 2.175,0.73 4.957,1.67 8.445,2.84 7.797,2.51 18.719,6.01 32.609,10.47 28.743,8.98 69.731,21.78 120.231,37.56 101.98,31.33 242.31,74.43 397.34,122.06 155.16,47.04 295.63,89.63 397.72,120.59 50.71,15.11 91.86,27.37 120.72,35.97 14.02,4.06 25.03,7.26 32.9,9.53 3.55,0.98 6.38,1.75 8.6,2.36 1.94,0.5 2.95,0.71 2.97,0.63" /><path
         id="path120"
         style="fill:#17282f;fill-opacity:1;fill-rule:nonzero;stroke:none"
         d="m 2056.56,2348.07 c -0.09,-0.03 -0.57,1.38 -1.43,4.16 -0.9,3.01 -2.12,7.1 -3.69,12.35 -3.2,11.13 -7.8,27.13 -13.69,47.61 -11.82,41.64 -28.81,101.46 -49.77,175.28 -42.01,148 -100.47,352.33 -166.4,577.62 -65.97,225.35 -126.92,428.98 -171.34,576.27 -22.15,73.48 -40.1,133.01 -52.6,174.44 -6.08,20.42 -10.83,36.38 -14.14,47.48 -1.5,5.26 -2.68,9.37 -3.55,12.38 -0.77,2.8 -1.12,4.25 -1.04,4.28 0.09,0.02 0.61,-1.37 1.55,-4.12 0.99,-2.98 2.33,-7.03 4.05,-12.23 3.52,-11.04 8.59,-26.89 15.07,-47.19 12.87,-41.32 31.36,-100.69 54.18,-173.96 45.32,-147.04 106.84,-350.52 172.82,-575.89 65.93,-225.31 123.84,-429.82 164.95,-578.09 20.29,-74.01 36.73,-133.98 48.17,-175.73 5.49,-20.59 9.77,-36.68 12.75,-47.88 1.36,-5.3 2.42,-9.44 3.19,-12.48 0.69,-2.82 1.01,-4.28 0.92,-4.3" /><path
         id="path122"
         style="fill:#ffffff;fill-opacity:1;fill-rule:nonzero;stroke:none"
         d="m 1528.21,3660.19 c 0,0 -0.48,1.21 -1.24,3.48 -0.8,2.44 -1.89,5.77 -3.31,10.09 -2.9,9.02 -7.1,22.07 -12.52,38.95 -10.82,34.05 -26.54,83.52 -46.39,145.99 l 1.86,-0.97 C 1266.53,3795.08 932.348,3690.45 553.984,3571.98 l -0.05,-0.02 1.707,3.26 c 21.238,-68.16 42.031,-134.88 62,-198.97 l -3.207,1.69 c 259.492,80.43 487.496,151.11 650.836,201.74 81.72,25.16 147.26,45.33 192.56,59.28 22.52,6.86 40,12.19 52.05,15.86 5.84,1.75 10.33,3.1 13.57,4.06 3.08,0.91 4.76,1.31 4.76,1.31 0,0 -1.4,-0.55 -4.34,-1.53 -3.14,-1.02 -7.5,-2.44 -13.17,-4.28 -11.88,-3.79 -29.11,-9.28 -51.3,-16.36 -45.07,-14.23 -110.27,-34.82 -191.57,-60.5 -163.6,-51.32 -391.967,-122.95 -651.869,-204.48 l -2.445,-0.76 -0.766,2.45 c -19.996,64.08 -40.812,130.79 -62.078,198.94 l -0.777,2.49 2.488,0.77 0.051,0.02 c 378.64,117.58 713.066,221.43 913.286,283.61 l 1.43,0.44 0.43,-1.41 c 19.29,-63.05 34.56,-112.96 45.08,-147.32 5.08,-16.84 9.02,-29.86 11.74,-38.86 1.25,-4.25 2.22,-7.52 2.93,-9.93 0.64,-2.21 0.94,-3.32 0.88,-3.29" /><path
         id="path124"
         style="fill:#ffffff;fill-opacity:1;fill-rule:nonzero;stroke:none"
         d="m 3756.9,3012.84 c -228.48,20.67 -396.93,222.64 -376.26,451.12 20.68,228.47 222.65,396.92 451.12,376.25 228.47,-20.67 396.93,-222.64 376.25,-451.12 -20.67,-228.47 -222.64,-396.92 -451.11,-376.25" /><path
         id="path126"
         style="fill:#17282f;fill-opacity:1;fill-rule:nonzero;stroke:none"
         d="m 3454.95,3015.78 c -0.43,-0.03 -0.28,4.55 -2.63,12.19 -2.3,7.54 -7.92,18.29 -19.21,26.97 -5.61,4.25 -12.6,7.96 -20.69,9.65 -8.04,1.61 -17.13,1.23 -25.75,-2.22 -17.12,-6.41 -33.04,-24.11 -33.92,-45.63 -0.47,-21.55 14.33,-40.21 31.02,-47.67 8.39,-3.98 17.44,-4.93 25.57,-3.81 8.17,1.18 15.38,4.46 21.25,8.35 11.8,7.96 18.08,18.34 20.84,25.72 2.82,7.48 2.96,12.06 3.39,12.01 0.13,-0.01 0.11,-1.13 -0.04,-3.29 -0.03,-1.08 -0.2,-2.4 -0.56,-3.94 -0.28,-1.56 -0.67,-3.34 -1.37,-5.28 -2.41,-7.77 -8.53,-18.82 -20.7,-27.48 -6.06,-4.24 -13.6,-7.86 -22.32,-9.27 -8.68,-1.35 -18.5,-0.44 -27.53,3.73 -9.06,3.96 -17.45,10.76 -23.58,19.61 -6.26,8.75 -10.06,19.87 -9.85,31.44 0.51,11.55 5,22.41 11.78,30.75 6.67,8.45 15.46,14.71 24.76,18.1 9.26,3.6 19.12,3.91 27.7,2.02 8.61,-1.94 15.91,-6.03 21.69,-10.63 11.62,-9.4 17.05,-20.81 18.97,-28.71 0.58,-1.98 0.85,-3.78 1.03,-5.36 0.27,-1.56 0.36,-2.89 0.33,-3.97 0.01,-2.16 -0.04,-3.28 -0.18,-3.28" /><path
         id="path128"
         style="fill:#17282f;fill-opacity:1;fill-rule:nonzero;stroke:none"
         d="m 3724.2,3013.39 c 0,0 2.31,-0.14 6.77,-0.6 4.56,-0.5 11.16,-1.21 19.79,-2.15 4.35,-0.48 9.21,-1.03 14.56,-1.63 5.38,-0.35 11.3,-0.2 17.69,-0.34 6.39,-0.08 13.27,-0.17 20.62,-0.26 3.69,-0.18 7.47,0.06 11.37,0.49 3.9,0.34 7.92,0.69 12.05,1.05 33.13,1.81 73.35,10.29 117.31,27.01 43.82,16.94 91.22,44.09 134.45,84.71 5.36,5.12 10.78,10.29 16.26,15.52 5.16,5.55 10.03,11.49 15.14,17.31 2.54,2.94 5.09,5.88 7.65,8.85 2.59,2.94 5.19,5.9 7.35,9.23 4.58,6.46 9.2,13 13.87,19.6 2.31,3.3 4.73,6.58 6.99,9.97 2.02,3.55 4.05,7.11 6.09,10.7 4.08,7.16 8.2,14.39 12.36,21.69 3.93,7.41 7,15.35 10.6,23.11 1.74,3.9 3.49,7.83 5.24,11.77 0.85,1.98 1.82,3.92 2.58,5.95 l 2.04,6.19 c 5.3,16.57 11.72,33.15 14.84,50.93 1.81,8.8 4.19,17.58 5.58,26.6 1.07,9.07 2.14,18.22 3.22,27.43 0.46,4.6 1.27,9.21 1.44,13.87 0.08,4.67 0.15,9.35 0.23,14.06 0.03,9.4 0.54,18.88 0.2,28.39 -1.85,18.97 -2.34,38.38 -6.76,57.5 -0.89,4.81 -1.79,9.64 -2.69,14.48 -0.47,2.41 -0.84,4.85 -1.39,7.25 l -2.07,7.13 c -2.75,9.51 -5.51,19.08 -8.29,28.71 -3.23,9.47 -7.3,18.72 -10.93,28.16 -1.98,4.66 -3.51,9.54 -5.87,14.06 l -7,13.63 c -8.62,18.64 -20.47,35.67 -31.68,53.3 -6.45,8.23 -12.93,16.49 -19.45,24.78 l -4.88,6.23 c -1.76,1.98 -3.63,3.85 -5.45,5.78 l -10.98,11.54 -11.03,11.59 -12.11,10.56 -12.2,10.57 -6.11,5.3 c -2.15,1.64 -4.4,3.14 -6.59,4.73 -8.83,6.26 -17.69,12.54 -26.59,18.85 -9.47,5.42 -18.98,10.85 -28.52,16.31 -38.95,20.39 -81.5,35.03 -125.95,43.18 -44.66,6.98 -89.68,7.22 -133.19,0.82 -10.8,-2 -21.58,-3.99 -32.31,-5.97 -10.48,-3.03 -20.93,-6.04 -31.33,-9.04 l -7.78,-2.28 -7.53,-2.99 -15,-5.95 -14.92,-5.98 -14.24,-7.3 -14.18,-7.27 -7.05,-3.65 -6.67,-4.27 c -8.89,-5.69 -17.73,-11.35 -26.54,-16.98 -16.4,-12.95 -33.21,-25.12 -47.51,-39.88 l -11.1,-10.55 c -3.72,-3.49 -6.77,-7.59 -10.18,-11.33 -6.55,-7.73 -13.44,-15.12 -19.61,-23 -5.81,-8.16 -11.57,-16.29 -17.31,-24.36 l -4.3,-6.05 c -1.31,-2.09 -2.47,-4.27 -3.71,-6.39 -2.45,-4.27 -4.89,-8.53 -7.31,-12.78 -10.49,-16.6 -17.36,-34.76 -25.36,-52.06 -3.46,-8.87 -6.11,-17.99 -9.18,-26.88 -1.48,-4.46 -2.95,-8.91 -4.42,-13.34 -1.38,-4.46 -2.13,-9.07 -3.22,-13.57 -2.02,-9.06 -4.02,-18.04 -6.01,-26.96 -1.66,-8.97 -2.31,-18.05 -3.5,-26.96 -2.92,-17.81 -2.32,-35.58 -2.79,-52.98 l -0.12,-6.51 c 0.06,-2.16 0.33,-4.32 0.48,-6.47 0.35,-4.3 0.7,-8.58 1.06,-12.84 0.84,-8.51 1.11,-17.02 2.38,-25.31 1.52,-8.27 3.03,-16.45 4.52,-24.56 0.74,-4.06 1.48,-8.09 2.22,-12.11 1.1,-3.92 2.21,-7.83 3.31,-11.72 2.23,-7.77 4.44,-15.46 6.62,-23.08 0.95,-3.85 2.43,-7.5 3.9,-11.14 1.44,-3.64 2.88,-7.26 4.3,-10.87 2.91,-7.18 5.54,-14.4 8.58,-21.33 3.45,-6.75 6.87,-13.42 10.24,-20.02 27.41,-52.61 63.2,-93.87 98.98,-124.32 4.46,-3.84 8.76,-7.72 13.14,-11.34 4.63,-3.29 9.17,-6.53 13.63,-9.71 4.45,-3.18 8.83,-6.3 13.11,-9.35 2.16,-1.5 4.21,-3.12 6.41,-4.46 2.23,-1.29 4.44,-2.56 6.63,-3.81 8.75,-5.04 17.12,-9.85 25.1,-14.44 8.1,-4.36 16.3,-7.53 23.8,-11.07 3.78,-1.71 7.46,-3.36 11.03,-4.97 3.54,-1.69 7.04,-3.17 10.57,-4.21 6.97,-2.34 13.49,-4.53 19.55,-6.57 6.08,-1.97 11.62,-4.06 16.81,-5.5 5.25,-1.2 10.01,-2.29 14.28,-3.26 8.45,-1.97 14.92,-3.47 19.39,-4.51 4.36,-1.03 6.58,-1.66 6.58,-1.66 0,0 -2.26,0.36 -6.66,1.27 -4.49,0.96 -10.99,2.33 -19.49,4.13 -4.29,0.93 -9.08,1.96 -14.36,3.1 -5.22,1.38 -10.79,3.42 -16.89,5.34 -6.1,1.99 -12.66,4.12 -19.68,6.41 -3.55,1.02 -7.07,2.47 -10.64,4.14 -3.59,1.59 -7.29,3.22 -11.1,4.91 -7.55,3.49 -15.8,6.63 -23.96,10.95 -8.05,4.57 -16.48,9.35 -25.29,14.36 -2.21,1.25 -4.44,2.51 -6.69,3.79 -2.21,1.34 -4.28,2.96 -6.46,4.45 -4.32,3.05 -8.73,6.15 -13.22,9.33 -4.5,3.17 -9.07,6.4 -13.74,9.7 -4.42,3.61 -8.75,7.49 -13.26,11.33 -36.1,30.45 -72.25,71.82 -100,124.69 -3.41,6.63 -6.87,13.34 -10.36,20.13 -3.08,6.97 -5.76,14.23 -8.7,21.45 -1.45,3.63 -2.9,7.27 -4.36,10.94 -1.49,3.65 -2.99,7.33 -3.96,11.2 -2.22,7.67 -4.46,15.41 -6.73,23.23 -1.11,3.92 -2.32,7.82 -3.36,11.8 -0.75,4.04 -1.51,8.11 -2.27,12.19 -1.51,8.16 -3.05,16.41 -4.6,24.73 -1.29,8.36 -1.6,16.92 -2.46,25.5 -0.36,4.29 -0.73,8.61 -1.09,12.94 -0.16,2.17 -0.43,4.34 -0.49,6.51 l 0.1,6.57 c 0.43,17.53 -0.19,35.44 2.71,53.4 1.18,8.98 1.83,18.13 3.49,27.17 1.99,9 3.99,18.06 6.01,27.19 1.09,4.54 1.84,9.19 3.22,13.69 1.48,4.47 2.96,8.96 4.44,13.46 3.08,8.97 5.74,18.16 9.21,27.12 8.04,17.45 14.96,35.78 25.51,52.53 2.44,4.29 4.9,8.59 7.36,12.9 1.25,2.15 2.41,4.35 3.74,6.45 l 4.32,6.11 c 5.78,8.15 11.59,16.35 17.44,24.6 6.22,7.95 13.15,15.42 19.76,23.21 3.43,3.79 6.51,7.92 10.25,11.44 l 11.2,10.67 c 14.41,14.89 31.35,27.19 47.9,40.26 8.87,5.7 17.79,11.41 26.76,17.16 l 6.73,4.31 7.11,3.69 14.3,7.35 14.37,7.37 15.05,6.05 15.14,6.01 7.59,3.01 7.86,2.32 c 10.49,3.03 21.03,6.07 31.62,9.12 10.83,2.01 21.7,4.03 32.61,6.05 43.91,6.47 89.35,6.23 134.42,-0.82 44.86,-8.21 87.81,-23 127.11,-43.59 9.63,-5.51 19.23,-11 28.78,-16.48 8.98,-6.37 17.93,-12.71 26.83,-19.04 2.22,-1.59 4.49,-3.12 6.65,-4.77 l 6.17,-5.35 12.31,-10.67 12.2,-10.67 11.13,-11.7 11.08,-11.65 c 1.83,-1.95 3.72,-3.84 5.48,-5.83 l 4.94,-6.29 c 6.56,-8.38 13.09,-16.72 19.6,-25.02 11.3,-17.79 23.23,-35 31.92,-53.81 l 7.04,-13.75 c 2.37,-4.57 3.92,-9.48 5.91,-14.19 3.66,-9.53 7.75,-18.86 10.99,-28.42 2.8,-9.72 5.58,-19.37 8.34,-28.97 l 2.07,-7.19 c 0.56,-2.43 0.93,-4.89 1.41,-7.32 0.9,-4.89 1.79,-9.75 2.69,-14.61 4.43,-19.29 4.91,-38.87 6.74,-58 0.33,-9.59 -0.19,-19.16 -0.25,-28.63 -0.08,-4.74 -0.17,-9.47 -0.25,-14.17 -0.18,-4.7 -1,-9.35 -1.47,-13.99 -1.11,-9.28 -2.21,-18.5 -3.3,-27.64 -1.41,-9.09 -3.82,-17.94 -5.67,-26.81 -3.18,-17.9 -9.68,-34.6 -15.05,-51.29 l -2.07,-6.23 c -0.77,-2.04 -1.75,-4 -2.61,-5.99 -1.78,-3.97 -3.55,-7.93 -5.31,-11.86 -3.63,-7.81 -6.75,-15.8 -10.72,-23.26 -4.21,-7.34 -8.38,-14.62 -12.51,-21.82 -2.06,-3.61 -4.12,-7.19 -6.16,-10.76 -2.29,-3.42 -4.73,-6.7 -7.06,-10.04 -4.72,-6.63 -9.39,-13.2 -14.02,-19.7 -2.19,-3.34 -4.81,-6.32 -7.43,-9.27 -2.59,-2.98 -5.16,-5.94 -7.72,-8.89 -5.16,-5.85 -10.08,-11.82 -15.29,-17.38 -5.54,-5.26 -11.01,-10.45 -16.42,-15.58 -43.63,-40.77 -91.41,-67.9 -135.54,-84.73 -44.26,-16.62 -84.71,-24.91 -117.97,-26.5 -4.15,-0.33 -8.18,-0.65 -12.1,-0.97 -3.91,-0.39 -7.71,-0.61 -11.41,-0.39 -7.37,0.15 -14.27,0.3 -20.69,0.43 -6.4,0.2 -12.33,0.12 -17.71,0.54 -5.36,0.66 -10.22,1.27 -14.58,1.81 -8.62,1.11 -15.22,1.95 -19.77,2.53 -4.45,0.6 -6.71,1 -6.71,1" /><path
         id="path130"
         style="fill:#17282f;fill-opacity:1;fill-rule:nonzero;stroke:none"
         d="m 3694.78,3517.73 h 58.58 c 0,0 0,49.2 51.12,50.08 26.55,0.46 40.31,-16.93 45.9,-30.26 6.5,-15.47 4.53,-33.1 -4.17,-47.45 -9.94,-16.38 -31.71,-31.27 -71.19,-24.31 v -132.1 h 57.93 v 77.38 c 0,0 81.24,21 81.24,110.54 0,85.66 -76.82,105.56 -109.71,105.56 -25.14,0 -110.81,-6.08 -109.7,-109.44" /><path
         id="path132"
         style="fill:#17282f;fill-opacity:1;fill-rule:nonzero;stroke:none"
         d="m 3833.65,3251.57 h -58.79 v 54.91 h 58.79 v -54.91" /><path
         id="path134"
         style="fill:#17282f;fill-opacity:1;fill-rule:nonzero;stroke:none"
         d="m 2316.87,3316.3 c -58.43,44.75 -65.34,137.21 -26.05,199.43 39.29,62.23 113.95,95.54 187.35,100.83 106.24,7.67 214.98,-39.33 282.19,-121.95 36.32,-44.66 63.95,-101.17 116.44,-124.79 46.14,-20.77 100.13,-10.45 149.54,-21.34 66.25,-14.59 119.48,-67.29 148.71,-128.5 29.23,-61.21 37.42,-130.3 39.44,-198.11 1.85,-62.22 0.7,-130.23 39.46,-178.94 37.8,-47.5 102.8,-62.59 151.86,-98.34 92.31,-67.25 111.09,-215.34 38.5,-303.52 -23.15,-28.1 -55.01,-52.94 -60.58,-88.94 -5.09,-32.85 13.67,-64.16 20.9,-96.62 18.58,-83.56 -56.48,-174.26 -142.03,-171.64 -43.2,1.32 -87.77,22.14 -127.98,6.31 -39.95,-15.71 -58.26,-60.6 -85.83,-93.51 -54.23,-64.72 -157.23,-81.85 -229.49,-38.16 -30.24,18.29 -57.84,46.51 -93.18,47.25 -35.26,0.72 -65.5,-26.77 -100.58,-30.41 -45.93,-4.75 -85.87,32.3 -109.43,72.01 -23.56,39.71 -38.39,85.35 -70.06,118.95 -41.47,43.99 -103.82,59.46 -159.04,84.09 -121.86,54.36 -218.09,163.37 -256.92,291.03 -38.83,127.67 -19.58,271.8 51.38,384.8" /><path
         id="path136"
         style="fill:#33535f;fill-opacity:1;fill-rule:nonzero;stroke:none"
         d="m 2900.35,2449.28 c 14.07,12.71 33.68,24.03 53.14,28.62 l -3.81,0.57 c 3.62,0.66 7.27,0.75 10.91,0.88 14.14,2.05 27.83,0.13 38.83,-8.32 l -0.37,0.06 c 20.8,-9.81 38.37,-27.24 46.92,-48.72 14.88,-37.37 4.15,-82.44 -22.95,-112.17 -23.56,-25.83 -61.47,-40.79 -94.59,-29.58 -30.43,10.29 -51,40.52 -57.1,72.05 -6.66,34.51 2.94,73.04 29.02,96.61" /><path
         id="path138"
         style="fill:#f9a78d;fill-opacity:1;fill-rule:nonzero;stroke:none"
         d="m 2996.79,2870.67 c -0.59,175.83 -103.84,397.67 -279.48,389.62 l -553.24,-105.27 c -53.36,-2.44 -95.97,-45.31 -98.1,-98.69 l -76.31,-1482.91 626.18,3.34 c 7.57,106.03 35.6,404.8 35.61,403.81 0,0 243.61,23.16 307.38,312.39 31.72,143.83 38.62,382.36 37.96,577.71" /><path
         id="path140"
         style="fill:#17282f;fill-opacity:1;fill-rule:nonzero;stroke:none"
         d="m 2865.53,2631.23 c -0.48,-19.82 -17.65,-35.76 -38.36,-35.63 -20.66,0.13 -37.07,16.24 -36.59,36.07 0.48,19.81 17.66,35.77 38.32,35.65 20.71,-0.12 37.11,-16.27 36.63,-36.09" /><path
         id="path142"
         style="fill:#17282f;fill-opacity:1;fill-rule:nonzero;stroke:none"
         d="m 2938.1,2769.72 c -4.92,-4.61 -32.05,18.08 -72.35,20.38 -40.22,2.87 -71.04,-16.1 -75.11,-10.91 -2.02,2.32 3.24,10.85 16.67,19.46 13.23,8.58 35.4,16.37 60.49,14.77 25.09,-1.64 45.66,-12.14 57.23,-22.32 11.82,-10.24 15.49,-19.33 13.07,-21.38" /><path
         id="path144"
         style="fill:#17282f;fill-opacity:1;fill-rule:nonzero;stroke:none"
         d="m 2503.05,2656.15 c -0.48,-19.82 -17.66,-35.75 -38.36,-35.63 -20.66,0.13 -37.07,16.25 -36.58,36.07 0.47,19.81 17.66,35.77 38.32,35.65 20.7,-0.12 37.11,-16.27 36.62,-36.09" /><path
         id="path146"
         style="fill:#17282f;fill-opacity:1;fill-rule:nonzero;stroke:none"
         d="m 2541.57,2785.82 c -4.95,-4.6 -32.1,18.08 -72.38,20.37 -40.22,2.87 -71.03,-16.09 -75.11,-10.9 -2.01,2.32 3.2,10.84 16.68,19.45 13.23,8.59 35.39,16.37 60.49,14.78 25.08,-1.64 45.65,-12.14 57.23,-22.32 11.79,-10.25 15.49,-19.33 13.09,-21.38" /><path
         id="path148"
         style="fill:#17282f;fill-opacity:1;fill-rule:nonzero;stroke:none"
         d="m 2669.99,2478.26 c -0.05,2.3 25.25,5.13 66.15,7.91 10.35,0.44 20.21,1.91 22.36,8.82 2.88,7.3 -0.77,18.64 -5.04,30.91 -8.2,25.48 -16.76,52.18 -25.76,80.17 -35.61,114.08 -60.73,207.63 -56.12,209.02 4.6,1.4 37.21,-89.94 72.81,-204.01 8.52,-28.12 16.69,-54.92 24.45,-80.56 3.2,-11.92 9.11,-25.59 2.93,-40.71 -3.23,-7.52 -11.12,-12.65 -17.82,-14.03 -6.72,-1.63 -12.51,-1.39 -17.62,-1.38 -40.97,0.23 -66.33,1.56 -66.34,3.86" /><path
         id="path150"
         style="fill:#f57f62;fill-opacity:1;fill-rule:nonzero;stroke:none"
         d="m 2653.94,1984.45 c 0,0 -179.6,-1.61 -367.24,126.98 0,0 65.21,-224.08 359.08,-214.18 l 8.16,87.2" /><path
         id="path152"
         style="fill:#f57f62;fill-opacity:1;fill-rule:nonzero;stroke:none"
         d="m 2658.3,2382.8 c -17.85,28.73 -48.68,47.52 -79.05,48.16 -21.05,0.46 -42.21,-8.03 -54.74,-25.68 -12.53,-17.64 -14.83,-44.93 -2.91,-65.18 13.41,-22.81 40.89,-31.57 63.99,-27.42 23.09,4.15 42.8,18.62 61.52,33.16 5.18,4.02 10.47,8.23 13.65,14.32 3.19,6.06 3.77,14.52 -0.37,20.53" /><path
         id="path154"
         style="fill:#17282f;fill-opacity:1;fill-rule:nonzero;stroke:none"
         d="m 2549.73,2457.45 c 6.58,0 4.06,-43.75 39.65,-77.03 35.5,-33.37 82.43,-31.24 82.4,-37.37 0.45,-2.79 -10.89,-7.89 -30.59,-7.24 -19.35,0.48 -47.17,8.36 -68.95,28.72 -21.7,20.4 -30.01,46.39 -30.43,64.42 -0.58,18.39 4.95,28.93 7.92,28.5" /><path
         id="path156"
         style="fill:#17282f;fill-opacity:1;fill-rule:nonzero;stroke:none"
         d="m 2569.25,2950.65 c -4.62,-10.72 -44.54,-3.13 -92.15,-6.01 -47.69,-1.92 -86.63,-13.48 -92.32,-3.28 -2.52,4.87 4.74,14.77 20.79,24.47 15.91,9.68 40.89,18.29 69.46,19.76 28.56,1.41 54.28,-4.65 71.08,-12.68 16.94,-8.03 25.16,-17.16 23.14,-22.26" /><path
         id="path158"
         style="fill:#17282f;fill-opacity:1;fill-rule:nonzero;stroke:none"
         d="m 2932.18,2909.25 c -7.63,-8.73 -34.82,2.42 -68.17,4.86 -33.27,3.6 -62.02,-2.47 -67.96,7.48 -2.57,4.82 2.43,13.73 15.3,21.65 12.68,7.91 33.46,13.75 56.36,11.69 22.89,-2.09 42.27,-11.57 53.32,-21.64 11.24,-10.11 14.55,-19.76 11.15,-24.04" /><path
         id="path160"
         style="fill:#17282f;fill-opacity:1;fill-rule:nonzero;stroke:none"
         d="m 3198.89,2934.37 c -9.71,44.84 -31.01,88.68 -67.1,117 -19.78,15.52 -43.42,26 -61.52,43.45 -39.1,37.69 -43.63,97.69 -65.43,147.43 -28.11,64.1 -89.05,112.74 -157.79,125.95 -57.19,10.99 -118.19,-1.09 -173.2,18.06 -40.66,14.15 -74.61,44.35 -116.03,56.07 -80.67,22.83 -162.14,-29.32 -226.79,-82.71 -5.4,-58.71 37.92,-102.11 79.64,-143.77 41.71,-41.67 102.39,-63.54 161.09,-58.07 45.54,4.24 96.66,22.57 133.36,-4.74 38.6,-28.72 34.86,-90.38 68.27,-124.98 47.77,-49.46 133.72,-14.59 197.66,-39.85 49.38,-19.51 76.78,-70.77 106.88,-114.51 30.09,-43.74 77.13,-86.96 129.15,-76.38 0.79,45.87 1.53,92.22 -8.19,137.05" /><path
         id="path162"
         style="fill:#17282f;fill-opacity:1;fill-rule:nonzero;stroke:none"
         d="m 2604.71,3236.94 c -35.85,13.77 -109.01,44.22 -125.93,77.86 -36.73,73.08 -108.1,127.05 -185.65,129.63 -77.56,2.59 -157.02,-51.82 -180,-131.94 -93.45,7.54 -189.74,-43.09 -242.35,-127.4 -6.57,-10.54 -12.44,-21.56 -17.58,-32.94 -33.61,-48.61 -44.85,-112.32 -28.61,-169.23 9.8,-34.34 28.22,-73.21 8.38,-102.9 -20.19,-30.22 -64.24,-27.34 -99.51,-36.12 -61.37,-15.27 -106.01,-80.31 -98.18,-143.07 2.8,-22.52 11.42,-45.51 4.87,-67.24 -6.82,-22.61 -27.98,-37.15 -44.71,-53.82 -41.57,-41.4 -58.95,-105.51 -43.99,-162.25 14.96,-56.73 61.7,-103.93 118.28,-119.46 25.75,-7.06 54.22,-8.46 75.64,-24.4 24.56,-18.27 33.17,-50.52 49.34,-76.51 31.02,-49.84 95.33,-76.39 152.47,-62.93 11.58,2.73 22.51,7.42 32.91,13.07 15.38,-25.85 41.43,-44.73 88.46,-48.88 l 43.36,615.1 c 4.71,-13.46 14.91,-26.11 34.65,-32.45 96.6,-30.99 128.92,170.87 111.78,227.86 38.45,28.52 77.34,57.45 108.09,95.28 30.75,37.82 64.38,145.39 62.93,195.28 35.35,-5.22 191.1,31.41 175.35,37.46" /><path
         id="path164"
         style="fill:#f9a78d;fill-opacity:1;fill-rule:nonzero;stroke:none"
         d="m 2134.65,2661.16 c 2.39,62.7 -72.82,82.79 -129.69,56.28 -31.22,-14.55 -56.98,-47.07 -60.1,-113.58 -8.3,-177.37 171.48,-149.12 172.03,-144.05 0.34,3.14 14.97,127.94 17.76,201.35" /><path
         id="path166"
         style="fill:#f57f62;fill-opacity:1;fill-rule:nonzero;stroke:none"
         d="m 2065.86,2529.54 c -0.76,0.61 -3.2,-2.02 -8.53,-4.16 -5.2,-2.1 -14.03,-3.3 -23.12,0.6 -18.42,7.76 -32.8,38.24 -32.17,70.26 0.31,16.16 4.41,31.37 10.73,43.82 6.02,12.73 14.83,21.4 24.34,22.64 9.49,1.73 15.91,-4.23 17.84,-9.33 2.15,-5.07 0.86,-8.55 1.78,-8.91 0.48,-0.46 3.95,2.8 2.86,10.19 -0.56,3.56 -2.45,7.84 -6.45,11.44 -4.09,3.67 -10.27,5.72 -16.88,5.32 -13.72,-0.31 -26.62,-12.31 -33.56,-25.99 -7.7,-13.71 -12.7,-30.78 -13.03,-48.94 -0.54,-35.79 16.19,-70.09 41.49,-78.7 12.32,-3.84 22.91,-0.57 28.47,3.37 5.71,4.12 6.82,8.04 6.23,8.39" /><path
         id="path168"
         style="fill:#33535f;fill-opacity:1;fill-rule:nonzero;stroke:none"
         d="m 2365.59,3306.12 c 1.13,-1.99 -18.26,-3.49 -37.86,-26.42 -19.62,-22.53 -30.28,-68.1 -23.78,-121.06 l 0.56,-4.55 -4.45,-0.7 c -44.67,-7.03 -95.88,-37.54 -122.7,-90.27 -6.39,-13.03 -11.22,-27.65 -12.95,-42.3 -1.4,-14.97 -0.09,-30.88 1.4,-47.19 1.45,-16.32 3.26,-33.21 2.3,-50.88 -0.31,-17.39 -6.71,-37.02 -18.6,-50.92 -24.93,-31.5 -61.72,-44.85 -93.48,-58.14 -32.59,-12.75 -62.86,-26.03 -86.8,-46.51 -48.63,-40.11 -73.63,-95.32 -79.06,-142.26 -5.92,-47.54 4.19,-86.41 13.66,-111.27 9.61,-25.16 18.45,-37.54 17.39,-38.18 -0.37,-0.25 -2.7,2.71 -6.86,8.61 -3.89,6.04 -9.55,15.11 -15.04,27.71 -11.05,24.83 -22.93,64.53 -17.95,114.13 4.53,49.08 29.73,107.43 80.48,150.12 24.96,21.83 57.31,36.26 89.57,49.02 31.76,13.28 66.49,26.66 88.22,54.48 21.94,25.1 16.28,60.91 13.92,93.02 -1.39,16.38 -2.77,32.87 -1.11,49.53 2.13,16.82 7.44,32.07 14.49,46.25 29.49,56.51 84.15,87.68 131.73,94.22 l -3.89,-5.24 c -5.66,55.41 6.84,102.46 29.05,125.76 10.77,11.62 21.97,17.43 29.64,20.1 7.89,2.39 12,3.38 12.12,2.94" /><path
         id="path170"
         style="fill:#33535f;fill-opacity:1;fill-rule:nonzero;stroke:none"
         d="m 1994.01,2469.21 c 14.07,12.72 33.68,24.03 53.14,28.62 l -3.81,0.57 c 3.62,0.66 7.27,0.76 10.91,0.88 14.14,2.05 27.83,0.14 38.83,-8.32 l -0.37,0.06 c 20.8,-9.81 38.37,-27.24 46.91,-48.71 14.89,-37.38 4.16,-82.45 -22.94,-112.18 -23.56,-25.83 -61.47,-40.78 -94.59,-29.58 -30.43,10.29 -50.99,40.52 -57.09,72.05 -6.67,34.52 2.93,73.05 29.01,96.61" /><path
         id="path172"
         style="fill:#f2575d;fill-opacity:1;fill-rule:nonzero;stroke:none"
         d="m 1358.81,1664.79 c 0,0 -763.466,-741.181 -756.915,-980.47 0.109,-3.98 -1.657,-7.789 -2.352,-11.711 C 571.672,515.441 685.895,368.16 844.285,348.441 l 295.265,-36.75 630.54,813.359 -170.69,454.38 -240.59,85.36" /><path
         id="path174"
         style="fill:#f2575d;fill-opacity:1;fill-rule:nonzero;stroke:none"
         d="m 1094.92,1299.82 c 0,0 123.15,208.44 263.89,364.97 133.16,148.11 310.49,190.34 349.79,192.19 146.02,6.9 761.59,-34.64 1156.5,-50.38 146.7,-5.85 291.6,-91.07 387.47,-202.26 214.76,-249.06 591.19,-692.82 666.87,-829.52 107.17,-193.621 31.93,-634.41 -43.27,-693.238 -75.19,-58.8203 -2382.61,41.359 -2382.61,41.359 L 1094.92,1299.82" /><path
         id="path176"
         style="fill:#17282f;fill-opacity:1;fill-rule:nonzero;stroke:none"
         d="m 3689.6,774.73 c -0.02,-0.179 -1.69,-0.242 -4.85,-0.179 -3.75,0.148 -8.29,0.32 -13.75,0.519 -3.06,0.149 -6.36,0.321 -9.92,0.5 -3.62,0.059 -7.57,-0.179 -11.8,-0.25 -8.46,-0.34 -18.11,-0.05 -28.69,-1.5 -5.31,-0.531 -10.86,-1.101 -16.62,-1.679 -5.77,-0.641 -11.68,-1.993 -17.85,-3.012 -12.4,-1.77 -25.27,-5.469 -38.89,-8.918 -26.93,-8.051 -55.84,-19.332 -84.39,-34.813 -28.34,-15.878 -53.32,-34.296 -74.51,-52.769 -10.19,-9.68 -20.19,-18.59 -28.32,-28.117 -4.14,-4.68 -8.45,-8.953 -12.07,-13.492 -3.57,-4.559 -7,-8.95 -10.3,-13.161 -6.87,-8.168 -11.77,-16.488 -16.58,-23.461 -2.32,-3.527 -4.63,-6.738 -6.51,-9.839 -1.75,-3.098 -3.37,-5.977 -4.87,-8.649 -2.75,-4.73 -5.03,-8.648 -6.91,-11.898 -1.63,-2.703 -2.57,-4.082 -2.73,-4 -0.16,0.066 0.46,1.609 1.79,4.468 1.66,3.379 3.66,7.481 6.07,12.411 1.39,2.75 2.89,5.718 4.51,8.918 1.76,3.203 3.96,6.511 6.19,10.152 4.6,7.168 9.35,15.711 16.09,24.109 3.25,4.309 6.63,8.821 10.15,13.489 3.57,4.66 7.84,9.05 11.97,13.839 8.09,9.77 18.08,18.903 28.32,28.801 21.26,18.903 46.49,37.692 75.2,53.762 28.91,15.68 58.26,26.98 85.59,34.871 13.83,3.367 26.89,6.938 39.46,8.559 6.26,0.929 12.25,2.199 18.1,2.738 5.83,0.473 11.44,0.93 16.82,1.371 7.95,0.898 15.37,0.832 22.15,0.762 2.36,-0.024 4.64,-0.043 6.84,-0.032 4.26,-0.058 8.23,0.032 11.88,-0.179 3.57,-0.34 6.89,-0.66 9.95,-0.961 5.46,-0.59 9.99,-1.078 13.74,-1.488 3.13,-0.403 4.76,-0.692 4.74,-0.872" /><path
         id="path178"
         style="fill:#17282f;fill-opacity:1;fill-rule:nonzero;stroke:none"
         d="m 1650.68,806.082 c -0.18,-0.023 -0.8,2.379 -1.83,6.977 -1.07,5.113 -2.48,11.8 -4.23,20.14 -3.93,17.43 -10.14,42.531 -19.08,73.211 -17.98,61.301 -47.43,144.68 -85.14,234.62 -37.57,90.05 -76.22,169.56 -106.33,225.94 -7.39,14.17 -14.37,26.83 -20.66,37.85 -6.18,11.09 -11.49,20.66 -16.15,28.29 -4.3,7.36 -7.75,13.27 -10.38,17.78 -2.32,4.1 -3.47,6.3 -3.32,6.4 0.15,0.1 1.59,-1.92 4.21,-5.84 2.84,-4.38 6.57,-10.13 11.22,-17.29 4.94,-7.48 10.51,-16.91 16.94,-27.88 6.54,-10.92 13.77,-23.47 21.38,-37.56 31,-56.04 70.25,-135.46 107.9,-225.68 37.77,-90.11 66.74,-173.88 83.87,-235.618 8.52,-30.891 14.2,-56.211 17.53,-73.813 1.35,-8.437 2.44,-15.211 3.28,-20.379 0.69,-4.66 0.96,-7.121 0.79,-7.148" /><path
         id="path180"
         style="fill:#17282f;fill-opacity:1;fill-rule:nonzero;stroke:none"
         d="m 3174.68,1451.06 c 0.09,0 0.15,-0.85 0.19,-2.5 0,-1.97 0.01,-4.38 0.03,-7.35 -0.1,-6.87 -0.23,-16.3 -0.4,-28.23 -0.39,-24.51 -1.5,-59.97 -3.36,-103.77 -3.67,-87.59 -11.26,-208.52 -24.64,-341.64 -13.48,-133.16 -30.2,-253.179 -44.09,-339.742 -6.93,-43.289 -12.92,-78.246 -17.43,-102.348 -2.22,-11.718 -3.97,-20.98 -5.25,-27.73 -0.61,-2.91 -1.1,-5.27 -1.5,-7.191 -0.36,-1.618 -0.59,-2.438 -0.68,-2.418 -0.09,0.019 -0.04,0.871 0.16,2.507 0.26,1.942 0.58,4.34 0.98,7.282 1.05,6.789 2.48,16.109 4.29,27.89 3.8,24.66 9.17,59.59 15.79,102.571 12.95,86.648 29.08,206.648 42.55,339.699 13.37,133.01 21.53,253.8 26.14,341.3 2.1,43.44 3.81,78.74 5.02,103.66 0.58,11.91 1.03,21.33 1.37,28.19 0.19,2.96 0.35,5.37 0.48,7.33 0.14,1.65 0.26,2.49 0.35,2.49" /><path
         id="path182"
         style="fill:#f2575d;fill-opacity:1;fill-rule:nonzero;stroke:none"
         d="m 2749.55,1879.83 c -8.07,5.69 -18.36,6.94 -28.18,8.01 -228.79,25.08 -457.58,50.15 -686.36,75.22 -23.46,2.57 -49.91,4.28 -67.78,-11.12 -22.68,-19.53 -19.17,-55.66 -8.93,-83.78 10.25,-28.12 25.54,-56.84 20.01,-86.26 l 736.56,-46.18 c -4.58,26.57 16.55,49.63 32.14,71.63 15.59,21.99 24.58,56.95 2.54,72.48" /><path
         id="path184"
         style="fill:#17282f;fill-opacity:1;fill-rule:nonzero;stroke:none"
         d="m 2782.43,1749.9 c 0.04,-0.17 -2.74,-0.9 -8.08,-2.13 -5.8,-1.27 -13.59,-2.98 -23.38,-5.12 -10.16,-2.26 -22.62,-4.81 -37.23,-7.08 -14.58,-2.36 -31.12,-5.53 -49.61,-7.59 -9.24,-1.16 -18.91,-2.38 -28.97,-3.65 -10.08,-1.23 -20.63,-1.9 -31.52,-2.93 -21.77,-2.25 -45.14,-3.1 -69.71,-4.31 -49.18,-1.41 -103.34,-0.66 -159.97,3.86 -56.61,4.9 -110.16,13.12 -158.43,22.65 -24.04,5.25 -46.95,9.95 -68.05,15.78 -10.57,2.81 -20.87,5.22 -30.61,8.09 -9.71,2.92 -19.04,5.72 -27.96,8.4 -17.9,5.08 -33.69,10.95 -47.68,15.68 -14.02,4.66 -25.9,9.23 -35.53,13.14 -9.3,3.73 -16.7,6.7 -22.22,8.92 -5.06,2.09 -7.68,3.27 -7.61,3.43 0.06,0.17 2.82,-0.68 7.99,-2.46 5.6,-1.98 13.11,-4.64 22.54,-7.99 9.74,-3.61 21.69,-7.9 35.77,-12.28 14.05,-4.46 29.88,-10.07 47.8,-14.92 8.92,-2.56 18.26,-5.25 27.98,-8.04 9.74,-2.77 20.02,-5.08 30.58,-7.79 21.09,-5.63 43.95,-10.15 67.94,-15.26 48.16,-9.24 101.52,-17.27 157.93,-22.16 56.41,-4.5 110.36,-5.4 159.38,-4.25 24.49,1.07 47.79,1.75 69.51,3.82 10.86,0.92 21.39,1.5 31.45,2.62 10.05,1.15 19.7,2.25 28.93,3.31 18.47,1.81 35.01,4.72 49.6,6.8 14.62,2 27.12,4.25 37.31,6.2 9.86,1.74 17.71,3.13 23.56,4.16 5.4,0.89 8.25,1.28 8.29,1.1" /><path
         id="path186"
         style="fill:#cc4341;fill-opacity:1;fill-rule:nonzero;stroke:none"
         d="m 820.152,772.109 c 37.692,127.629 152.746,228.941 284.118,250.181 20.97,3.39 42.19,5.07 63.35,5.07 6.6,0 13.18,-0.16 19.75,-0.49 l 21.5,-63.46 c -9.26,0.86 -18.58,1.32 -27.95,1.32 -9.77,0 -19.6,-0.5 -29.5,-1.558 -93.8,-10.07 -174.162,-55.75 -239.24,-124.051 -24.957,-26.199 -57.672,-55.66 -92.028,-67.012" /><path
         id="path188"
         style="fill:#cc4341;fill-opacity:1;fill-rule:nonzero;stroke:none"
         d="m 1452.74,888.75 -32.32,7.352 c -24.37,16.519 -54.88,22.558 -82.27,33.308 -42.25,16.59 -85.19,29.879 -129.28,34 l -21.5,63.46 c 104.49,-5.21 205.3,-51.749 265.37,-138.12" /><path
         id="path190"
         style="fill:#cc4341;fill-opacity:1;fill-rule:nonzero;stroke:none"
         d="m 2420.07,1635.81 c -12.2,0 -24.47,0.43 -36.78,1.32 -120.95,8.72 -238.77,62.67 -332.81,140.25 l 42.21,-2.65 c 7.77,-2.33 15.83,-4.75 24.18,-7.26 9.74,-2.87 20.04,-5.28 30.61,-8.09 21.1,-5.83 44.01,-10.53 68.05,-15.78 48.27,-9.53 101.82,-17.75 158.43,-22.65 39.96,-3.19 78.69,-4.5 115.31,-4.5 15.27,0 30.18,0.22 44.66,0.64 24.57,1.21 47.94,2.06 69.71,4.31 10.89,1.03 21.44,1.7 31.52,2.93 10.06,1.27 19.73,2.49 28.97,3.65 18.49,2.06 35.03,5.23 49.61,7.59 0.35,0.05 0.69,0.11 1.02,0.16 l 0.11,-0.01 c -0.01,0.01 -0.01,0.02 -0.01,0.03 12.6,1.98 23.58,4.17 32.83,6.18 -98.5,-65.93 -210.39,-106.12 -327.62,-106.12 m 137.01,87.05 c 41.03,2.15 82.73,5.82 125.06,10.97 -5.93,-0.81 -12.08,-1.57 -18.47,-2.19 -9.23,-1.06 -18.88,-2.16 -28.93,-3.31 -10.06,-1.12 -20.59,-1.7 -31.45,-2.62 -14.72,-1.4 -30.16,-2.17 -46.21,-2.85" /><path
         id="path192"
         style="fill:#cc4341;fill-opacity:1;fill-rule:nonzero;stroke:none"
         d="m 2714.87,1735.72 -0.11,0.01 c 0.04,0 0.07,0.01 0.1,0.02 0,-0.01 0,-0.02 0.01,-0.03 m -622.18,39.01 -42.21,2.65 c -7.23,5.97 -14.33,12.08 -21.27,18.32 3.81,-1.37 7.82,-2.75 12.02,-4.15 13.99,-4.73 29.78,-10.6 47.68,-15.68 1.25,-0.38 2.51,-0.76 3.78,-1.14" /><path
         id="path194"
         style="fill:#0f191d;fill-opacity:1;fill-rule:nonzero;stroke:none"
         d="m 2489.27,1716.45 c -36.62,0 -75.35,1.31 -115.31,4.5 -56.61,4.9 -110.16,13.12 -158.43,22.65 -24.04,5.25 -46.95,9.95 -68.05,15.78 -10.57,2.81 -20.87,5.22 -30.61,8.09 -8.35,2.51 -16.41,4.93 -24.18,7.26 -1.27,0.38 -2.53,0.76 -3.78,1.14 -17.9,5.08 -33.69,10.95 -47.68,15.68 -4.2,1.4 -8.21,2.78 -12.02,4.15 -0.8,0.72 -1.6,1.44 -2.4,2.17 136.93,-52.57 285.85,-77.26 445.47,-77.26 27.94,0 56.22,0.76 84.8,2.25 16.05,0.68 31.49,1.45 46.21,2.85 10.86,0.92 21.39,1.5 31.45,2.62 10.05,1.15 19.7,2.25 28.93,3.31 6.39,0.62 12.54,1.38 18.47,2.19 22.29,2.71 44.78,5.84 67.42,9.36 -0.62,-0.42 -1.24,-0.84 -1.87,-1.26 -9.25,-2.01 -20.23,-4.2 -32.83,-6.18 -0.03,-0.01 -0.06,-0.02 -0.1,-0.02 -0.33,-0.05 -0.67,-0.11 -1.02,-0.16 -14.58,-2.36 -31.12,-5.53 -49.61,-7.59 -9.24,-1.16 -18.91,-2.38 -28.97,-3.65 -10.08,-1.23 -20.63,-1.9 -31.52,-2.93 -21.77,-2.25 -45.14,-3.1 -69.71,-4.31 -14.48,-0.42 -29.39,-0.64 -44.66,-0.64" /><path
         id="path196"
         style="fill:#cc4341;fill-opacity:1;fill-rule:nonzero;stroke:none"
         d="m 3300.07,560.371 c 15.8,174 169.28,281.899 327.75,300.699 8.31,0.981 16.84,1.68 25.32,1.68 17.28,0 34.33,-2.891 48.73,-12.051 21.45,-13.648 32.54,-45.867 16.27,-65.41 -10.33,-12.398 -26.42,-15.398 -43.19,-15.398 -8.67,0 -17.53,0.8 -25.85,1.519 -8.63,0.75 -17.23,1.11 -25.79,1.11 -7.73,0 -15.42,-0.29 -23.07,-0.879 1.25,0.187 2.49,0.359 3.73,0.5 5.76,0.578 11.31,1.148 16.62,1.679 10.58,1.45 20.23,1.16 28.69,1.5 3.74,0.059 7.26,0.258 10.53,0.258 0.43,0 0.85,0 1.27,-0.008 3.56,-0.179 6.86,-0.351 9.92,-0.5 5.46,-0.199 10,-0.371 13.75,-0.519 0.83,-0.012 1.55,-0.02 2.17,-0.02 1.75,0 2.66,0.059 2.68,0.199 0.02,0.18 -1.61,0.469 -4.74,0.872 -3.75,0.41 -8.28,0.898 -13.74,1.488 -3.06,0.301 -6.38,0.621 -9.95,0.961 -3.65,0.211 -7.62,0.121 -11.88,0.179 -0.51,0 -1.03,0 -1.55,0 -1.71,0 -3.48,0.008 -5.29,0.032 -1.8,0.019 -3.64,0.039 -5.53,0.039 -5.23,0 -10.78,-0.141 -16.62,-0.801 -5.38,-0.441 -10.99,-0.898 -16.82,-1.371 -5.85,-0.539 -11.84,-1.809 -18.1,-2.738 -12.57,-1.621 -25.63,-5.192 -39.46,-8.559 -27.33,-7.891 -56.68,-19.191 -85.59,-34.871 -28.71,-16.07 -53.94,-34.859 -75.2,-53.762 -10.24,-9.898 -20.23,-19.031 -28.32,-28.801 -4.13,-4.789 -8.4,-9.179 -11.97,-13.839 -3.52,-4.668 -6.9,-9.18 -10.15,-13.489 -6.74,-8.398 -11.49,-16.941 -16.09,-24.109 -2.23,-3.641 -4.43,-6.949 -6.19,-10.152 -1.62,-3.2 -3.12,-6.168 -4.51,-8.918 -2.41,-4.93 -4.41,-9.032 -6.07,-12.411 -0.98,-2.109 -1.58,-3.5 -1.76,-4.109" /><path
         id="path198"
         style="fill:#0f191d;fill-opacity:1;fill-rule:nonzero;stroke:none"
         d="m 3300.04,560.012 v 0 c 0.01,0.109 0.02,0.238 0.03,0.359 0.18,0.609 0.78,2 1.76,4.109 1.66,3.379 3.66,7.481 6.07,12.411 1.39,2.75 2.89,5.718 4.51,8.918 1.76,3.203 3.96,6.511 6.19,10.152 4.6,7.168 9.35,15.711 16.09,24.109 3.25,4.309 6.63,8.821 10.15,13.489 3.57,4.66 7.84,9.05 11.97,13.839 8.09,9.77 18.08,18.903 28.32,28.801 21.26,18.903 46.49,37.692 75.2,53.762 28.91,15.68 58.26,26.98 85.59,34.871 13.83,3.367 26.89,6.938 39.46,8.559 6.26,0.929 12.25,2.199 18.1,2.738 5.83,0.473 11.44,0.93 16.82,1.371 5.84,0.66 11.39,0.801 16.62,0.801 1.89,0 3.73,-0.02 5.53,-0.039 1.81,-0.024 3.58,-0.032 5.29,-0.032 0.52,0 1.04,0 1.55,0 4.26,-0.058 8.23,0.032 11.88,-0.179 3.57,-0.34 6.89,-0.66 9.95,-0.961 5.46,-0.59 9.99,-1.078 13.74,-1.488 3.13,-0.403 4.76,-0.692 4.74,-0.872 -0.02,-0.14 -0.93,-0.199 -2.68,-0.199 -0.62,0 -1.34,0.008 -2.17,0.02 -3.75,0.148 -8.29,0.32 -13.75,0.519 -3.06,0.149 -6.36,0.321 -9.92,0.5 -0.42,0.008 -0.84,0.008 -1.27,0.008 -3.27,0 -6.79,-0.199 -10.53,-0.258 -8.46,-0.34 -18.11,-0.05 -28.69,-1.5 -5.31,-0.531 -10.86,-1.101 -16.62,-1.679 -1.24,-0.141 -2.48,-0.313 -3.73,-0.5 -126.23,-9.629 -241.03,-97.102 -300.2,-211.629" /><path
         id="path200"
         style="fill:#33535f;fill-opacity:1;fill-rule:nonzero;stroke:none"
         d="m 662.59,18.5508 1300.63,6.5508 c 0,0 -8.59,-25.1016 45.32,-25.1016 l 430,3.01172 c 0,0 31.75,-3.01172 32.31,22.08988 0,0 1008.29,-16.99222 1257.33,-23.92972 18.66,-0.523442 51.63,10.76952 36.08,34.42972 L 3677.37,139.711 2238.79,279.43 1218.31,172.25 868.379,298.629 h -11.574 c -9.575,0 -18.563,-4.598 -24.153,-12.379 L 652.957,36.3594 C 647.895,28.6992 653.414,18.5 662.59,18.5508" /><path
         id="path202"
         style="fill:#263f48;fill-opacity:1;fill-rule:nonzero;stroke:none"
         d="M 3529.52,30.3203 1212.54,48.2695 1625.65,207.082 2305.3,180.059 2984.6,199.09 3529.52,30.3203" /><path
         id="path204"
         style="fill:#ffffff;fill-opacity:1;fill-rule:nonzero;stroke:none"
         d="m 2225.85,94 12.94,285.109 c 0,0 2.58,156.809 -186.27,209.082 -188.86,52.27 -424.28,-14.25 -644.19,-26.132 -219.9,-11.879 -217.31,4.75 -217.31,4.75 l -178.51,-275.61 701.1,-102.16 c 0,0 406.17,-23.758 413.93,-26.141 C 2135.3,160.531 2225.85,94 2225.85,94" /><path
         id="path206"
         style="fill:#ffffff;fill-opacity:1;fill-rule:nonzero;stroke:none"
         d="m 2223.58,83.8789 15.21,267.9101 c 0,0 -2.59,156.813 186.27,209.082 188.86,52.27 424.28,-14.262 644.18,-26.141 153.84,-8.308 201.54,-6.91 216.32,-5.332 4.31,0.473 8.5,-1.488 10.71,-4.91 l 168.8,-260.609 -701.1,-102.168 c 0,0 -406.17,-23.762 -413.94,-26.133 -7.76,-2.379 -126.45,-51.6991 -126.45,-51.6991" /><path
         id="path208"
         style="fill:#dadbd8;fill-opacity:1;fill-rule:nonzero;stroke:none"
         d="M 707.234,39.3516 1012.51,291.199 c 0,0 632.29,106.922 847.02,68.903 C 2074.25,322.09 2196.35,248.43 2225.85,91.6211 L 2019.93,39.3516 c 0,0 -119.01,66.5274 -274.24,68.9104 -155.22,2.367 -543.28,-68.9104 -543.28,-68.9104 H 707.234" /><path
         id="path210"
         style="fill:#dadbd8;fill-opacity:1;fill-rule:nonzero;stroke:none"
         d="M 2444.35,39.3516 2227.04,94 c 0,0 15.49,249.172 368.52,290.75 0,0 99.74,32.379 454.17,-34.148 354.43,-66.532 390.65,-64.153 390.65,-64.153 L 3735.3,25.1016 c 0,0 -175.92,-14.2618 -320.79,14.25 C 3269.63,67.8594 3016.1,165.281 2741.87,136.77 2467.64,108.262 2444.35,39.3516 2444.35,39.3516" /><path
         id="path212"
         style="fill:#dadbd8;fill-opacity:1;fill-rule:nonzero;stroke:none"
         d="M 1012.51,291.199 1185.26,557.922 878.785,313.359 685.215,39.3516 h 22.019 L 1012.51,291.199" /><path
         id="path214"
         style="fill:#dadbd8;fill-opacity:1;fill-rule:nonzero;stroke:none"
         d="m 3439.19,286.449 -140.75,236.59 c 0,0 280.43,-243.859 282.91,-250.699 2.48,-6.84 152.77,-247.2384 152.77,-247.2384 L 3439.19,286.449" /><path
         id="path216"
         style="fill:#17282f;fill-opacity:1;fill-rule:nonzero;stroke:none"
         d="m 2008.54,39.3516 h 434.63 L 2225.85,94 2214.46,91.6211" /><path
         id="path218"
         style="fill:#17282f;fill-opacity:1;fill-rule:nonzero;stroke:none"
         d="m 2225.85,94 c -1.44,0.0586 0.03,62.27 3.28,138.941 3.25,76.688 7.05,138.789 8.49,138.731 1.43,-0.063 -0.03,-62.262 -3.28,-138.953 -3.25,-76.668 -7.05,-138.7776 -8.49,-138.719" /><path
         id="path220"
         style="fill:#17282f;fill-opacity:1;fill-rule:nonzero;stroke:none"
         d="m 1317.11,335.23 c 0.03,-0.16 -2.01,-0.609 -5.94,-1.339 -4.42,-0.75 -10.14,-1.731 -17.26,-2.95 -15.63,-2.453 -37.35,-5.859 -64.16,-10.062 -55.09,-8.188 -130.98,-19.457 -216.87,-32.231 l 1.2,0.512 C 1000.71,278.859 986.691,268.059 972.422,257.07 893.559,196.762 822.191,142.18 769.984,102.262 744.273,82.9102 723.309,67.1406 708.273,55.8203 701.25,50.6719 695.617,46.5391 691.336,43.3984 c -3.91,-2.789 -6.016,-4.1875 -6.125,-4.0468 -0.109,0.1484 1.781,1.8203 5.484,4.8789 4.133,3.3398 9.563,7.7187 16.34,13.1992 14.793,11.6289 35.414,27.8516 60.703,47.7503 51.969,40.23 123.008,95.242 201.508,156.019 14.281,10.973 28.317,21.762 41.694,32.043 l 0.54,0.418 0.66,0.09 c 85.99,12.082 161.97,22.762 217.12,30.512 26.91,3.558 48.7,6.437 64.39,8.519 7.17,0.848 12.93,1.528 17.38,2.059 3.97,0.422 6.06,0.558 6.08,0.39" /><path
         id="path222"
         style="fill:#17282f;fill-opacity:1;fill-rule:nonzero;stroke:none"
         d="m 2197.31,243.59 c -0.07,-0.051 -0.73,0.648 -1.94,2.058 -1.38,1.653 -3.11,3.743 -5.27,6.332 -4.61,5.571 -11.61,13.629 -21.28,23.372 -19.32,19.378 -50.04,45.32 -93.63,67.949 -43.28,23.078 -99.3,41.808 -163.33,52.289 -64.03,10.769 -135.66,13.64 -210.64,13.992 -150.19,0.867 -285.73,-13.703 -382.85,-28.973 -48.6,-7.589 -87.7,-15.121 -114.69,-20.48 -13.19,-2.688 -23.58,-4.797 -31.06,-6.32 -3.31,-0.629 -5.98,-1.137 -8.1,-1.539 -1.83,-0.321 -2.78,-0.442 -2.8,-0.348 -0.02,0.078 0.89,0.379 2.68,0.867 2.09,0.531 4.72,1.199 7.99,2.043 7.05,1.699 17.42,4.309 30.87,7.277 26.88,5.981 65.92,14.071 114.53,22.129 97.11,16.231 232.93,31.422 383.45,30.551 75.12,-0.348 147,-3.367 211.42,-14.461 64.39,-10.808 120.84,-30.078 164.25,-53.769 43.75,-23.25 74.37,-49.86 93.36,-69.789 9.5,-10.02 16.29,-18.329 20.65,-24.129 2,-2.743 3.6,-4.93 4.88,-6.672 1.07,-1.52 1.58,-2.328 1.51,-2.379" /><path
         id="path224"
         style="fill:#17282f;fill-opacity:1;fill-rule:nonzero;stroke:none"
         d="m 2197.31,278.391 c -0.07,-0.051 -0.68,0.589 -1.81,1.89 -1.3,1.559 -2.91,3.481 -4.9,5.86 -2.07,2.64 -4.8,5.769 -8.1,9.39 -3.2,3.719 -7.04,7.86 -11.54,12.36 -17.61,18.281 -45.92,42.418 -85.6,64.648 -39.53,22.41 -90.74,41.672 -149.71,53.449 -58.96,12.012 -125.23,16.602 -194.73,17.903 -139.15,3.07 -265.04,-7.121 -355.44,-18.7 -45.23,-5.73 -81.7,-11.453 -106.86,-15.652 -12.26,-2.059 -21.94,-3.687 -28.97,-4.859 -3.07,-0.469 -5.55,-0.86 -7.55,-1.16 -1.71,-0.239 -2.6,-0.309 -2.61,-0.219 -0.02,0.078 0.83,0.328 2.5,0.738 1.98,0.441 4.44,0.992 7.47,1.672 6.57,1.359 16.26,3.5 28.81,5.82 25.07,4.821 61.49,11.11 106.73,17.309 90.41,12.539 216.56,23.34 356.03,20.262 69.63,-1.313 136.25,-6.063 195.58,-18.411 59.34,-12.109 110.94,-31.921 150.56,-54.953 39.8,-22.828 67.99,-47.617 85.25,-66.449 4.42,-4.629 8.17,-8.91 11.25,-12.75 3.19,-3.75 5.8,-6.988 7.75,-9.738 1.83,-2.52 3.31,-4.563 4.5,-6.199 0.99,-1.411 1.46,-2.161 1.39,-2.211" /><path
         id="path226"
         style="fill:#17282f;fill-opacity:1;fill-rule:nonzero;stroke:none"
         d="m 2197.31,313.191 c -0.07,-0.062 -0.68,0.579 -1.8,1.868 -1.29,1.543 -2.88,3.453 -4.85,5.812 -2.06,2.609 -4.75,5.711 -8.02,9.301 -3.18,3.68 -6.96,7.797 -11.43,12.25 -17.44,18.109 -45.41,42.098 -84.66,64.226 -39.11,22.262 -89.69,41.723 -148.09,53.563 -58.35,12.16 -123.99,16.969 -192.83,18.391 -137.84,3.289 -262.58,-6.391 -352.17,-17.571 -44.83,-5.531 -80.98,-11.062 -105.92,-15.133 -12.15,-1.976 -21.74,-3.546 -28.72,-4.687 -3.04,-0.449 -5.5,-0.82 -7.49,-1.121 -1.69,-0.219 -2.57,-0.289 -2.58,-0.199 -0.02,0.078 0.82,0.328 2.48,0.718 1.97,0.442 4.4,0.969 7.4,1.629 6.52,1.332 16.12,3.41 28.57,5.66 24.85,4.692 60.95,10.782 105.79,16.782 89.61,12.14 214.6,22.422 352.76,19.121 68.98,-1.422 134.97,-6.391 193.69,-18.891 58.76,-12.18 109.73,-32.199 148.94,-55.058 39.36,-22.731 67.2,-47.383 84.3,-66.032 4.38,-4.59 8.07,-8.84 11.13,-12.64 3.17,-3.711 5.74,-6.942 7.67,-9.66 1.81,-2.489 3.27,-4.508 4.46,-6.141 0.98,-1.399 1.44,-2.137 1.37,-2.188" /><path
         id="path228"
         style="fill:#17282f;fill-opacity:1;fill-rule:nonzero;stroke:none"
         d="m 2197.31,347.988 c -0.07,-0.058 -0.67,0.563 -1.76,1.832 -1.27,1.512 -2.83,3.379 -4.75,5.68 -4.08,5.059 -10.38,12.309 -18.91,21.219 -17.02,17.769 -43.51,42.14 -80.78,65.75 -37.13,23.562 -85.17,46.511 -142.3,58.34 -56.98,12.671 -121.53,13.281 -188.91,12.461 -134.99,-0.879 -257.1,-6.622 -345.04,-15.899 -43.97,-4.48 -79.45,-9.172 -103.9,-12.832 -11.91,-1.769 -21.32,-3.18 -28.17,-4.199 -2.97,-0.399 -5.39,-0.731 -7.34,-1 -1.66,-0.192 -2.52,-0.25 -2.54,-0.16 -0.01,0.09 0.81,0.32 2.44,0.691 1.94,0.399 4.32,0.891 7.26,1.5 6.4,1.207 15.81,3.199 28.03,5.18 24.38,4.269 59.83,9.519 103.83,14.48 87.98,10.231 210.31,16.571 345.39,17.438 67.37,0.832 132.43,0.101 189.96,-12.969 57.66,-12.199 106.16,-35.809 143.27,-59.93 37.33,-24.199 63.62,-49.172 80.28,-67.468 8.36,-9.172 14.43,-16.672 18.25,-21.954 1.76,-2.429 3.19,-4.41 4.35,-6.007 0.96,-1.371 1.41,-2.102 1.34,-2.153" /><path
         id="path230"
         style="fill:#17282f;fill-opacity:1;fill-rule:nonzero;stroke:none"
         d="m 2197.31,382.781 c -0.07,-0.051 -0.66,0.571 -1.73,1.84 -1.25,1.52 -2.78,3.391 -4.67,5.688 -4.03,5.043 -10.08,12.41 -18.23,21.57 -16.24,18.262 -41.02,44.101 -77.15,68.82 -18.09,12.211 -38.93,24.242 -62.78,33.742 -23.77,9.618 -50.39,16.879 -78.81,22.129 -56.9,10.629 -120.87,13.5 -187.71,11.77 -133.91,-3.981 -254.71,-16.899 -342.29,-23.68 -43.79,-3.57 -79.26,-6.121 -103.8,-7.512 -11.94,-0.597 -21.37,-1.078 -28.25,-1.429 -2.98,-0.09 -5.4,-0.16 -7.36,-0.219 -1.66,-0.02 -2.51,0.012 -2.52,0.102 0,0.089 0.84,0.23 2.48,0.429 1.96,0.199 4.37,0.438 7.33,0.739 6.86,0.582 16.27,1.39 28.18,2.402 24.91,2.199 60.2,5.316 103.62,9.16 87.47,7.707 208.24,21.219 342.48,25.219 67.07,1.73 131.39,-1.281 188.73,-12.27 28.64,-5.429 55.5,-12.902 79.56,-22.84 24.1,-9.812 45.08,-22.179 63.23,-34.711 36.23,-25.371 60.76,-51.781 76.6,-70.519 7.94,-9.41 13.75,-17 17.52,-22.262 1.73,-2.429 3.13,-4.41 4.26,-6.008 0.94,-1.382 1.38,-2.101 1.31,-2.16" /><path
         id="path232"
         style="fill:#17282f;fill-opacity:1;fill-rule:nonzero;stroke:none"
         d="m 2260.1,253.141 c -0.07,0.05 0.46,0.839 1.56,2.339 1.31,1.719 2.95,3.891 5,6.579 4.46,5.722 11.4,13.91 21.09,23.75 19.35,19.582 50.46,45.621 94.62,68.062 43.85,22.891 100.63,41.117 165.22,50.738 64.61,9.911 136.54,11.602 211.65,10.571 150.51,-1.891 286.02,-19.571 382.82,-37.578 48.45,-8.961 87.34,-17.77 114.11,-24.231 13.39,-3.23 23.71,-6.019 30.72,-7.851 3.26,-0.899 5.88,-1.622 7.95,-2.188 1.79,-0.531 2.69,-0.844 2.67,-0.922 -0.02,-0.09 -0.97,0.051 -2.79,0.399 -2.11,0.441 -4.77,1 -8.08,1.691 -7.44,1.66 -17.79,3.961 -30.93,6.891 -26.88,5.847 -65.84,14.097 -114.3,22.578 -96.82,17.062 -232.07,34.121 -382.24,36 -74.99,1.043 -146.65,-0.52 -210.87,-10.11 -64.21,-9.3 -120.57,-27 -164.26,-49.269 -44.01,-21.828 -75.2,-47.199 -94.86,-66.219 -9.85,-9.562 -17,-17.5 -21.72,-22.98 -2.2,-2.551 -3.97,-4.61 -5.38,-6.243 -1.23,-1.378 -1.91,-2.07 -1.98,-2.007" /><path
         id="path234"
         style="fill:#17282f;fill-opacity:1;fill-rule:nonzero;stroke:none"
         d="m 2260.74,287.93 c -0.07,0.05 0.42,0.789 1.43,2.179 1.23,1.621 2.74,3.629 4.62,6.11 1.99,2.722 4.66,5.91 7.92,9.613 3.16,3.777 6.98,7.988 11.48,12.539 17.61,18.5 46.25,42.77 86.46,64.867 40.05,22.293 92,41.153 151.54,52.172 59.56,11.262 126.25,14.781 195.89,14.809 139.5,0.519 265.44,-12.598 355.6,-26.801 45.12,-7.027 81.42,-13.988 106.4,-19.27 12.5,-2.546 22.15,-4.859 28.7,-6.347 3.01,-0.731 5.46,-1.332 7.43,-1.813 1.66,-0.429 2.51,-0.699 2.49,-0.777 -0.02,-0.09 -0.9,0 -2.6,0.258 -2,0.351 -4.48,0.781 -7.54,1.301 -7,1.308 -16.65,3.109 -28.88,5.39 -25.07,4.668 -61.42,11.059 -106.54,17.621 -90.18,13.239 -215.86,25.75 -355.05,25.231 -69.5,-0.024 -135.85,-3.403 -195.02,-14.321 -59.17,-10.691 -110.73,-29 -150.66,-50.691 -40.08,-21.488 -68.84,-45.109 -86.78,-63.059 -4.58,-4.41 -8.5,-8.492 -11.76,-12.14 -3.37,-3.571 -6.15,-6.653 -8.27,-9.242 -2.04,-2.348 -3.68,-4.239 -5.01,-5.77 -1.15,-1.289 -1.78,-1.918 -1.85,-1.859" /><path
         id="path236"
         style="fill:#17282f;fill-opacity:1;fill-rule:nonzero;stroke:none"
         d="m 2261.38,322.719 c -0.07,0.051 0.41,0.793 1.42,2.172 1.21,1.609 2.71,3.589 4.57,6.05 1.98,2.688 4.61,5.868 7.84,9.52 3.14,3.738 6.9,7.93 11.36,12.437 17.44,18.332 45.73,42.461 85.51,64.461 39.62,22.141 90.94,41.223 149.91,52.309 58.95,11.434 125.02,15.184 194.01,15.344 138.2,0.75 262.98,-11.832 352.35,-25.614 44.72,-6.82 80.71,-13.578 105.47,-18.718 12.4,-2.469 21.96,-4.731 28.46,-6.18 2.98,-0.719 5.4,-1.301 7.36,-1.77 1.65,-0.421 2.49,-0.679 2.47,-0.769 -0.01,-0.09 -0.89,0 -2.58,0.25 -1.98,0.34 -4.44,0.75 -7.47,1.258 -6.94,1.269 -16.51,3.011 -28.62,5.222 -24.86,4.528 -60.9,10.719 -105.62,17.071 -89.37,12.828 -213.91,24.789 -351.8,24.039 -68.85,-0.153 -134.56,-3.762 -193.13,-14.84 -58.6,-10.762 -109.54,-29.289 -149.05,-50.832 -39.65,-21.399 -68.05,-44.879 -85.83,-62.66 -4.54,-4.367 -8.4,-8.418 -11.64,-12.039 -3.34,-3.532 -6.09,-6.578 -8.19,-9.16 -2.02,-2.309 -3.65,-4.188 -4.96,-5.711 -1.15,-1.27 -1.77,-1.899 -1.84,-1.84" /><path
         id="path238"
         style="fill:#17282f;fill-opacity:1;fill-rule:nonzero;stroke:none"
         d="m 2262.02,382.781 c 0,0 7.26,11.59 25.04,28.52 17.62,17.008 47.15,37.679 87.4,55.097 20.06,8.793 42.65,16.934 67.13,24.743 24.47,7.629 50.81,16.039 79.44,20.918 57.18,10.679 121.26,9.761 187.7,7.691 133.4,-4.238 253.13,-20.68 339.75,-30.859 42.99,-5.18 77.93,-9.391 102.6,-12.36 11.78,-1.41 21.1,-2.531 27.9,-3.34 2.93,-0.402 5.31,-0.722 7.24,-0.992 1.63,-0.25 2.46,-0.418 2.46,-0.508 -0.01,-0.089 -0.86,-0.101 -2.51,-0.019 -1.95,0.129 -4.35,0.277 -7.29,0.469 -6.83,0.578 -16.18,1.371 -28.01,2.371 -24.31,2.207 -59.44,5.898 -102.82,10.726 -86.74,9.242 -206.45,25.082 -339.47,29.313 -66.46,2.07 -130.08,3.097 -186.7,-7.219 -28.35,-4.684 -54.46,-12.863 -79,-20.312 -24.45,-7.598 -46.96,-15.5 -66.96,-24 -40.11,-16.848 -69.6,-36.809 -87.49,-53.219 -4.63,-3.942 -8.42,-7.781 -11.67,-11.153 -3.37,-3.257 -6.04,-6.187 -8.09,-8.66 -1.96,-2.199 -3.55,-4 -4.85,-5.449 -1.12,-1.219 -1.73,-1.809 -1.8,-1.758" /><path
         id="path240"
         style="fill:#f2575d;fill-opacity:1;fill-rule:nonzero;stroke:none"
         d="M 2696.44,292.082 V 122.879 l 56.04,50.691 54.88,-48.031 3.2,164.742 c 0,0 -90.18,4.879 -114.12,1.801" /><path
         id="path242"
         style="fill:#17282f;fill-opacity:1;fill-rule:nonzero;stroke:none"
         d="m 3330.66,193.859 c -0.02,-0.078 -1,0.082 -2.87,0.481 -2.15,0.5 -4.87,1.121 -8.27,1.898 -7.63,1.84 -18.25,4.391 -31.74,7.633 -27.56,6.578 -67.55,15.668 -117.27,25.438 -49.69,9.863 -109.14,20.171 -175.27,31 -33.08,5.441 -67.78,11.16 -103.76,17.082 -35.86,6.539 -73.25,10.468 -111.83,12.05 -38.55,1.45 -76.28,1.071 -112.55,-1.652 -36.26,-2.59 -71.15,-7.269 -103.46,-15.391 -64.89,-16.168 -118.76,-45.339 -158.56,-76.257 -20.02,-15.379 -37,-30.77 -51.21,-44.961 -14.35,-14.071 -26.03,-26.871 -35.54,-37.36 -9.15,-10.429 -16.35,-18.6286 -21.51,-24.5192 -2.31,-2.6211 -4.16,-4.711 -5.63,-6.3594 -1.29,-1.4219 -1.98,-2.1211 -2.05,-2.0625 -0.07,0.0625 0.49,0.8711 1.64,2.3906 1.36,1.7422 3.08,3.9493 5.23,6.6993 4.59,5.8906 11.62,14.3712 20.8,25.1912 9.3,10.711 20.79,23.75 35,38.082 14.08,14.438 30.98,30.117 51.02,45.809 39.8,31.539 94.17,61.429 159.61,77.988 32.7,8.359 67.81,13.16 104.28,15.84 36.48,2.812 74.39,3.223 113.15,1.762 38.7,-1.582 76.56,-5.602 112.46,-12.219 35.95,-6.024 70.64,-11.844 103.7,-17.383 66.11,-11.09 125.55,-21.777 175.21,-32.117 49.68,-10.242 89.59,-19.891 117.03,-27.082 13.74,-3.5 24.33,-6.539 31.51,-8.578 3.35,-0.992 6.03,-1.782 8.15,-2.403 1.83,-0.57 2.75,-0.91 2.73,-1" /><path
         id="path244"
         style="fill:#17282f;fill-opacity:1;fill-rule:nonzero;stroke:none"
         d="m 2151.65,78.1719 c -0.07,-0.0508 -0.92,0.7773 -2.51,2.4765 -1.74,1.9024 -4.04,4.4102 -6.94,7.5821 -3.08,3.3086 -6.65,7.6093 -11.27,12.3285 -4.73,4.671 -10.14,10.019 -16.2,16.011 -24.74,23.641 -64.12,54.61 -118.72,82.461 -54.61,27.571 -124.6,51.11 -204.84,62.231 -80.22,11.398 -169.99,9.398 -262.79,-1.891 -92.92,-11.512 -180.33,-30.031 -259.85,-46.441 -79.51,-16.578 -151.38,-30.66 -212.25,-39.391 -60.858,-8.769 -110.546,-12.598 -144.909,-13.648 -17.183,-0.493 -30.527,-0.661 -39.574,-0.422 -4.305,0.082 -7.703,0.152 -10.289,0.191 -2.32,0.078 -3.504,0.16 -3.504,0.25 0,0.09 1.187,0.192 3.504,0.289 2.586,0.082 5.984,0.18 10.281,0.321 9.039,0.089 22.356,0.601 39.496,1.402 34.274,1.66 83.785,6.047 144.455,15.258 60.69,9.191 132.36,23.609 211.81,40.441 79.46,16.68 166.97,35.367 260.2,46.918 93.11,11.332 183.36,13.211 264.09,1.473 80.73,-11.461 151.08,-35.524 205.84,-63.703 54.76,-28.457 94.04,-60.079 118.45,-84.278 5.96,-6.14 11.28,-11.621 15.93,-16.41 4.51,-4.8515 7.97,-9.2812 10.93,-12.6991 2.74,-3.3203 4.91,-5.9414 6.56,-7.9414 1.46,-1.8008 2.17,-2.75 2.1,-2.8086" /><path
         id="path246"
         style="fill:#17282f;fill-opacity:1;fill-rule:nonzero;stroke:none"
         d="m 2151.65,43.0508 c -0.07,-0.0625 -0.92,0.7812 -2.51,2.4687 -1.74,1.9102 -4.04,4.4219 -6.94,7.5899 -3.08,3.3008 -6.65,7.6094 -11.27,12.332 -4.73,4.668 -10.14,10.0195 -16.2,16.0078 -24.74,23.6408 -64.12,54.6018 -118.72,82.4608 -54.61,27.57 -124.6,51.102 -204.84,62.219 -80.22,11.402 -169.99,9.41 -262.79,-1.879 -92.92,-11.52 -180.33,-30.031 -259.85,-46.449 -79.51,-16.582 -151.38,-30.653 -212.25,-39.391 -60.858,-8.762 -110.546,-12.601 -144.909,-13.64 -17.183,-0.489 -30.527,-0.668 -39.574,-0.43 -4.305,0.09 -7.703,0.152 -10.289,0.199 -2.32,0.082 -3.504,0.16 -3.504,0.25 0,0.09 1.187,0.18 3.504,0.281 2.586,0.078 5.984,0.192 10.281,0.321 9.039,0.097 22.356,0.609 39.496,1.398 34.274,1.672 83.785,6.063 144.455,15.262 60.69,9.187 132.36,23.609 211.81,40.449 79.46,16.672 166.97,35.359 260.2,46.922 93.11,11.328 183.36,13.199 264.09,1.457 80.73,-11.449 151.08,-35.52 205.84,-63.688 54.76,-28.461 94.04,-60.082 118.45,-84.2808 5.96,-6.1407 11.28,-11.6211 15.93,-16.4102 4.51,-4.8516 7.97,-9.2812 10.93,-12.6992 2.74,-3.3203 4.91,-5.9414 6.56,-7.9414 1.46,-1.8008 2.17,-2.75 2.1,-2.8086" /><path
         id="path248"
         style="fill:#17282f;fill-opacity:1;fill-rule:nonzero;stroke:none"
         d="m 2048.84,72.8398 c -0.12,-0.1406 -2.04,1.2696 -5.57,4.0704 -3.61,2.6992 -8.49,7.2187 -15.45,12.1992 -13.5,10.4492 -33.99,24.4216 -60.91,38.7496 -26.88,14.411 -60.61,28.34 -99.41,39.36 -38.78,11.023 -82.66,18.711 -129.09,22.09 -93.12,6.23 -177.58,-4.028 -238.14,-11.848 -29.86,-4.199 -54.23,-7.629 -71.8,-10.102 -8.06,-1.109 -14.55,-2 -19.54,-2.687 -4.47,-0.563 -6.84,-0.774 -6.87,-0.59 -0.03,0.168 2.28,0.727 6.7,1.617 4.96,0.942 11.39,2.153 19.39,3.66 16.86,3.039 41.29,7.243 71.61,11.75 60.5,8.75 145.22,19.661 239.01,13.391 46.78,-3.398 91.01,-11.301 130.05,-22.672 39.06,-11.359 72.95,-25.789 99.83,-40.719 26.93,-14.871 47.24,-29.41 60.42,-40.4098 6.8,-5.25 11.49,-10.0273 14.89,-13 3.32,-3.0586 5,-4.7304 4.88,-4.8594" /><path
         id="path250"
         style="fill:#f9a78d;fill-opacity:1;fill-rule:nonzero;stroke:none"
         d="m 1663.82,780.488 353.18,76.34 c 0,0 132.35,26.731 158.01,12.594 25.66,-14.141 173.08,-132.133 185.75,-143.133 12.68,-11 153.71,-179.848 153.71,-179.848 0,0 -3.21,-53.511 -80.61,-32.05 C 2394,525.449 2224.71,673.43 2224.71,673.43 l -39.41,31.101 c 0,0 61.74,-95.582 60.48,-127 -1.25,-31.422 -40.48,-94.113 -53.94,-102.75 -13.46,-8.64 -81.17,3.25 -81.17,3.25 0,0 -47.98,-51.84 -85.68,-10.992 0,0 -64.31,-66.918 -116.52,-28.117 l -27.96,54.887 -26.71,20.742 c 0,0 -4.14,-37.86 -30.54,-42.051 -26.39,-4.191 -316.37,58.418 -316.37,58.418 l 100.22,273.301 56.71,-23.731" /><path
         id="path252"
         style="fill:#f57f62;fill-opacity:1;fill-rule:nonzero;stroke:none"
         d="m 2039.29,683.871 c 0.21,0.258 3.16,-1.641 8.16,-5.492 5,-3.859 12.06,-9.668 20.4,-17.289 16.55,-15.391 38.62,-37.621 58.1,-66.508 4.69,-7.352 8.71,-15 11.5,-22.852 1.34,-4.011 2.69,-7.652 3.17,-12.062 0.42,-4.188 0.16,-8.148 -0.27,-11.949 -1.99,-15.149 -6.43,-28 -10.61,-38.547 -4.26,-10.531 -8.65,-18.672 -12.32,-23.902 -3.67,-5.258 -6.58,-7.461 -6.75,-7.239 -0.31,0.321 2,2.887 5.03,8.321 3.05,5.41 6.85,13.617 10.6,24.117 3.66,10.48 7.66,23.34 9.28,37.769 0.35,3.59 0.51,7.293 0.1,10.84 -0.35,3.371 -1.76,7.281 -3.02,10.91 -2.7,7.391 -6.56,14.672 -11.1,21.793 -18.95,28.11 -40.55,50.797 -56.25,66.637 -15.92,15.801 -26.53,24.832 -26.02,25.453" /><path
         id="path254"
         style="fill:#f57f62;fill-opacity:1;fill-rule:nonzero;stroke:none"
         d="m 1857.02,652.449 c -0.08,0.231 3.67,1.91 10.89,3.52 7.18,1.722 18.02,2.769 31.24,1.269 26.19,-2.918 62.33,-18.898 87.11,-51.738 12.14,-16.48 19.34,-34.641 24.52,-51.23 5.17,-16.661 8.1,-32.079 10.21,-45.02 2.04,-12.961 3.16,-23.512 3.71,-30.809 0.57,-7.3 0.63,-11.359 0.29,-11.402 -0.84,-0.098 -2.71,15.992 -7.62,41.57 -2.55,12.75 -5.83,27.93 -11.16,44.211 -5.33,16.219 -12.52,33.84 -24.13,49.571 -11.66,15.648 -26.54,27.629 -41.21,36.058 -14.73,8.461 -29.56,13.09 -42.22,15.153 -25.66,3.867 -41.46,-2.43 -41.63,-1.153" /><path
         id="path256"
         style="fill:#f57f62;fill-opacity:1;fill-rule:nonzero;stroke:none"
         d="m 2066.16,787.602 c -0.08,0.347 2.04,1 6.08,1.898 2.02,0.629 4.54,0.488 7.48,0.52 2.98,0.21 6.26,-0.399 9.9,-1.071 14.7,-2.578 32.81,-12.84 49.78,-27.019 16.97,-14.34 30.08,-29.598 38.64,-41.258 8.62,-11.641 12.7,-19.672 12.15,-20 -0.67,-0.422 -5.81,6.816 -15.04,17.719 -9.18,10.918 -22.52,25.539 -39.09,39.55 -16.59,13.848 -33.65,24.118 -47.28,27.418 -13.57,3.7 -22.44,1.18 -22.62,2.243" /><path
         id="path258"
         style="fill:#f2575d;fill-opacity:1;fill-rule:nonzero;stroke:none"
         d="M 1601.76,841.211 1425.1,910.102 1099.61,893.391 937.383,674.621 872.285,359.531 c 0,0 596.095,130.91 614.995,132.649 18.91,1.742 49.27,32.41 49.27,32.41 l 63.64,-13.289 81.47,273.051 -79.9,56.859" /><path
         id="path260"
         style="fill:#17282f;fill-opacity:1;fill-rule:nonzero;stroke:none"
         d="m 1708.35,798.879 c -0.04,-0.078 -0.86,0.141 -2.41,0.66 -1.84,0.66 -4.1,1.461 -6.88,2.441 -6.39,2.399 -15.15,5.68 -26.23,9.84 -23.12,8.918 -55.85,21.539 -96.13,37.078 -40.64,15.883 -88.83,34.723 -142.31,55.622 -26.76,10.55 -54.84,21.609 -83.94,33.082 -28.99,11.628 -59.14,23.457 -91.17,31.347 -31.96,8.031 -64.36,10.531 -95.24,7.321 -30.88,-3.122 -60.13,-10.79 -86.79,-21.059 -53.52,-20.481 -96.648,-49.992 -130.941,-76.371 -34.321,-26.57 -60.301,-50.36 -78.469,-66.508 -8.813,-7.891 -15.781,-14.121 -20.867,-18.684 -2.223,-1.929 -4.032,-3.5 -5.504,-4.769 -1.258,-1.059 -1.934,-1.57 -1.996,-1.5 -0.063,0.062 0.492,0.699 1.632,1.891 1.379,1.378 3.075,3.07 5.153,5.152 4.926,4.726 11.676,11.207 20.211,19.398 17.758,16.621 43.386,40.848 77.574,67.93 34.148,26.852 77.397,56.961 131.487,77.941 26.94,10.52 56.59,18.411 88.01,21.649 31.39,3.351 64.57,0.82 96.98,-7.34 32.49,-7.988 62.83,-19.961 91.84,-31.668 29.06,-11.57 57.11,-22.73 83.83,-33.363 53.32,-21.289 101.38,-40.481 141.9,-56.66 40.01,-16.18 72.53,-29.329 95.5,-38.61 10.92,-4.539 19.56,-8.129 25.87,-10.75 2.69,-1.168 4.89,-2.129 6.68,-2.91 1.49,-0.687 2.24,-1.078 2.21,-1.16" /><path
         id="path262"
         style="fill:#f9a78d;fill-opacity:1;fill-rule:nonzero;stroke:none"
         d="m 3159.39,319.59 c -7.09,11.898 -9.88,28.859 7.34,49.109 l 47.59,21.27 c 0,0 11.14,29.371 23.29,40.511 12.16,11.141 30.38,25.309 30.38,25.309 0,0 26.33,36.461 51.65,51.652 25.32,15.188 87.09,31.387 108.36,49.618 21.26,18.23 88.1,76.961 134.68,54.679 46.58,-22.269 80,-100.597 116.46,-117.129 36.45,-16.539 49.62,-71.218 63.79,-93.5 14.18,-22.281 29.37,-38.48 31.4,-55.699 2.02,-17.211 41.52,-51.64 48.61,-98.23 7.09,-46.578 3.03,-62.782 -18.23,-80 -21.27,-17.211 -62.79,-51.641 -104.31,-57.719 -23.29,-3.41 -55.2,-5.539 -78.72,-6.762 -19.1,-0.988 -36.86,9.699 -45,27.012 l -2.86,6.078 c 0,0 -106.33,-53.6679 -156.96,-46.5781 -50.64,7.0899 -30.38,50.6291 -30.38,50.6291 0,0 -51.65,-49.6212 -84.06,-40.5119 -32.4,9.1209 -49.62,8.1129 -52.65,36.4609 -3.04,28.352 21.19,60.859 21.19,60.859 0,0 -48.54,-1.109 -52.59,31.293 -4.05,32.411 13.17,66.84 13.17,66.84 l -39.01,4.41 c -13.53,1.539 -26.17,8.7 -33.14,20.399" /><path
         id="path264"
         style="fill:#f57f62;fill-opacity:1;fill-rule:nonzero;stroke:none"
         d="m 3431.48,536.66 c 0.33,-0.148 -1.4,-4.219 -4.83,-11.512 -1.65,-3.668 -3.81,-8.097 -6.91,-12.91 -3.02,-4.847 -6.14,-10.617 -10.56,-16.308 -8.17,-11.879 -19.36,-24.942 -32.45,-38.711 -13.24,-13.629 -28.46,-27.91 -44.59,-42.61 -16.12,-14.718 -31.25,-28.898 -44.4,-42.379 -12.94,-13.648 -24.06,-26.46 -32.17,-38.14 -16.52,-23.149 -22.97,-39.801 -24.03,-39.309 -0.33,0.141 1.25,4.27 4.42,11.668 1.52,3.742 3.54,8.231 6.5,13.133 2.86,4.949 5.81,10.809 10.09,16.609 7.84,12.118 18.83,25.36 31.71,39.348 13.09,13.789 28.23,28.18 44.36,42.91 16.14,14.711 31.36,28.789 44.67,42.121 13.15,13.461 24.48,26.09 32.92,37.532 17.13,22.718 24.25,39.066 25.27,38.558" /><path
         id="path266"
         style="fill:#f57f62;fill-opacity:1;fill-rule:nonzero;stroke:none"
         d="m 3563.35,492.719 c 0.17,-0.071 -0.27,-1.489 -1.26,-4.129 -0.97,-2.649 -2.52,-6.508 -4.69,-11.399 -4.34,-9.781 -11.07,-23.793 -20.91,-40.261 -9.85,-16.43 -22.78,-35.391 -39.42,-54.61 -16.54,-19.269 -37.24,-38.34 -60.52,-56.031 -23.29,-17.719 -46.44,-33.117 -67.16,-47.48 -20.75,-14.329 -39.05,-27.719 -53.72,-39.821 -14.82,-11.937 -25.6,-22.949 -33.17,-30.429 -7.17,-7.848 -11.25,-12.149 -11.54,-11.911 -0.27,0.211 3.27,4.954 10.04,13.274 7.16,7.949 17.65,19.476 32.29,31.879 14.5,12.558 32.7,26.359 53.35,40.937 20.62,14.621 43.64,30.114 66.75,47.684 23.1,17.566 43.52,36.187 60.07,55.058 16.63,18.801 29.73,37.329 39.89,53.379 10.16,16.082 17.33,29.731 22.22,39.2 4.88,9.48 7.39,14.832 7.78,14.66" /><path
         id="path268"
         style="fill:#f57f62;fill-opacity:1;fill-rule:nonzero;stroke:none"
         d="m 3579.7,480.078 c 0.95,-1.078 -6.74,-9.418 -17.19,-18.617 -10.44,-9.211 -19.68,-15.801 -20.63,-14.731 -0.95,1.079 6.74,9.418 17.19,18.629 10.44,9.211 19.68,15.801 20.63,14.719" /><path
         id="path270"
         style="fill:#f57f62;fill-opacity:1;fill-rule:nonzero;stroke:none"
         d="m 3642.67,357.949 c 0.26,-0.078 -0.88,-4.777 -4.03,-12.918 -3.08,-8.172 -8.72,-19.59 -17.4,-32.609 -17.2,-26.223 -48.92,-56.801 -89.11,-82.25 -39.95,-25.652 -77.3,-46.621 -103.42,-63.262 -13.12,-8.219 -23.6,-15.082 -30.79,-19.91 -7.2,-4.82 -11.21,-7.461 -11.44,-7.16 -0.21,0.269 3.39,3.461 10.26,8.801 6.85,5.359 17.06,12.711 29.97,21.359 25.71,17.488 62.85,39.031 102.59,64.531 39.81,25.231 71.25,54.778 88.91,80 17.98,25.078 23.41,43.891 24.46,43.418" /><path
         id="path272"
         style="fill:#f57f62;fill-opacity:1;fill-rule:nonzero;stroke:none"
         d="m 3746.16,292.18 c 0.3,-0.18 -1.14,-3.168 -4.02,-8.45 -2.85,-5.289 -7.4,-12.718 -13.49,-21.582 -12.07,-17.777 -30.81,-41.078 -54.81,-63.578 -12.06,-11.191 -24.26,-21.05 -35.78,-29.441 -11.71,-8.109 -22.51,-15.078 -32.13,-19.957 -4.7,-2.641 -9.14,-4.672 -13.04,-6.434 -3.86,-1.828 -7.26,-3.246 -10.12,-4.226 -5.65,-2.071 -8.82,-3.051 -8.95,-2.723 -0.34,0.852 11.96,5.813 30.31,16.59 9.26,5.223 19.71,12.43 31.1,20.633 11.21,8.488 23.15,18.32 35.06,29.359 23.69,22.219 42.64,44.848 55.37,61.93 12.78,17.051 19.76,28.32 20.5,27.879" /><path
         id="path274"
         style="fill:#f57f62;fill-opacity:1;fill-rule:nonzero;stroke:none"
         d="m 3256.06,406.738 c 0.4,-1.16 -19.39,-9.988 -44.06,-20.457 -24.76,-10.34 -44.74,-18.511 -45.27,-17.582 -0.87,1.59 18.48,12.039 43.24,22.383 24.71,10.477 45.55,17.219 46.09,15.656" /><path
         id="path276"
         style="fill:#f2575d;fill-opacity:1;fill-rule:nonzero;stroke:none"
         d="m 3284.96,592.441 c 28.77,0 52.08,-0.742 52.08,-1.66 0,-0.922 -23.31,-1.66 -52.08,-1.66 -28.75,0 -52.07,0.738 -52.07,1.66 0,0.918 23.32,1.66 52.07,1.66" /></g></g></svg>